<?xml version="1.0" encoding="UTF-8"?>
<svg id="Layer_2" data-name="Layer 2" xmlns="http://www.w3.org/2000/svg" viewBox="0 0 93.82 176.13">
  <defs>
    <style>
      .cls-1 {
        fill: #fff;
      }

      .cls-2 {
        fill: #2f8525;
      }
    </style>
  </defs>
  <g id="Layer_1-2" data-name="Layer 1">
    <g>
      <path class="cls-2" d="M0,5.44c0-.42,.05-.8,.15-1.16s.25-.65,.44-.91c.19-.25,.43-.45,.71-.59s.6-.21,.96-.21c.33,0,.63,.06,.88,.17,.25,.11,.48,.28,.66,.49l.04-.56h.88v7.78h-.96v-2.67c-.19,.2-.41,.35-.65,.45-.25,.11-.54,.16-.86,.16-.36,0-.67-.07-.95-.22-.28-.15-.51-.35-.71-.6-.19-.26-.34-.56-.44-.91-.1-.35-.15-.72-.15-1.12v-.11Zm.96,.11c0,.27,.03,.54,.09,.78,.06,.25,.15,.47,.28,.66,.12,.19,.28,.34,.48,.45,.19,.11,.42,.17,.69,.17,.31,0,.57-.07,.77-.21,.21-.14,.38-.32,.51-.54v-2.77c-.07-.11-.14-.21-.23-.29-.08-.09-.18-.17-.29-.23-.11-.07-.22-.12-.35-.15-.13-.04-.26-.05-.41-.05-.27,0-.5,.06-.69,.17-.19,.11-.35,.27-.48,.46-.13,.19-.22,.41-.28,.66-.06,.25-.09,.51-.09,.78v.11Z"/>
      <path class="cls-2" d="M10.21,7.52c-.19,.28-.42,.49-.7,.65-.28,.15-.6,.23-.97,.23-.29,0-.56-.05-.8-.14-.24-.09-.44-.23-.61-.43-.17-.19-.3-.44-.39-.74-.09-.3-.14-.66-.14-1.08V2.67h.96v3.35c0,.3,.02,.56,.07,.76,.05,.2,.12,.36,.22,.48,.1,.12,.22,.2,.36,.25,.14,.05,.3,.07,.49,.07,.39,0,.71-.08,.95-.24,.24-.16,.42-.37,.54-.64V2.67h.97v5.62h-.87l-.06-.77Z"/>
      <path class="cls-2" d="M15.42,8.4c-.4,0-.76-.07-1.09-.2-.33-.14-.61-.32-.85-.57-.24-.24-.42-.53-.55-.86-.13-.33-.2-.69-.2-1.09v-.22c0-.45,.07-.86,.22-1.22s.34-.66,.58-.91c.24-.25,.51-.44,.82-.57,.31-.13,.62-.2,.94-.2,.41,0,.76,.07,1.06,.21,.3,.14,.55,.33,.76,.58,.2,.25,.35,.54,.45,.88,.1,.34,.15,.7,.15,1.09v.43h-4.01c.01,.26,.06,.5,.15,.72,.09,.23,.21,.42,.36,.59s.34,.3,.55,.4c.21,.1,.45,.15,.71,.15,.34,0,.65-.07,.91-.21,.27-.14,.49-.32,.67-.55l.59,.46c-.09,.14-.21,.28-.35,.41-.14,.13-.3,.24-.49,.35s-.39,.18-.62,.24c-.23,.06-.48,.09-.76,.09Zm-.12-5.04c-.19,0-.38,.04-.55,.11-.17,.07-.33,.17-.47,.31-.14,.14-.26,.3-.35,.5-.1,.2-.16,.43-.2,.69h3.02v-.07c0-.19-.05-.37-.11-.56s-.15-.35-.27-.49c-.12-.15-.27-.26-.44-.35-.18-.09-.39-.13-.64-.13Z"/>
      <path class="cls-2" d="M23.01,2.57c.09,0,.18,0,.28,0,.1,0,.19,.01,.28,.03s.17,.03,.24,.04c.07,.02,.14,.04,.18,.06l-.13,.94c-.19-.04-.36-.07-.53-.09s-.34-.03-.53-.03c-.45,0-.81,.1-1.09,.31-.28,.2-.48,.49-.62,.86v3.6h-.97V2.67h.91l.05,.89c.23-.31,.5-.55,.82-.73s.68-.27,1.09-.27Z"/>
      <path class="cls-2" d="M27.77,6.3l.25,.68,1.71-4.31h1.08l-2.85,6.49c-.07,.15-.15,.3-.25,.46-.1,.16-.23,.31-.37,.45-.14,.14-.31,.25-.51,.35-.19,.09-.42,.14-.67,.14-.04,0-.09,0-.15,0-.06,0-.11-.01-.17-.02-.06,0-.11-.02-.16-.03-.05-.01-.09-.02-.12-.03l.16-.78s.06,0,.1,0c.04,0,.08,0,.13,.01s.09,0,.13,0c.04,0,.08,0,.1,0,.13,0,.25-.04,.36-.11s.21-.16,.29-.26,.16-.2,.22-.31c.06-.11,.11-.2,.14-.27l.38-.75-2.42-5.35h1.08l1.54,3.62Z"/>
      <path class="cls-1" d="M42.65,10.2c-.23,0-.43-.04-.61-.11s-.35-.16-.49-.28-.27-.25-.38-.41c-.11-.16-.19-.32-.26-.5-.07-.18-.12-.36-.16-.55-.04-.19-.05-.37-.05-.56v-.88c0-.5-.12-.86-.36-1.09s-.6-.34-1.09-.34v-.75c.49,0,.85-.11,1.09-.33,.24-.22,.36-.59,.36-1.09v-.88c0-.18,.02-.37,.05-.56,.03-.19,.08-.37,.15-.55,.07-.18,.15-.35,.25-.5,.1-.16,.23-.29,.37-.41,.15-.12,.31-.21,.5-.28,.19-.07,.4-.11,.64-.11l.11,.6c-.25,0-.45,.07-.59,.18-.15,.11-.26,.25-.33,.42s-.12,.36-.14,.58c-.02,.21-.03,.43-.03,.64v.88c0,.42-.1,.78-.29,1.09s-.49,.55-.89,.71c.4,.16,.7,.4,.89,.71s.29,.68,.29,1.09v.88c0,.21,.02,.43,.05,.64,.03,.21,.09,.4,.18,.58s.2,.31,.34,.42,.32,.17,.53,.18l-.11,.6Z"/>
      <path class="cls-1" d="M17.68,18.31c0,.4-.05,.78-.15,1.12-.1,.35-.24,.65-.43,.91-.19,.26-.42,.46-.69,.6s-.59,.22-.94,.22-.65-.06-.91-.17c-.26-.11-.49-.27-.67-.48v2.7h-.96v-7.78h.88l.05,.61c.19-.23,.41-.41,.68-.53,.26-.12,.57-.18,.92-.18s.68,.07,.96,.21c.28,.14,.51,.34,.7,.59,.19,.25,.33,.55,.43,.91,.1,.35,.15,.74,.15,1.16v.11Zm-.96-.11c0-.27-.03-.53-.09-.78s-.15-.47-.28-.65c-.13-.19-.29-.34-.48-.45s-.43-.17-.7-.17c-.31,0-.57,.07-.78,.22-.21,.14-.38,.33-.5,.55v2.71c.12,.22,.29,.4,.5,.54,.21,.14,.47,.21,.79,.21,.27,0,.5-.06,.69-.17,.19-.11,.35-.26,.48-.45,.12-.19,.22-.41,.28-.66,.06-.25,.09-.51,.09-.78v-.11Z"/>
      <path class="cls-1" d="M23.02,21.06c-.04-.07-.07-.16-.09-.27-.02-.11-.04-.22-.05-.34-.1,.1-.21,.19-.32,.28-.12,.09-.25,.16-.39,.23-.14,.07-.3,.12-.46,.16s-.34,.06-.52,.06c-.3,0-.57-.04-.81-.13-.24-.09-.45-.2-.61-.35-.17-.15-.3-.32-.39-.52-.09-.2-.14-.42-.14-.66,0-.31,.06-.58,.18-.81,.12-.23,.3-.42,.52-.58,.22-.15,.5-.27,.81-.35,.32-.08,.67-.11,1.06-.11h1.05v-.44c0-.17-.03-.32-.09-.46-.06-.14-.15-.25-.27-.35-.11-.09-.25-.17-.42-.22-.16-.05-.35-.08-.55-.08-.19,0-.36,.02-.51,.07s-.28,.11-.38,.19c-.1,.08-.18,.17-.24,.28-.06,.11-.09,.22-.09,.34h-.97c0-.2,.06-.41,.16-.6,.1-.2,.25-.38,.44-.53,.19-.16,.43-.29,.7-.38,.28-.1,.59-.15,.94-.15,.32,0,.61,.04,.89,.12,.27,.08,.51,.2,.71,.35,.2,.16,.36,.35,.47,.59s.17,.51,.17,.83v2.61c0,.19,.02,.39,.05,.59,.04,.21,.08,.39,.15,.55v.08h-1Zm-1.7-.73c.19,0,.36-.02,.52-.07,.16-.05,.31-.11,.44-.19,.13-.08,.25-.17,.34-.27,.1-.1,.17-.21,.23-.32v-1.14h-.89c-.56,0-1,.08-1.31,.25s-.47,.43-.47,.78c0,.14,.02,.27,.07,.38,.05,.12,.12,.22,.21,.3s.21,.15,.35,.2c.14,.05,.31,.07,.49,.07Z"/>
      <path class="cls-1" d="M27.98,14.08v1.36h2.14v.74h-2.14v3.05c0,.22,.03,.4,.08,.54,.06,.14,.13,.26,.23,.34,.1,.08,.21,.15,.33,.18,.13,.03,.26,.05,.4,.05,.1,0,.21,0,.32-.02,.11-.01,.22-.03,.32-.04,.11-.02,.21-.04,.3-.05s.17-.04,.23-.05l.13,.68c-.08,.05-.18,.09-.29,.13-.11,.04-.24,.07-.37,.09-.13,.03-.28,.05-.43,.06-.15,.01-.3,.02-.45,.02-.25,0-.48-.04-.7-.11-.22-.07-.4-.18-.56-.34-.16-.15-.28-.35-.38-.6s-.14-.54-.14-.89v-3.05h-1.48v-.74h1.48v-1.36h.97Z"/>
      <path class="cls-1" d="M32.24,15.44h2.87v4.79h1.83v.83h-4.71v-.83h1.91v-3.95h-1.91v-.84Zm1.79-1.48c0-.16,.05-.29,.14-.4,.09-.11,.24-.16,.43-.16s.33,.05,.43,.16c.1,.11,.15,.24,.15,.4s-.05,.29-.15,.39c-.1,.1-.24,.16-.43,.16s-.34-.05-.43-.16c-.1-.1-.14-.23-.14-.39Z"/>
      <path class="cls-1" d="M40.96,21.16c-.4,0-.76-.07-1.09-.2-.33-.14-.61-.32-.85-.57-.24-.24-.42-.53-.55-.86-.13-.33-.2-.69-.2-1.09v-.22c0-.45,.07-.86,.22-1.22s.34-.66,.58-.91c.24-.25,.51-.44,.82-.57,.31-.13,.62-.2,.94-.2,.41,0,.76,.07,1.06,.21,.3,.14,.55,.33,.76,.58,.2,.25,.35,.54,.45,.88,.1,.34,.15,.7,.15,1.09v.43h-4.01c.01,.26,.06,.5,.15,.72,.09,.23,.21,.42,.36,.59s.34,.3,.55,.4c.21,.1,.45,.15,.71,.15,.34,0,.65-.07,.91-.21,.27-.14,.49-.32,.67-.55l.59,.46c-.09,.14-.21,.28-.35,.41-.14,.13-.3,.24-.49,.35s-.39,.18-.62,.24c-.23,.06-.48,.09-.76,.09Zm-.12-5.04c-.19,0-.38,.04-.55,.11-.17,.07-.33,.17-.47,.31-.14,.14-.26,.3-.35,.5-.1,.2-.16,.43-.2,.69h3.02v-.07c0-.19-.05-.37-.11-.56s-.15-.35-.27-.49c-.12-.15-.27-.26-.44-.35-.18-.09-.39-.13-.64-.13Z"/>
      <path class="cls-1" d="M45.72,15.44l.07,.83c.21-.29,.46-.52,.75-.68s.63-.25,1-.25c.29,0,.56,.04,.8,.12,.24,.08,.45,.21,.62,.39,.17,.18,.3,.4,.39,.67,.09,.27,.14,.59,.14,.97v3.57h-.96v-3.55c0-.25-.03-.46-.08-.63-.06-.17-.14-.31-.25-.42-.11-.11-.24-.19-.4-.23s-.34-.07-.54-.07c-.32,0-.6,.08-.85,.24-.24,.16-.44,.37-.58,.64v4.03h-.96v-5.62h.86Z"/>
      <path class="cls-1" d="M53.51,14.08v1.36h2.14v.74h-2.14v3.05c0,.22,.03,.4,.08,.54,.06,.14,.13,.26,.23,.34,.1,.08,.21,.15,.33,.18,.13,.03,.26,.05,.4,.05,.1,0,.21,0,.32-.02,.11-.01,.22-.03,.32-.04,.11-.02,.21-.04,.3-.05s.17-.04,.23-.05l.13,.68c-.08,.05-.18,.09-.29,.13-.11,.04-.24,.07-.37,.09-.13,.03-.28,.05-.43,.06-.15,.01-.3,.02-.45,.02-.25,0-.48-.04-.7-.11-.22-.07-.4-.18-.56-.34-.16-.15-.28-.35-.38-.6s-.14-.54-.14-.89v-3.05h-1.48v-.74h1.48v-1.36h.97Z"/>
      <path class="cls-1" d="M61.36,19.57c0-.11-.02-.22-.07-.31s-.12-.18-.23-.25-.25-.15-.43-.21c-.18-.06-.4-.12-.66-.17-.32-.07-.62-.15-.88-.24-.26-.09-.49-.21-.68-.33-.19-.13-.34-.28-.44-.46s-.16-.38-.16-.61,.05-.44,.16-.64,.26-.37,.45-.52c.19-.15,.42-.27,.69-.35s.56-.13,.89-.13c.35,0,.66,.04,.93,.13,.28,.09,.51,.21,.71,.37,.19,.16,.34,.35,.45,.56,.11,.21,.16,.44,.16,.69h-.96c0-.12-.03-.24-.09-.36-.06-.12-.15-.22-.26-.31-.11-.09-.25-.16-.4-.22s-.33-.08-.53-.08-.38,.02-.54,.07c-.15,.04-.28,.11-.38,.18-.1,.08-.18,.16-.23,.27s-.08,.2-.08,.31,.02,.21,.06,.3c.04,.09,.11,.16,.22,.23s.24,.13,.41,.19c.17,.06,.39,.11,.65,.16,.35,.07,.66,.16,.93,.25s.5,.21,.69,.34c.19,.13,.33,.29,.43,.46,.1,.18,.15,.38,.15,.61,0,.25-.06,.48-.17,.68-.11,.2-.27,.38-.47,.52-.2,.15-.44,.26-.72,.34s-.59,.12-.92,.12c-.38,0-.72-.05-1.02-.15s-.55-.24-.76-.41-.36-.36-.47-.58c-.11-.22-.16-.45-.16-.69h.96c.01,.2,.07,.36,.16,.5s.21,.24,.34,.33,.29,.14,.45,.18,.33,.05,.49,.05c.4,0,.72-.07,.96-.22,.24-.15,.36-.35,.36-.59Z"/>
      <path class="cls-1" d="M74.56,22.96c-.23,0-.43-.04-.61-.11s-.35-.16-.49-.28-.27-.25-.38-.41c-.11-.16-.19-.32-.26-.5-.07-.18-.12-.36-.16-.55-.04-.19-.05-.37-.05-.56v-.88c0-.5-.12-.86-.36-1.09s-.6-.34-1.09-.34v-.75c.49,0,.85-.11,1.09-.33,.24-.22,.36-.59,.36-1.09v-.88c0-.18,.02-.37,.05-.56,.03-.19,.08-.37,.15-.55,.07-.18,.15-.35,.25-.5,.1-.16,.23-.29,.37-.41,.15-.12,.31-.21,.5-.28,.19-.07,.4-.11,.64-.11l.11,.6c-.25,0-.45,.07-.59,.18-.15,.11-.26,.25-.33,.42s-.12,.36-.14,.58c-.02,.21-.03,.43-.03,.64v.88c0,.42-.1,.78-.29,1.09s-.49,.55-.89,.71c.4,.16,.7,.4,.89,.71s.29,.68,.29,1.09v.88c0,.21,.02,.43,.05,.64,.03,.21,.09,.4,.18,.58s.2,.31,.34,.42,.32,.17,.53,.18l-.11,.6Z"/>
      <path class="cls-2" d="M26.57,28.2l.07,.83c.21-.29,.46-.52,.75-.68s.63-.25,1-.25c.29,0,.56,.04,.8,.12,.24,.08,.45,.21,.62,.39,.17,.18,.3,.4,.39,.67,.09,.27,.14,.59,.14,.97v3.57h-.96v-3.55c0-.25-.03-.46-.08-.63-.06-.17-.14-.31-.25-.42-.11-.11-.24-.19-.4-.23s-.34-.07-.54-.07c-.32,0-.6,.08-.85,.24-.24,.16-.44,.37-.58,.64v4.03h-.96v-5.62h.86Z"/>
      <path class="cls-2" d="M35.78,33.82c-.04-.07-.07-.16-.09-.27-.02-.11-.04-.22-.05-.34-.1,.1-.21,.19-.32,.28-.12,.09-.25,.16-.39,.23-.14,.07-.3,.12-.46,.16s-.34,.06-.52,.06c-.3,0-.57-.04-.81-.13-.24-.09-.45-.2-.61-.35-.17-.15-.3-.32-.39-.52-.09-.2-.14-.42-.14-.66,0-.31,.06-.58,.18-.81,.12-.23,.3-.42,.52-.58,.22-.15,.5-.27,.81-.35,.32-.08,.67-.11,1.06-.11h1.05v-.44c0-.17-.03-.32-.09-.46-.06-.14-.15-.25-.27-.35-.11-.09-.25-.17-.42-.22-.16-.05-.35-.08-.55-.08-.19,0-.36,.02-.51,.07s-.28,.11-.38,.19c-.1,.08-.18,.17-.24,.28-.06,.11-.09,.22-.09,.34h-.97c0-.2,.06-.41,.16-.6,.1-.2,.25-.38,.44-.53,.19-.16,.43-.29,.7-.38,.28-.1,.59-.15,.94-.15,.32,0,.61,.04,.89,.12,.27,.08,.51,.2,.71,.35,.2,.16,.36,.35,.47,.59s.17,.51,.17,.83v2.61c0,.19,.02,.39,.05,.59,.04,.21,.08,.39,.15,.55v.08h-1Zm-1.7-.73c.19,0,.36-.02,.52-.07,.16-.05,.31-.11,.44-.19,.13-.08,.25-.17,.34-.27,.1-.1,.17-.21,.23-.32v-1.14h-.89c-.56,0-1,.08-1.31,.25s-.47,.43-.47,.78c0,.14,.02,.27,.07,.38,.05,.12,.12,.22,.21,.3s.21,.15,.35,.2c.14,.05,.31,.07,.49,.07Z"/>
      <path class="cls-2" d="M38.92,28.2l.03,.53c.11-.2,.26-.35,.45-.46s.41-.17,.67-.17c.52,0,.86,.2,1.03,.6,.11-.18,.26-.32,.44-.43,.18-.11,.4-.17,.66-.17,.41,0,.73,.13,.95,.38,.22,.25,.33,.64,.33,1.15v4.2h-.92v-4.21c0-.47-.22-.7-.65-.7-.11,0-.21,.02-.3,.05-.08,.03-.15,.07-.21,.13-.06,.05-.1,.12-.13,.19-.03,.07-.05,.14-.06,.22v4.33h-.91v-4.21c0-.23-.05-.4-.15-.52-.1-.12-.26-.18-.48-.18-.2,0-.36,.04-.47,.12-.11,.08-.19,.19-.24,.32v4.47h-.91v-5.62h.86Z"/>
      <path class="cls-2" d="M47.34,33.93c-.4,0-.76-.07-1.09-.2-.33-.14-.61-.32-.85-.57-.24-.24-.42-.53-.55-.86-.13-.33-.2-.69-.2-1.09v-.22c0-.45,.07-.86,.22-1.22s.34-.66,.58-.91c.24-.25,.51-.44,.82-.57,.31-.13,.62-.2,.94-.2,.41,0,.76,.07,1.06,.21,.3,.14,.55,.33,.76,.58,.2,.25,.35,.54,.45,.88,.1,.34,.15,.7,.15,1.09v.43h-4.01c.01,.26,.06,.5,.15,.72,.09,.23,.21,.42,.36,.59s.34,.3,.55,.4c.21,.1,.45,.15,.71,.15,.34,0,.65-.07,.91-.21,.27-.14,.49-.32,.67-.55l.59,.46c-.09,.14-.21,.28-.35,.41-.14,.13-.3,.24-.49,.35s-.39,.18-.62,.24c-.23,.06-.48,.09-.76,.09Zm-.12-5.04c-.19,0-.38,.04-.55,.11-.17,.07-.33,.17-.47,.31-.14,.14-.26,.3-.35,.5-.1,.2-.16,.43-.2,.69h3.02v-.07c0-.19-.05-.37-.11-.56s-.15-.35-.27-.49c-.12-.15-.27-.26-.44-.35-.18-.09-.39-.13-.64-.13Z"/>
      <path class="cls-2" d="M29.4,46.59c-.04-.07-.07-.16-.09-.27-.02-.11-.04-.22-.05-.34-.1,.1-.21,.19-.32,.28-.12,.09-.25,.16-.39,.23-.14,.07-.3,.12-.46,.16s-.34,.06-.52,.06c-.3,0-.57-.04-.81-.13-.24-.09-.45-.2-.61-.35-.17-.15-.3-.32-.39-.52-.09-.2-.14-.42-.14-.66,0-.31,.06-.58,.18-.81,.12-.23,.3-.42,.52-.58,.22-.15,.5-.27,.81-.35,.32-.08,.67-.11,1.06-.11h1.05v-.44c0-.17-.03-.32-.09-.46-.06-.14-.15-.25-.27-.35-.11-.09-.25-.17-.42-.22-.16-.05-.35-.08-.55-.08-.19,0-.36,.02-.51,.07s-.28,.11-.38,.19c-.1,.08-.18,.17-.24,.28-.06,.11-.09,.22-.09,.34h-.97c0-.2,.06-.41,.16-.6,.1-.2,.25-.38,.44-.53,.19-.16,.43-.29,.7-.38,.28-.1,.59-.15,.94-.15,.32,0,.61,.04,.89,.12,.27,.08,.51,.2,.71,.35,.2,.16,.36,.35,.47,.59s.17,.51,.17,.83v2.61c0,.19,.02,.39,.05,.59,.04,.21,.08,.39,.15,.55v.08h-1Zm-1.7-.73c.19,0,.36-.02,.52-.07,.16-.05,.31-.11,.44-.19,.13-.08,.25-.17,.34-.27,.1-.1,.17-.21,.23-.32v-1.14h-.89c-.56,0-1,.08-1.31,.25s-.47,.43-.47,.78c0,.14,.02,.27,.07,.38,.05,.12,.12,.22,.21,.3s.21,.15,.35,.2c.14,.05,.31,.07,.49,.07Z"/>
      <path class="cls-2" d="M31.91,43.73c0-.42,.05-.8,.15-1.16,.1-.35,.25-.65,.44-.91,.19-.25,.43-.45,.71-.59,.28-.14,.59-.21,.94-.21s.65,.06,.91,.18c.26,.12,.48,.3,.67,.53l.05-.61h.87v5.5c0,.37-.06,.7-.17,.99-.12,.29-.28,.53-.49,.73-.21,.2-.46,.35-.75,.46-.29,.1-.61,.16-.97,.16-.15,0-.31-.02-.5-.05-.19-.03-.38-.09-.57-.16-.19-.07-.38-.17-.56-.3-.18-.12-.33-.28-.46-.46l.5-.58c.12,.14,.24,.26,.36,.36,.12,.1,.25,.18,.38,.24,.13,.06,.26,.1,.38,.13,.13,.03,.26,.04,.38,.04,.23,0,.43-.03,.62-.1s.34-.16,.47-.29,.23-.28,.3-.47,.1-.4,.1-.64v-.48c-.19,.21-.41,.38-.66,.49-.25,.11-.55,.17-.88,.17s-.65-.07-.93-.22c-.28-.15-.51-.35-.7-.6s-.34-.56-.44-.91c-.1-.35-.16-.72-.16-1.12v-.11Zm.96,.11c0,.27,.03,.53,.08,.78,.06,.25,.15,.46,.27,.65s.28,.33,.47,.44c.19,.11,.42,.16,.69,.16,.17,0,.32-.02,.45-.06,.13-.04,.25-.1,.36-.17s.2-.16,.28-.26,.16-.21,.22-.33v-2.58c-.06-.12-.14-.23-.22-.32-.08-.1-.18-.18-.29-.25-.11-.07-.23-.13-.36-.17-.13-.04-.28-.06-.44-.06-.27,0-.5,.06-.69,.17s-.35,.26-.47,.45c-.12,.19-.21,.41-.27,.65-.06,.25-.08,.51-.08,.78v.11Z"/>
      <path class="cls-2" d="M40.96,46.69c-.4,0-.76-.07-1.09-.2-.33-.14-.61-.32-.85-.57-.24-.24-.42-.53-.55-.86-.13-.33-.2-.69-.2-1.09v-.22c0-.45,.07-.86,.22-1.22s.34-.66,.58-.91c.24-.25,.51-.44,.82-.57,.31-.13,.62-.2,.94-.2,.41,0,.76,.07,1.06,.21,.3,.14,.55,.33,.76,.58,.2,.25,.35,.54,.45,.88,.1,.34,.15,.7,.15,1.09v.43h-4.01c.01,.26,.06,.5,.15,.72,.09,.23,.21,.42,.36,.59s.34,.3,.55,.4c.21,.1,.45,.15,.71,.15,.34,0,.65-.07,.91-.21,.27-.14,.49-.32,.67-.55l.59,.46c-.09,.14-.21,.28-.35,.41-.14,.13-.3,.24-.49,.35s-.39,.18-.62,.24c-.23,.06-.48,.09-.76,.09Zm-.12-5.04c-.19,0-.38,.04-.55,.11-.17,.07-.33,.17-.47,.31-.14,.14-.26,.3-.35,.5-.1,.2-.16,.43-.2,.69h3.02v-.07c0-.19-.05-.37-.11-.56s-.15-.35-.27-.49c-.12-.15-.27-.26-.44-.35-.18-.09-.39-.13-.64-.13Z"/>
      <path class="cls-1" d="M25.53,56.5c0-.42,.05-.8,.16-1.16,.11-.35,.26-.65,.45-.91,.2-.25,.43-.45,.71-.59s.59-.21,.93-.21,.63,.06,.88,.17c.25,.11,.47,.28,.65,.49v-2.91h.96v7.98h-.88l-.04-.59c-.19,.23-.41,.4-.67,.52s-.56,.18-.91,.18-.65-.07-.92-.22c-.28-.15-.51-.35-.7-.6-.19-.26-.34-.56-.45-.91s-.16-.72-.16-1.12v-.11Zm.96,.11c0,.27,.03,.53,.09,.78,.06,.25,.15,.46,.27,.65s.28,.33,.47,.44c.19,.11,.42,.16,.69,.16,.16,0,.31-.02,.44-.06,.13-.04,.25-.09,.36-.16,.11-.07,.2-.16,.29-.25,.08-.1,.16-.21,.22-.33v-2.61c-.12-.23-.29-.42-.5-.56-.21-.15-.47-.22-.79-.22-.27,0-.5,.06-.69,.17s-.35,.26-.47,.45c-.12,.19-.21,.41-.27,.65-.06,.25-.09,.51-.09,.78v.11Z"/>
      <path class="cls-1" d="M31.82,56.49c0-.41,.06-.78,.18-1.13,.12-.35,.29-.65,.51-.91s.49-.46,.8-.6,.67-.22,1.06-.22,.76,.07,1.07,.22c.32,.15,.58,.35,.8,.6s.39,.56,.51,.91c.12,.35,.18,.72,.18,1.13v.11c0,.41-.06,.78-.18,1.13-.12,.35-.29,.65-.51,.9s-.49,.46-.8,.6c-.31,.15-.67,.22-1.06,.22s-.76-.07-1.07-.22c-.32-.15-.59-.35-.81-.6s-.39-.56-.51-.9c-.12-.35-.18-.72-.18-1.13v-.11Zm.96,.11c0,.28,.03,.54,.1,.79,.07,.25,.17,.47,.3,.66,.13,.19,.3,.34,.5,.45s.43,.17,.7,.17,.49-.06,.69-.17,.37-.26,.5-.45c.13-.19,.23-.41,.3-.66,.07-.25,.1-.52,.1-.79v-.11c0-.27-.03-.54-.1-.79-.07-.25-.17-.47-.3-.66-.13-.19-.3-.34-.5-.45-.2-.11-.43-.17-.7-.17s-.5,.06-.7,.17c-.2,.11-.36,.26-.5,.45-.13,.19-.23,.41-.3,.66-.07,.25-.1,.51-.1,.79v.11Z"/>
      <path class="cls-1" d="M40.87,58.68c.17,0,.34-.03,.51-.08,.16-.06,.31-.13,.44-.23s.23-.21,.31-.35c.08-.13,.12-.28,.12-.43h.91c0,.25-.07,.49-.19,.71-.13,.23-.29,.43-.51,.6-.21,.17-.45,.31-.73,.41s-.56,.15-.86,.15c-.43,0-.8-.08-1.12-.23s-.58-.36-.8-.62c-.21-.26-.37-.56-.48-.89-.11-.34-.16-.69-.16-1.07v-.22c0-.37,.05-.73,.16-1.06s.27-.64,.48-.9c.21-.26,.48-.46,.8-.62s.69-.23,1.12-.23c.33,0,.64,.05,.92,.16,.28,.11,.52,.25,.72,.43,.2,.18,.36,.4,.48,.65,.11,.25,.17,.52,.17,.8h-.91c0-.17-.04-.33-.11-.48-.07-.15-.17-.28-.29-.4s-.27-.2-.43-.27-.35-.1-.54-.1c-.3,0-.55,.06-.75,.18-.2,.12-.37,.27-.49,.47-.12,.19-.21,.41-.27,.65-.05,.24-.08,.48-.08,.72v.22c0,.25,.03,.49,.08,.73s.14,.46,.26,.65c.12,.19,.29,.35,.49,.47,.2,.12,.46,.18,.76,.18Z"/>
      <path class="cls-1" d="M48.5,58.58c-.19,.28-.42,.49-.7,.65-.28,.15-.6,.23-.97,.23-.29,0-.56-.05-.8-.14-.24-.09-.44-.23-.61-.43-.17-.19-.3-.44-.39-.74-.09-.3-.14-.66-.14-1.08v-3.34h.96v3.35c0,.3,.02,.56,.07,.76,.05,.2,.12,.36,.22,.48,.1,.12,.22,.2,.36,.25,.14,.05,.3,.07,.49,.07,.39,0,.71-.08,.95-.24,.24-.16,.42-.37,.54-.64v-4.03h.97v5.62h-.87l-.06-.77Z"/>
      <path class="cls-1" d="M51.68,53.73l.03,.53c.11-.2,.26-.35,.45-.46s.41-.17,.67-.17c.52,0,.86,.2,1.03,.6,.11-.18,.26-.32,.44-.43,.18-.11,.4-.17,.66-.17,.41,0,.73,.13,.95,.38,.22,.25,.33,.64,.33,1.15v4.2h-.92v-4.21c0-.47-.22-.7-.65-.7-.11,0-.21,.02-.3,.05-.08,.03-.15,.07-.21,.13-.06,.05-.1,.12-.13,.19-.03,.07-.05,.14-.06,.22v4.33h-.91v-4.21c0-.23-.05-.4-.15-.52-.1-.12-.26-.18-.48-.18-.2,0-.36,.04-.47,.12-.11,.08-.19,.19-.24,.32v4.47h-.91v-5.62h.86Z"/>
      <path class="cls-1" d="M60.1,59.46c-.4,0-.76-.07-1.09-.2-.33-.14-.61-.32-.85-.57-.24-.24-.42-.53-.55-.86-.13-.33-.2-.69-.2-1.09v-.22c0-.45,.07-.86,.22-1.22s.34-.66,.58-.91c.24-.25,.51-.44,.82-.57,.31-.13,.62-.2,.94-.2,.41,0,.76,.07,1.06,.21,.3,.14,.55,.33,.76,.58,.2,.25,.35,.54,.45,.88,.1,.34,.15,.7,.15,1.09v.43h-4.01c.01,.26,.06,.5,.15,.72,.09,.23,.21,.42,.36,.59s.34,.3,.55,.4c.21,.1,.45,.15,.71,.15,.34,0,.65-.07,.91-.21,.27-.14,.49-.32,.67-.55l.59,.46c-.09,.14-.21,.28-.35,.41-.14,.13-.3,.24-.49,.35s-.39,.18-.62,.24c-.23,.06-.48,.09-.76,.09Zm-.12-5.04c-.19,0-.38,.04-.55,.11-.17,.07-.33,.17-.47,.31-.14,.14-.26,.3-.35,.5-.1,.2-.16,.43-.2,.69h3.02v-.07c0-.19-.05-.37-.11-.56s-.15-.35-.27-.49c-.12-.15-.27-.26-.44-.35-.18-.09-.39-.13-.64-.13Z"/>
      <path class="cls-1" d="M64.87,53.73l.07,.83c.21-.29,.46-.52,.75-.68s.63-.25,1-.25c.29,0,.56,.04,.8,.12,.24,.08,.45,.21,.62,.39,.17,.18,.3,.4,.39,.67,.09,.27,.14,.59,.14,.97v3.57h-.96v-3.55c0-.25-.03-.46-.08-.63-.06-.17-.14-.31-.25-.42-.11-.11-.24-.19-.4-.23s-.34-.07-.54-.07c-.32,0-.6,.08-.85,.24-.24,.16-.44,.37-.58,.64v4.03h-.96v-5.62h.86Z"/>
      <path class="cls-1" d="M72.66,52.37v1.36h2.14v.74h-2.14v3.05c0,.22,.03,.4,.08,.54,.06,.14,.13,.26,.23,.34,.1,.08,.21,.15,.33,.18,.13,.03,.26,.05,.4,.05,.1,0,.21,0,.32-.02,.11-.01,.22-.03,.32-.04,.11-.02,.21-.04,.3-.05s.17-.04,.23-.05l.13,.68c-.08,.05-.18,.09-.29,.13-.11,.04-.24,.07-.37,.09-.13,.03-.28,.05-.43,.06-.15,.01-.3,.02-.45,.02-.25,0-.48-.04-.7-.11-.22-.07-.4-.18-.56-.34-.16-.15-.28-.35-.38-.6s-.14-.54-.14-.89v-3.05h-1.48v-.74h1.48v-1.36h.97Z"/>
      <path class="cls-1" d="M80.5,57.86c0-.11-.02-.22-.07-.31s-.12-.18-.23-.25-.25-.15-.43-.21c-.18-.06-.4-.12-.66-.17-.32-.07-.62-.15-.88-.24-.26-.09-.49-.21-.68-.33-.19-.13-.34-.28-.44-.46s-.16-.38-.16-.61,.05-.44,.16-.64,.26-.37,.45-.52c.19-.15,.42-.27,.69-.35s.56-.13,.89-.13c.35,0,.66,.04,.93,.13,.28,.09,.51,.21,.71,.37,.19,.16,.34,.35,.45,.56,.11,.21,.16,.44,.16,.69h-.96c0-.12-.03-.24-.09-.36-.06-.12-.15-.22-.26-.31-.11-.09-.25-.16-.4-.22s-.33-.08-.53-.08-.38,.02-.54,.07c-.15,.04-.28,.11-.38,.18-.1,.08-.18,.16-.23,.27s-.08,.2-.08,.31,.02,.21,.06,.3c.04,.09,.11,.16,.22,.23s.24,.13,.41,.19c.17,.06,.39,.11,.65,.16,.35,.07,.66,.16,.93,.25s.5,.21,.69,.34c.19,.13,.33,.29,.43,.46,.1,.18,.15,.38,.15,.61,0,.25-.06,.48-.17,.68-.11,.2-.27,.38-.47,.52-.2,.15-.44,.26-.72,.34s-.59,.12-.92,.12c-.38,0-.72-.05-1.02-.15s-.55-.24-.76-.41-.36-.36-.47-.58c-.11-.22-.16-.45-.16-.69h.96c.01,.2,.07,.36,.16,.5s.21,.24,.34,.33,.29,.14,.45,.18,.33,.05,.49,.05c.4,0,.72-.07,.96-.22,.24-.15,.36-.35,.36-.59Z"/>
      <path class="cls-1" d="M93.71,61.25c-.23,0-.43-.04-.61-.11s-.35-.16-.49-.28-.27-.25-.38-.41c-.11-.16-.19-.32-.26-.5-.07-.18-.12-.36-.16-.55-.04-.19-.05-.37-.05-.56v-.88c0-.5-.12-.86-.36-1.09s-.6-.34-1.09-.34v-.75c.49,0,.85-.11,1.09-.33,.24-.22,.36-.59,.36-1.09v-.88c0-.18,.02-.37,.05-.56,.03-.19,.08-.37,.15-.55,.07-.18,.15-.35,.25-.5,.1-.16,.23-.29,.37-.41,.15-.12,.31-.21,.5-.28,.19-.07,.4-.11,.64-.11l.11,.6c-.25,0-.45,.07-.59,.18-.15,.11-.26,.25-.33,.42s-.12,.36-.14,.58c-.02,.21-.03,.43-.03,.64v.88c0,.42-.1,.78-.29,1.09s-.49,.55-.89,.71c.4,.16,.7,.4,.89,.71s.29,.68,.29,1.09v.88c0,.21,.02,.43,.05,.64,.03,.21,.09,.4,.18,.58s.2,.31,.34,.42,.32,.17,.53,.18l-.11,.6Z"/>
      <path class="cls-2" d="M39.33,66.5l.07,.83c.21-.29,.46-.52,.75-.68s.63-.25,1-.25c.29,0,.56,.04,.8,.12,.24,.08,.45,.21,.62,.39,.17,.18,.3,.4,.39,.67,.09,.27,.14,.59,.14,.97v3.57h-.96v-3.55c0-.25-.03-.46-.08-.63-.06-.17-.14-.31-.25-.42-.11-.11-.24-.19-.4-.23s-.34-.07-.54-.07c-.32,0-.6,.08-.85,.24-.24,.16-.44,.37-.58,.64v4.03h-.96v-5.62h.86Z"/>
      <path class="cls-2" d="M48.55,72.12c-.04-.07-.07-.16-.09-.27-.02-.11-.04-.22-.05-.34-.1,.1-.21,.19-.32,.28-.12,.09-.25,.16-.39,.23-.14,.07-.3,.12-.46,.16s-.34,.06-.52,.06c-.3,0-.57-.04-.81-.13-.24-.09-.45-.2-.61-.35-.17-.15-.3-.32-.39-.52-.09-.2-.14-.42-.14-.66,0-.31,.06-.58,.18-.81,.12-.23,.3-.42,.52-.58,.22-.15,.5-.27,.81-.35,.32-.08,.67-.11,1.06-.11h1.05v-.44c0-.17-.03-.32-.09-.46-.06-.14-.15-.25-.27-.35-.11-.09-.25-.17-.42-.22-.16-.05-.35-.08-.55-.08-.19,0-.36,.02-.51,.07s-.28,.11-.38,.19c-.1,.08-.18,.17-.24,.28-.06,.11-.09,.22-.09,.34h-.97c0-.2,.06-.41,.16-.6,.1-.2,.25-.38,.44-.53,.19-.16,.43-.29,.7-.38,.28-.1,.59-.15,.94-.15,.32,0,.61,.04,.89,.12,.27,.08,.51,.2,.71,.35,.2,.16,.36,.35,.47,.59s.17,.51,.17,.83v2.61c0,.19,.02,.39,.05,.59,.04,.21,.08,.39,.15,.55v.08h-1Zm-1.7-.73c.19,0,.36-.02,.52-.07,.16-.05,.31-.11,.44-.19,.13-.08,.25-.17,.34-.27,.1-.1,.17-.21,.23-.32v-1.14h-.89c-.56,0-1,.08-1.31,.25s-.47,.43-.47,.78c0,.14,.02,.27,.07,.38,.05,.12,.12,.22,.21,.3s.21,.15,.35,.2c.14,.05,.31,.07,.49,.07Z"/>
      <path class="cls-2" d="M51.68,66.5l.03,.53c.11-.2,.26-.35,.45-.46s.41-.17,.67-.17c.52,0,.86,.2,1.03,.6,.11-.18,.26-.32,.44-.43,.18-.11,.4-.17,.66-.17,.41,0,.73,.13,.95,.38,.22,.25,.33,.64,.33,1.15v4.2h-.92v-4.21c0-.47-.22-.7-.65-.7-.11,0-.21,.02-.3,.05-.08,.03-.15,.07-.21,.13-.06,.05-.1,.12-.13,.19-.03,.07-.05,.14-.06,.22v4.33h-.91v-4.21c0-.23-.05-.4-.15-.52-.1-.12-.26-.18-.48-.18-.2,0-.36,.04-.47,.12-.11,.08-.19,.19-.24,.32v4.47h-.91v-5.62h.86Z"/>
      <path class="cls-2" d="M60.1,72.22c-.4,0-.76-.07-1.09-.2-.33-.14-.61-.32-.85-.57-.24-.24-.42-.53-.55-.86-.13-.33-.2-.69-.2-1.09v-.22c0-.45,.07-.86,.22-1.22s.34-.66,.58-.91c.24-.25,.51-.44,.82-.57,.31-.13,.62-.2,.94-.2,.41,0,.76,.07,1.06,.21,.3,.14,.55,.33,.76,.58,.2,.25,.35,.54,.45,.88,.1,.34,.15,.7,.15,1.09v.43h-4.01c.01,.26,.06,.5,.15,.72,.09,.23,.21,.42,.36,.59s.34,.3,.55,.4c.21,.1,.45,.15,.71,.15,.34,0,.65-.07,.91-.21,.27-.14,.49-.32,.67-.55l.59,.46c-.09,.14-.21,.28-.35,.41-.14,.13-.3,.24-.49,.35s-.39,.18-.62,.24c-.23,.06-.48,.09-.76,.09Zm-.12-5.04c-.19,0-.38,.04-.55,.11-.17,.07-.33,.17-.47,.31-.14,.14-.26,.3-.35,.5-.1,.2-.16,.43-.2,.69h3.02v-.07c0-.19-.05-.37-.11-.56s-.15-.35-.27-.49c-.12-.15-.27-.26-.44-.35-.18-.09-.39-.13-.64-.13Z"/>
      <path class="cls-2" d="M40.75,77.9v1.36h2.14v.74h-2.14v3.05c0,.22,.03,.4,.08,.54,.06,.14,.13,.26,.23,.34,.1,.08,.21,.15,.33,.18,.13,.03,.26,.05,.4,.05,.1,0,.21,0,.32-.02,.11-.01,.22-.03,.32-.04,.11-.02,.21-.04,.3-.05s.17-.04,.23-.05l.13,.68c-.08,.05-.18,.09-.29,.13-.11,.04-.24,.07-.37,.09-.13,.03-.28,.05-.43,.06-.15,.01-.3,.02-.45,.02-.25,0-.48-.04-.7-.11-.22-.07-.4-.18-.56-.34-.16-.15-.28-.35-.38-.6s-.14-.54-.14-.89v-3.05h-1.48v-.74h1.48v-1.36h.97Z"/>
      <path class="cls-2" d="M47.34,84.99c-.4,0-.76-.07-1.09-.2-.33-.14-.61-.32-.85-.57-.24-.24-.42-.53-.55-.86-.13-.33-.2-.69-.2-1.09v-.22c0-.45,.07-.86,.22-1.22s.34-.66,.58-.91c.24-.25,.51-.44,.82-.57,.31-.13,.62-.2,.94-.2,.41,0,.76,.07,1.06,.21,.3,.14,.55,.33,.76,.58,.2,.25,.35,.54,.45,.88,.1,.34,.15,.7,.15,1.09v.43h-4.01c.01,.26,.06,.5,.15,.72,.09,.23,.21,.42,.36,.59s.34,.3,.55,.4c.21,.1,.45,.15,.71,.15,.34,0,.65-.07,.91-.21,.27-.14,.49-.32,.67-.55l.59,.46c-.09,.14-.21,.28-.35,.41-.14,.13-.3,.24-.49,.35s-.39,.18-.62,.24c-.23,.06-.48,.09-.76,.09Zm-.12-5.04c-.19,0-.38,.04-.55,.11-.17,.07-.33,.17-.47,.31-.14,.14-.26,.3-.35,.5-.1,.2-.16,.43-.2,.69h3.02v-.07c0-.19-.05-.37-.11-.56s-.15-.35-.27-.49c-.12-.15-.27-.26-.44-.35-.18-.09-.39-.13-.64-.13Z"/>
      <path class="cls-2" d="M53.56,81.34l1.5-2.08h1.13l-2.09,2.78,2.15,2.84h-1.11l-1.55-2.14-1.55,2.14h-1.12l2.15-2.84-2.09-2.78h1.11l1.49,2.08Z"/>
      <path class="cls-2" d="M59.9,77.9v1.36h2.14v.74h-2.14v3.05c0,.22,.03,.4,.08,.54,.06,.14,.13,.26,.23,.34,.1,.08,.21,.15,.33,.18,.13,.03,.26,.05,.4,.05,.1,0,.21,0,.32-.02,.11-.01,.22-.03,.32-.04,.11-.02,.21-.04,.3-.05s.17-.04,.23-.05l.13,.68c-.08,.05-.18,.09-.29,.13-.11,.04-.24,.07-.37,.09-.13,.03-.28,.05-.43,.06-.15,.01-.3,.02-.45,.02-.25,0-.48-.04-.7-.11-.22-.07-.4-.18-.56-.34-.16-.15-.28-.35-.38-.6s-.14-.54-.14-.89v-3.05h-1.48v-.74h1.48v-1.36h.97Z"/>
      <path class="cls-1" d="M38.62,92.03h2.87v4.79h1.83v.83h-4.71v-.83h1.91v-3.95h-1.91v-.84Zm1.79-1.48c0-.16,.05-.29,.14-.4,.09-.11,.24-.16,.43-.16s.33,.05,.43,.16c.1,.11,.15,.24,.15,.4s-.05,.29-.15,.39c-.1,.1-.24,.16-.43,.16s-.34-.05-.43-.16c-.1-.1-.14-.23-.14-.39Z"/>
      <path class="cls-1" d="M45.3,92.03l.03,.53c.11-.2,.26-.35,.45-.46s.41-.17,.67-.17c.52,0,.86,.2,1.03,.6,.11-.18,.26-.32,.44-.43,.18-.11,.4-.17,.66-.17,.41,0,.73,.13,.95,.38,.22,.25,.33,.64,.33,1.15v4.2h-.92v-4.21c0-.47-.22-.7-.65-.7-.11,0-.21,.02-.3,.05-.08,.03-.15,.07-.21,.13-.06,.05-.1,.12-.13,.19-.03,.07-.05,.14-.06,.22v4.33h-.91v-4.21c0-.23-.05-.4-.15-.52-.1-.12-.26-.18-.48-.18-.2,0-.36,.04-.47,.12-.11,.08-.19,.19-.24,.32v4.47h-.91v-5.62h.86Z"/>
      <path class="cls-1" d="M54.93,97.65c-.04-.07-.07-.16-.09-.27-.02-.11-.04-.22-.05-.34-.1,.1-.21,.19-.32,.28-.12,.09-.25,.16-.39,.23-.14,.07-.3,.12-.46,.16s-.34,.06-.52,.06c-.3,0-.57-.04-.81-.13-.24-.09-.45-.2-.61-.35-.17-.15-.3-.32-.39-.52-.09-.2-.14-.42-.14-.66,0-.31,.06-.58,.18-.81,.12-.23,.3-.42,.52-.58,.22-.15,.5-.27,.81-.35,.32-.08,.67-.11,1.06-.11h1.05v-.44c0-.17-.03-.32-.09-.46-.06-.14-.15-.25-.27-.35-.11-.09-.25-.17-.42-.22-.16-.05-.35-.08-.55-.08-.19,0-.36,.02-.51,.07s-.28,.11-.38,.19c-.1,.08-.18,.17-.24,.28-.06,.11-.09,.22-.09,.34h-.97c0-.2,.06-.41,.16-.6,.1-.2,.25-.38,.44-.53,.19-.16,.43-.29,.7-.38,.28-.1,.59-.15,.94-.15,.32,0,.61,.04,.89,.12,.27,.08,.51,.2,.71,.35,.2,.16,.36,.35,.47,.59s.17,.51,.17,.83v2.61c0,.19,.02,.39,.05,.59,.04,.21,.08,.39,.15,.55v.08h-1Zm-1.7-.73c.19,0,.36-.02,.52-.07,.16-.05,.31-.11,.44-.19,.13-.08,.25-.17,.34-.27,.1-.1,.17-.21,.23-.32v-1.14h-.89c-.56,0-1,.08-1.31,.25s-.47,.43-.47,.78c0,.14,.02,.27,.07,.38,.05,.12,.12,.22,.21,.3s.21,.15,.35,.2c.14,.05,.31,.07,.49,.07Z"/>
      <path class="cls-1" d="M57.45,94.79c0-.42,.05-.8,.15-1.16,.1-.35,.25-.65,.44-.91,.19-.25,.43-.45,.71-.59,.28-.14,.59-.21,.94-.21s.65,.06,.91,.18c.26,.12,.48,.3,.67,.53l.05-.61h.87v5.5c0,.37-.06,.7-.17,.99-.12,.29-.28,.53-.49,.73-.21,.2-.46,.35-.75,.46-.29,.1-.61,.16-.97,.16-.15,0-.31-.02-.5-.05-.19-.03-.38-.09-.57-.16-.19-.07-.38-.17-.56-.3-.18-.12-.33-.28-.46-.46l.5-.58c.12,.14,.24,.26,.36,.36,.12,.1,.25,.18,.38,.24,.13,.06,.26,.1,.38,.13,.13,.03,.26,.04,.38,.04,.23,0,.43-.03,.62-.1s.34-.16,.47-.29,.23-.28,.3-.47,.1-.4,.1-.64v-.48c-.19,.21-.41,.38-.66,.49-.25,.11-.55,.17-.88,.17s-.65-.07-.93-.22c-.28-.15-.51-.35-.7-.6s-.34-.56-.44-.91c-.1-.35-.16-.72-.16-1.12v-.11Zm.96,.11c0,.27,.03,.53,.08,.78,.06,.25,.15,.46,.27,.65s.28,.33,.47,.44c.19,.11,.42,.16,.69,.16,.17,0,.32-.02,.45-.06,.13-.04,.25-.1,.36-.17s.2-.16,.28-.26,.16-.21,.22-.33v-2.58c-.06-.12-.14-.23-.22-.32-.08-.1-.18-.18-.29-.25-.11-.07-.23-.13-.36-.17-.13-.04-.28-.06-.44-.06-.27,0-.5,.06-.69,.17s-.35,.26-.47,.45c-.12,.19-.21,.41-.27,.65-.06,.25-.08,.51-.08,.78v.11Z"/>
      <path class="cls-1" d="M66.49,97.75c-.4,0-.76-.07-1.09-.2-.33-.14-.61-.32-.85-.57-.24-.24-.42-.53-.55-.86-.13-.33-.2-.69-.2-1.09v-.22c0-.45,.07-.86,.22-1.22s.34-.66,.58-.91c.24-.25,.51-.44,.82-.57,.31-.13,.62-.2,.94-.2,.41,0,.76,.07,1.06,.21,.3,.14,.55,.33,.76,.58,.2,.25,.35,.54,.45,.88,.1,.34,.15,.7,.15,1.09v.43h-4.01c.01,.26,.06,.5,.15,.72,.09,.23,.21,.42,.36,.59s.34,.3,.55,.4c.21,.1,.45,.15,.71,.15,.34,0,.65-.07,.91-.21,.27-.14,.49-.32,.67-.55l.59,.46c-.09,.14-.21,.28-.35,.41-.14,.13-.3,.24-.49,.35s-.39,.18-.62,.24c-.23,.06-.48,.09-.76,.09Zm-.12-5.04c-.19,0-.38,.04-.55,.11-.17,.07-.33,.17-.47,.31-.14,.14-.26,.3-.35,.5-.1,.2-.16,.43-.2,.69h3.02v-.07c0-.19-.05-.37-.11-.56s-.15-.35-.27-.49c-.12-.15-.27-.26-.44-.35-.18-.09-.39-.13-.64-.13Z"/>
      <path class="cls-1" d="M74.12,96.16c0-.11-.02-.22-.07-.31s-.12-.18-.23-.25-.25-.15-.43-.21c-.18-.06-.4-.12-.66-.17-.32-.07-.62-.15-.88-.24-.26-.09-.49-.21-.68-.33-.19-.13-.34-.28-.44-.46s-.16-.38-.16-.61,.05-.44,.16-.64,.26-.37,.45-.52c.19-.15,.42-.27,.69-.35s.56-.13,.89-.13c.35,0,.66,.04,.93,.13,.28,.09,.51,.21,.71,.37,.19,.16,.34,.35,.45,.56,.11,.21,.16,.44,.16,.69h-.96c0-.12-.03-.24-.09-.36-.06-.12-.15-.22-.26-.31-.11-.09-.25-.16-.4-.22s-.33-.08-.53-.08-.38,.02-.54,.07c-.15,.04-.28,.11-.38,.18-.1,.08-.18,.16-.23,.27s-.08,.2-.08,.31,.02,.21,.06,.3c.04,.09,.11,.16,.22,.23s.24,.13,.41,.19c.17,.06,.39,.11,.65,.16,.35,.07,.66,.16,.93,.25s.5,.21,.69,.34c.19,.13,.33,.29,.43,.46,.1,.18,.15,.38,.15,.61,0,.25-.06,.48-.17,.68-.11,.2-.27,.38-.47,.52-.2,.15-.44,.26-.72,.34s-.59,.12-.92,.12c-.38,0-.72-.05-1.02-.15s-.55-.24-.76-.41-.36-.36-.47-.58c-.11-.22-.16-.45-.16-.69h.96c.01,.2,.07,.36,.16,.5s.21,.24,.34,.33,.29,.14,.45,.18,.33,.05,.49,.05c.4,0,.72-.07,.96-.22,.24-.15,.36-.35,.36-.59Z"/>
      <path class="cls-1" d="M87.33,99.55c-.23,0-.43-.04-.61-.11s-.35-.16-.49-.28-.27-.25-.38-.41c-.11-.16-.19-.32-.26-.5-.07-.18-.12-.36-.16-.55-.04-.19-.05-.37-.05-.56v-.88c0-.5-.12-.86-.36-1.09s-.6-.34-1.09-.34v-.75c.49,0,.85-.11,1.09-.33,.24-.22,.36-.59,.36-1.09v-.88c0-.18,.02-.37,.05-.56,.03-.19,.08-.37,.15-.55,.07-.18,.15-.35,.25-.5,.1-.16,.23-.29,.37-.41,.15-.12,.31-.21,.5-.28,.19-.07,.4-.11,.64-.11l.11,.6c-.25,0-.45,.07-.59,.18-.15,.11-.26,.25-.33,.42s-.12,.36-.14,.58c-.02,.21-.03,.43-.03,.64v.88c0,.42-.1,.78-.29,1.09s-.49,.55-.89,.71c.4,.16,.7,.4,.89,.71s.29,.68,.29,1.09v.88c0,.21,.02,.43,.05,.64,.03,.21,.09,.4,.18,.58s.2,.31,.34,.42,.32,.17,.53,.18l-.11,.6Z"/>
      <path class="cls-2" d="M52.1,104.79l.07,.83c.21-.29,.46-.52,.75-.68s.63-.25,1-.25c.29,0,.56,.04,.8,.12,.24,.08,.45,.21,.62,.39,.17,.18,.3,.4,.39,.67,.09,.27,.14,.59,.14,.97v3.57h-.96v-3.55c0-.25-.03-.46-.08-.63-.06-.17-.14-.31-.25-.42-.11-.11-.24-.19-.4-.23s-.34-.07-.54-.07c-.32,0-.6,.08-.85,.24-.24,.16-.44,.37-.58,.64v4.03h-.96v-5.62h.86Z"/>
      <path class="cls-2" d="M61.31,110.41c-.04-.07-.07-.16-.09-.27-.02-.11-.04-.22-.05-.34-.1,.1-.21,.19-.32,.28-.12,.09-.25,.16-.39,.23-.14,.07-.3,.12-.46,.16s-.34,.06-.52,.06c-.3,0-.57-.04-.81-.13-.24-.09-.45-.2-.61-.35-.17-.15-.3-.32-.39-.52-.09-.2-.14-.42-.14-.66,0-.31,.06-.58,.18-.81,.12-.23,.3-.42,.52-.58,.22-.15,.5-.27,.81-.35,.32-.08,.67-.11,1.06-.11h1.05v-.44c0-.17-.03-.32-.09-.46-.06-.14-.15-.25-.27-.35-.11-.09-.25-.17-.42-.22-.16-.05-.35-.08-.55-.08-.19,0-.36,.02-.51,.07s-.28,.11-.38,.19c-.1,.08-.18,.17-.24,.28-.06,.11-.09,.22-.09,.34h-.97c0-.2,.06-.41,.16-.6,.1-.2,.25-.38,.44-.53,.19-.16,.43-.29,.7-.38,.28-.1,.59-.15,.94-.15,.32,0,.61,.04,.89,.12,.27,.08,.51,.2,.71,.35,.2,.16,.36,.35,.47,.59s.17,.51,.17,.83v2.61c0,.19,.02,.39,.05,.59,.04,.21,.08,.39,.15,.55v.08h-1Zm-1.7-.73c.19,0,.36-.02,.52-.07,.16-.05,.31-.11,.44-.19,.13-.08,.25-.17,.34-.27,.1-.1,.17-.21,.23-.32v-1.14h-.89c-.56,0-1,.08-1.31,.25s-.47,.43-.47,.78c0,.14,.02,.27,.07,.38,.05,.12,.12,.22,.21,.3s.21,.15,.35,.2c.14,.05,.31,.07,.49,.07Z"/>
      <path class="cls-2" d="M64.45,104.79l.03,.53c.11-.2,.26-.35,.45-.46s.41-.17,.67-.17c.52,0,.86,.2,1.03,.6,.11-.18,.26-.32,.44-.43,.18-.11,.4-.17,.66-.17,.41,0,.73,.13,.95,.38,.22,.25,.33,.64,.33,1.15v4.2h-.92v-4.21c0-.47-.22-.7-.65-.7-.11,0-.21,.02-.3,.05-.08,.03-.15,.07-.21,.13-.06,.05-.1,.12-.13,.19-.03,.07-.05,.14-.06,.22v4.33h-.91v-4.21c0-.23-.05-.4-.15-.52-.1-.12-.26-.18-.48-.18-.2,0-.36,.04-.47,.12-.11,.08-.19,.19-.24,.32v4.47h-.91v-5.62h.86Z"/>
      <path class="cls-2" d="M72.87,110.51c-.4,0-.76-.07-1.09-.2-.33-.14-.61-.32-.85-.57-.24-.24-.42-.53-.55-.86-.13-.33-.2-.69-.2-1.09v-.22c0-.45,.07-.86,.22-1.22s.34-.66,.58-.91c.24-.25,.51-.44,.82-.57,.31-.13,.62-.2,.94-.2,.41,0,.76,.07,1.06,.21,.3,.14,.55,.33,.76,.58,.2,.25,.35,.54,.45,.88,.1,.34,.15,.7,.15,1.09v.43h-4.01c.01,.26,.06,.5,.15,.72,.09,.23,.21,.42,.36,.59s.34,.3,.55,.4c.21,.1,.45,.15,.71,.15,.34,0,.65-.07,.91-.21,.27-.14,.49-.32,.67-.55l.59,.46c-.09,.14-.21,.28-.35,.41-.14,.13-.3,.24-.49,.35s-.39,.18-.62,.24c-.23,.06-.48,.09-.76,.09Zm-.12-5.04c-.19,0-.38,.04-.55,.11-.17,.07-.33,.17-.47,.31-.14,.14-.26,.3-.35,.5-.1,.2-.16,.43-.2,.69h3.02v-.07c0-.19-.05-.37-.11-.56s-.15-.35-.27-.49c-.12-.15-.27-.26-.44-.35-.18-.09-.39-.13-.64-.13Z"/>
      <path class="cls-2" d="M54.88,122.4c-.19,.28-.42,.49-.7,.65-.28,.15-.6,.23-.97,.23-.29,0-.56-.05-.8-.14-.24-.09-.44-.23-.61-.43-.17-.19-.3-.44-.39-.74-.09-.3-.14-.66-.14-1.08v-3.34h.96v3.35c0,.3,.02,.56,.07,.76,.05,.2,.12,.36,.22,.48,.1,.12,.22,.2,.36,.25,.14,.05,.3,.07,.49,.07,.39,0,.71-.08,.95-.24,.24-.16,.42-.37,.54-.64v-4.03h.97v5.62h-.87l-.06-.77Z"/>
      <path class="cls-2" d="M61.3,117.45c.09,0,.18,0,.28,0,.1,0,.19,.01,.28,.03s.17,.03,.24,.04c.07,.02,.14,.04,.18,.06l-.13,.94c-.19-.04-.36-.07-.53-.09s-.34-.03-.53-.03c-.45,0-.81,.1-1.09,.31-.28,.2-.48,.49-.62,.86v3.6h-.97v-5.62h.91l.05,.89c.23-.31,.5-.55,.82-.73s.68-.27,1.09-.27Z"/>
      <path class="cls-2" d="M64.16,115.2h2.87v7.15h1.83v.83h-4.71v-.83h1.91v-6.31h-1.91v-.84Z"/>
      <path class="cls-1" d="M39.25,137.24c.21,0,.39-.07,.53-.18,.14-.11,.26-.25,.34-.42s.15-.36,.18-.58c.04-.21,.05-.43,.05-.64v-.88c0-.41,.09-.77,.29-1.09s.49-.55,.89-.71c-.4-.16-.7-.4-.89-.71s-.29-.68-.29-1.09v-.88c0-.21-.01-.42-.03-.64-.02-.21-.07-.41-.15-.58s-.18-.31-.33-.42c-.15-.11-.34-.17-.59-.18l.1-.6c.24,0,.45,.04,.64,.11,.19,.07,.36,.16,.5,.28s.27,.25,.37,.41c.1,.16,.19,.32,.25,.5,.07,.18,.11,.36,.15,.55,.03,.19,.05,.38,.05,.56v.88c0,.5,.12,.86,.36,1.09,.24,.22,.6,.33,1.08,.33v.75c-.48,0-.85,.12-1.08,.34-.24,.23-.36,.59-.36,1.09v.88c0,.28-.04,.56-.11,.84s-.2,.54-.36,.77-.36,.42-.61,.57c-.25,.15-.54,.23-.88,.23l-.11-.6Z"/>
      <path class="cls-1" d="M26.48,150.01c.21,0,.39-.07,.53-.18,.14-.11,.26-.25,.34-.42s.15-.36,.18-.58c.04-.21,.05-.43,.05-.64v-.88c0-.41,.09-.77,.29-1.09s.49-.55,.89-.71c-.4-.16-.7-.4-.89-.71s-.29-.68-.29-1.09v-.88c0-.21-.01-.42-.03-.64-.02-.21-.07-.41-.15-.58s-.18-.31-.33-.42c-.15-.11-.34-.17-.59-.18l.1-.6c.24,0,.45,.04,.64,.11,.19,.07,.36,.16,.5,.28s.27,.25,.37,.41c.1,.16,.19,.32,.25,.5,.07,.18,.11,.36,.15,.55,.03,.19,.05,.38,.05,.56v.88c0,.5,.12,.86,.36,1.09,.24,.22,.6,.33,1.08,.33v.75c-.48,0-.85,.12-1.08,.34-.24,.23-.36,.59-.36,1.09v.88c0,.28-.04,.56-.11,.84s-.2,.54-.36,.77-.36,.42-.61,.57c-.25,.15-.54,.23-.88,.23l-.11-.6Z"/>
      <path class="cls-1" d="M13.72,162.77c.21,0,.39-.07,.53-.18,.14-.11,.26-.25,.34-.42s.15-.36,.18-.58c.04-.21,.05-.43,.05-.64v-.88c0-.41,.09-.77,.29-1.09s.49-.55,.89-.71c-.4-.16-.7-.4-.89-.71s-.29-.68-.29-1.09v-.88c0-.21-.01-.42-.03-.64-.02-.21-.07-.41-.15-.58s-.18-.31-.33-.42c-.15-.11-.34-.17-.59-.18l.1-.6c.24,0,.45,.04,.64,.11,.19,.07,.36,.16,.5,.28s.27,.25,.37,.41c.1,.16,.19,.32,.25,.5,.07,.18,.11,.36,.15,.55,.03,.19,.05,.38,.05,.56v.88c0,.5,.12,.86,.36,1.09,.24,.22,.6,.33,1.08,.33v.75c-.48,0-.85,.12-1.08,.34-.24,.23-.36,.59-.36,1.09v.88c0,.28-.04,.56-.11,.84s-.2,.54-.36,.77-.36,.42-.61,.57c-.25,.15-.54,.23-.88,.23l-.11-.6Z"/>
      <path class="cls-1" d="M.95,175.54c.21,0,.39-.07,.53-.18,.14-.11,.26-.25,.34-.42s.15-.36,.18-.58c.04-.21,.05-.43,.05-.64v-.88c0-.41,.09-.77,.29-1.09s.49-.55,.89-.71c-.4-.16-.7-.4-.89-.71s-.29-.68-.29-1.09v-.88c0-.21-.01-.42-.03-.64-.02-.21-.07-.41-.15-.58s-.18-.31-.33-.42c-.15-.11-.34-.17-.59-.18l.1-.6c.24,0,.45,.04,.64,.11,.19,.07,.36,.16,.5,.28s.27,.25,.37,.41c.1,.16,.19,.32,.25,.5,.07,.18,.11,.36,.15,.55,.03,.19,.05,.38,.05,.56v.88c0,.5,.12,.86,.36,1.09,.24,.22,.6,.33,1.08,.33v.75c-.48,0-.85,.12-1.08,.34-.24,.23-.36,.59-.36,1.09v.88c0,.28-.04,.56-.11,.84s-.2,.54-.36,.77-.36,.42-.61,.57c-.25,.15-.54,.23-.88,.23l-.11-.6Z"/>
    </g>
  </g>
</svg>