<?xml version="1.0" encoding="UTF-8"?>
<svg id="Layer_1" data-name="Layer 1" xmlns="http://www.w3.org/2000/svg" viewBox="0 0 589.77 236.25">
  <defs>
    <style>
      .cls-1 {
        letter-spacing: -.08em;
      }

      .cls-2 {
        fill: #008938;
      }

      .cls-3, .cls-4, .cls-5 {
        fill: #fff;
      }

      .cls-6, .cls-7 {
        fill: #e52421;
      }

      .cls-8 {
        letter-spacing: 0em;
      }

      .cls-7, .cls-4 {
        font-family: Roboto-Italic, Roboto;
        font-size: 11.23px;
      }

      .cls-9 {
        letter-spacing: 0em;
      }

      .cls-5 {
        font-family: Roboto-Bold, Roboto;
        font-size: 13.47px;
      }
    </style>
  </defs>
  <rect class="cls-2" x="176.22" y="26.52" width="369.36" height="3.37"/>
  <rect class="cls-2" x="209.9" y="66.94" width="168.4" height="3.37"/>
  <rect class="cls-6" x="370.45" y="115.21" width="175.14" height="3.37"/>
  <text class="cls-5" transform="translate(174.86 11.53)"><tspan x="0" y="0">Que</tspan><tspan class="cls-9" x="24.12" y="0">r</tspan><tspan x="29.15" y="0">y patients()</tspan></text>
  <text class="cls-5" transform="translate(211.27 58.31)"><tspan x="0" y="0">patient.documents()</tspan></text>
  <text class="cls-5" transform="translate(369.61 106.22)"><tspan x="0" y="0">document.images()</tspan></text>
  <text class="cls-4" transform="translate(509.06 19.59)"><tspan x="0" y="0">400ms</tspan></text>
  <text class="cls-4" transform="translate(344.54 59.35)"><tspan x="0" y="0">200ms</tspan></text>
  <text class="cls-7" transform="translate(514.41 104.57)"><tspan class="cls-1" x="0" y="0">F</tspan><tspan class="cls-8" x="5.14" y="0">AIL</tspan></text>
  <g>
    <path class="cls-2" d="M23.51,17.81c0-.47,.06-.9,.17-1.3s.28-.73,.5-1.02,.48-.51,.8-.67c.32-.16,.68-.24,1.08-.24,.37,0,.7,.06,.99,.19s.53,.31,.74,.55l.05-.62h.99v8.73h-1.08v-3c-.21,.22-.46,.39-.73,.51-.28,.12-.6,.18-.97,.18-.4,0-.76-.08-1.07-.25-.31-.16-.58-.39-.8-.68s-.38-.63-.5-1.02-.17-.81-.17-1.26v-.12Zm1.08,.12c0,.31,.03,.6,.1,.88s.17,.53,.31,.74c.14,.21,.32,.38,.53,.51,.22,.13,.47,.19,.77,.19,.35,0,.64-.08,.87-.23,.23-.16,.42-.36,.57-.61v-3.11c-.07-.12-.16-.23-.25-.33s-.2-.19-.32-.26c-.12-.07-.25-.13-.39-.17-.14-.04-.3-.06-.46-.06-.3,0-.56,.06-.78,.19-.22,.13-.4,.3-.54,.52s-.25,.46-.31,.74c-.07,.28-.1,.57-.1,.88v.12Z"/>
    <path class="cls-2" d="M34.97,20.15c-.21,.31-.47,.55-.79,.73-.31,.17-.68,.26-1.09,.26-.33,0-.63-.05-.9-.15-.27-.1-.5-.26-.69-.48s-.34-.49-.44-.83c-.1-.34-.15-.74-.15-1.21v-3.75h1.08v3.76c0,.34,.03,.63,.08,.85,.05,.23,.14,.41,.25,.54,.11,.13,.24,.23,.4,.28,.16,.05,.34,.08,.54,.08,.44,0,.79-.09,1.06-.27,.27-.18,.47-.42,.6-.72v-4.52h1.08v6.31h-.98l-.06-.87Z"/>
    <path class="cls-2" d="M40.83,21.13c-.44,0-.85-.08-1.22-.23-.37-.15-.69-.36-.95-.64-.26-.27-.47-.59-.62-.97-.15-.37-.22-.78-.22-1.22v-.24c0-.51,.08-.97,.25-1.37,.16-.4,.38-.74,.65-1.02,.27-.28,.58-.49,.92-.64,.34-.15,.7-.22,1.06-.22,.45,0,.85,.08,1.19,.24,.34,.16,.62,.38,.85,.65,.23,.28,.39,.61,.5,.98,.11,.38,.17,.79,.17,1.22v.48h-4.51c.01,.29,.07,.56,.17,.81,.1,.25,.23,.47,.41,.66,.17,.19,.38,.34,.62,.45,.24,.11,.51,.16,.8,.16,.38,0,.73-.08,1.03-.23,.3-.16,.55-.36,.75-.62l.66,.51c-.1,.16-.24,.31-.39,.46-.16,.15-.34,.28-.54,.39s-.44,.2-.7,.27c-.26,.07-.54,.1-.85,.1Zm-.14-5.66c-.22,0-.42,.04-.62,.12s-.37,.2-.52,.35c-.16,.15-.29,.34-.39,.57s-.18,.48-.22,.77h3.39v-.08c-.01-.21-.05-.42-.12-.62-.07-.21-.17-.39-.3-.55-.13-.16-.3-.3-.5-.4-.2-.1-.44-.15-.71-.15Z"/>
    <path class="cls-2" d="M49.34,14.59c.1,0,.21,0,.31,0s.21,.02,.31,.03c.1,.01,.19,.03,.27,.05s.15,.04,.21,.06l-.15,1.06c-.21-.05-.41-.08-.6-.1s-.39-.03-.59-.03c-.51,0-.91,.11-1.23,.34s-.54,.55-.69,.96v4.05h-1.08v-6.31h1.03l.05,1c.26-.35,.56-.62,.92-.82s.77-.3,1.23-.3Z"/>
    <path class="cls-2" d="M54.7,18.78l.28,.76,1.92-4.83h1.21l-3.2,7.28c-.07,.16-.17,.34-.28,.52-.11,.18-.25,.35-.42,.51-.16,.16-.35,.29-.57,.39s-.47,.16-.75,.16c-.05,0-.11,0-.17,0-.06,0-.12-.01-.19-.02-.06,0-.12-.02-.17-.03-.05-.01-.1-.02-.13-.03l.18-.88s.06,0,.11,0c.05,0,.1,0,.15,.01,.05,0,.1,0,.15,0,.05,0,.08,0,.11,0,.15,0,.28-.04,.41-.12,.12-.08,.23-.18,.33-.29s.18-.23,.25-.35c.07-.12,.12-.22,.16-.3l.43-.84-2.72-6.01h1.21l1.73,4.07Z"/>
    <path class="cls-3" d="M71.4,23.15c-.25,0-.48-.05-.69-.13s-.39-.18-.55-.31c-.16-.13-.3-.29-.42-.46s-.22-.36-.3-.56-.14-.41-.18-.62c-.04-.21-.06-.42-.06-.63v-.99c0-.56-.13-.97-.4-1.22-.27-.25-.67-.38-1.22-.39v-.85c.55,0,.96-.13,1.22-.38,.27-.25,.4-.66,.4-1.22v-.99c0-.21,.02-.42,.05-.63,.03-.21,.09-.42,.16-.62s.17-.39,.28-.56c.11-.17,.25-.33,.42-.46,.16-.13,.35-.24,.56-.31,.21-.08,.45-.12,.72-.13l.12,.67c-.28,0-.5,.07-.67,.2-.17,.12-.29,.28-.37,.48-.08,.19-.14,.41-.16,.65-.02,.24-.04,.48-.04,.72v.99c0,.47-.11,.88-.33,1.23-.21,.35-.55,.62-1,.8,.45,.18,.78,.44,1,.8,.21,.35,.32,.76,.33,1.22v.99c0,.24,.02,.48,.06,.72,.04,.24,.11,.45,.2,.65s.22,.35,.38,.48c.16,.12,.36,.19,.6,.2l-.12,.67Z"/>
    <path class="cls-3" d="M43.37,32.26c0,.45-.05,.87-.16,1.26s-.27,.73-.48,1.02c-.21,.29-.47,.51-.78,.68-.31,.16-.66,.25-1.06,.25s-.72-.06-1.02-.19c-.29-.12-.55-.3-.76-.54v3.03h-1.08v-8.73h.99l.05,.69c.21-.26,.46-.46,.76-.6,.3-.14,.64-.21,1.04-.21s.76,.08,1.07,.24c.31,.16,.57,.38,.78,.67,.21,.28,.37,.62,.48,1.02s.16,.83,.16,1.3v.12Zm-1.08-.12c0-.31-.03-.6-.1-.88-.07-.28-.17-.52-.31-.73-.14-.21-.32-.38-.54-.5s-.48-.19-.78-.19c-.35,0-.64,.08-.87,.24-.24,.16-.42,.37-.56,.62v3.04c.14,.25,.33,.45,.56,.61,.23,.16,.53,.24,.89,.24,.3,0,.56-.06,.78-.19,.22-.13,.4-.3,.54-.51,.14-.21,.24-.46,.31-.74,.07-.28,.1-.57,.1-.88v-.12Z"/>
    <path class="cls-3" d="M49.36,35.35c-.04-.08-.08-.18-.1-.31-.03-.12-.04-.25-.06-.38-.11,.11-.23,.21-.36,.31s-.28,.18-.44,.26c-.16,.07-.33,.13-.52,.17-.18,.04-.38,.06-.58,.06-.33,0-.64-.05-.91-.15-.27-.1-.5-.23-.69-.39-.19-.17-.33-.36-.44-.59s-.15-.47-.15-.74c0-.35,.07-.65,.21-.91,.14-.26,.33-.48,.59-.65s.56-.3,.91-.39c.36-.09,.75-.13,1.19-.13h1.18v-.5c0-.19-.04-.36-.1-.51-.07-.15-.17-.28-.3-.39-.13-.11-.29-.19-.47-.25-.18-.06-.39-.09-.62-.09-.21,0-.41,.03-.57,.08-.17,.05-.31,.13-.43,.22s-.21,.2-.27,.32-.1,.25-.1,.38h-1.08c0-.23,.06-.45,.18-.68s.28-.42,.5-.6,.48-.32,.79-.43,.66-.16,1.05-.16c.36,0,.69,.04,1,.13,.31,.09,.57,.22,.8,.4,.22,.18,.4,.4,.53,.66,.13,.26,.19,.57,.19,.93v2.93c0,.21,.02,.43,.06,.67,.04,.24,.09,.44,.16,.62v.09h-1.13Zm-1.91-.82c.21,0,.41-.03,.59-.08,.18-.05,.35-.13,.5-.22,.15-.09,.28-.19,.39-.31s.19-.23,.26-.36v-1.28h-1c-.63,0-1.12,.09-1.47,.28-.35,.19-.52,.48-.52,.88,0,.16,.03,.3,.08,.43,.05,.13,.13,.25,.24,.34s.24,.17,.4,.22c.16,.05,.34,.08,.55,.08Z"/>
    <path class="cls-3" d="M54.93,27.51v1.53h2.4v.83h-2.4v3.43c0,.25,.03,.45,.09,.61,.06,.16,.15,.29,.26,.38s.23,.16,.38,.2c.14,.04,.29,.06,.45,.06,.12,0,.24,0,.36-.02s.25-.03,.36-.05c.12-.02,.23-.04,.33-.06,.1-.02,.19-.04,.25-.06l.15,.76c-.09,.05-.2,.1-.33,.14-.13,.04-.27,.08-.42,.1-.15,.03-.31,.05-.48,.07-.17,.02-.34,.02-.5,.02-.28,0-.54-.04-.78-.12-.24-.08-.45-.21-.63-.38-.18-.17-.32-.4-.42-.67-.1-.27-.15-.6-.15-.99v-3.43h-1.66v-.83h1.66v-1.53h1.08Z"/>
    <path class="cls-3" d="M59.71,29.04h3.22v5.38h2.06v.93h-5.28v-.93h2.15v-4.44h-2.15v-.94Zm2.01-1.66c0-.18,.05-.33,.16-.45,.11-.12,.27-.18,.49-.18s.38,.06,.48,.18c.11,.12,.16,.27,.16,.45s-.05,.32-.16,.44-.27,.17-.48,.17-.38-.06-.49-.17-.16-.26-.16-.44Z"/>
    <path class="cls-3" d="M69.5,35.47c-.44,0-.85-.08-1.22-.23-.37-.15-.69-.36-.95-.64-.26-.27-.47-.59-.62-.97-.15-.37-.22-.78-.22-1.22v-.24c0-.51,.08-.97,.25-1.37,.16-.4,.38-.74,.65-1.02,.27-.28,.58-.49,.92-.64,.34-.15,.7-.22,1.06-.22,.45,0,.85,.08,1.19,.24,.34,.16,.62,.38,.85,.65,.23,.28,.39,.61,.5,.98,.11,.38,.17,.79,.17,1.22v.48h-4.51c.01,.29,.07,.56,.17,.81,.1,.25,.23,.47,.41,.66,.17,.19,.38,.34,.62,.45,.24,.11,.51,.16,.8,.16,.38,0,.73-.08,1.03-.23,.3-.16,.55-.36,.75-.62l.66,.51c-.1,.16-.24,.31-.39,.46-.16,.15-.34,.28-.54,.39s-.44,.2-.7,.27c-.26,.07-.54,.1-.85,.1Zm-.14-5.66c-.22,0-.42,.04-.62,.12s-.37,.2-.52,.35c-.16,.15-.29,.34-.39,.57s-.18,.48-.22,.77h3.39v-.08c-.01-.21-.05-.42-.12-.62-.07-.21-.17-.39-.3-.55-.13-.16-.3-.3-.5-.4-.2-.1-.44-.15-.71-.15Z"/>
    <path class="cls-3" d="M74.84,29.04l.08,.93c.23-.33,.51-.58,.85-.77s.71-.28,1.12-.28c.33,0,.63,.05,.9,.14s.5,.24,.69,.44,.34,.45,.44,.76,.15,.67,.15,1.09v4.01h-1.08v-3.98c0-.28-.03-.52-.09-.71s-.15-.35-.28-.47c-.12-.12-.27-.21-.45-.26-.18-.05-.38-.08-.61-.08-.36,0-.68,.09-.95,.27-.27,.18-.49,.42-.66,.71v4.52h-1.08v-6.31h.97Z"/>
    <path class="cls-3" d="M83.6,27.51v1.53h2.4v.83h-2.4v3.43c0,.25,.03,.45,.09,.61,.06,.16,.15,.29,.26,.38s.23,.16,.38,.2c.14,.04,.29,.06,.45,.06,.12,0,.24,0,.36-.02s.25-.03,.36-.05c.12-.02,.23-.04,.33-.06,.1-.02,.19-.04,.25-.06l.15,.76c-.09,.05-.2,.1-.33,.14-.13,.04-.27,.08-.42,.1-.15,.03-.31,.05-.48,.07-.17,.02-.34,.02-.5,.02-.28,0-.54-.04-.78-.12-.24-.08-.45-.21-.63-.38-.18-.17-.32-.4-.42-.67-.1-.27-.15-.6-.15-.99v-3.43h-1.66v-.83h1.66v-1.53h1.08Z"/>
    <path class="cls-3" d="M92.4,33.68c0-.13-.03-.24-.08-.35s-.14-.2-.26-.28c-.12-.09-.28-.16-.48-.24-.2-.07-.44-.14-.74-.2-.36-.07-.69-.16-.99-.27-.3-.1-.55-.23-.76-.38-.21-.15-.38-.32-.49-.51s-.17-.42-.17-.69,.06-.5,.18-.72c.12-.22,.29-.42,.51-.59,.22-.17,.48-.3,.78-.4s.63-.15,.99-.15c.39,0,.74,.05,1.05,.15s.58,.24,.79,.42,.39,.39,.5,.63,.18,.5,.18,.77h-1.08c0-.14-.04-.27-.1-.4-.07-.13-.17-.25-.29-.35s-.27-.18-.45-.25c-.18-.06-.38-.09-.6-.09s-.43,.03-.6,.08c-.17,.05-.32,.12-.43,.2-.11,.09-.2,.18-.26,.3-.06,.11-.09,.23-.09,.35s.02,.24,.07,.33c.05,.1,.13,.19,.24,.26s.27,.15,.46,.21,.44,.12,.73,.18c.39,.08,.74,.18,1.04,.28s.57,.24,.78,.38c.21,.15,.37,.32,.48,.52s.17,.43,.17,.69c0,.28-.06,.53-.19,.76-.13,.23-.3,.43-.53,.59-.23,.16-.5,.29-.81,.38s-.66,.13-1.03,.13c-.43,0-.81-.06-1.14-.17-.33-.11-.62-.27-.85-.46-.23-.19-.41-.41-.53-.66-.12-.25-.18-.51-.18-.78h1.08c.02,.22,.07,.41,.18,.56,.1,.15,.23,.27,.39,.37,.15,.09,.32,.16,.51,.2,.19,.04,.37,.06,.55,.06,.46,0,.81-.08,1.08-.25,.26-.17,.4-.39,.4-.66Z"/>
    <path class="cls-3" d="M107.23,37.48c-.25,0-.48-.05-.69-.13s-.39-.18-.55-.31c-.16-.13-.3-.29-.42-.46s-.22-.36-.3-.56-.14-.41-.18-.62c-.04-.21-.06-.42-.06-.63v-.99c0-.56-.13-.97-.4-1.22-.27-.25-.67-.38-1.22-.39v-.85c.55,0,.96-.13,1.22-.38,.27-.25,.4-.66,.4-1.22v-.99c0-.21,.02-.42,.05-.63,.03-.21,.09-.42,.16-.62s.17-.39,.28-.56c.11-.17,.25-.33,.42-.46,.16-.13,.35-.24,.56-.31,.21-.08,.45-.12,.72-.13l.12,.67c-.28,0-.5,.07-.67,.2-.17,.12-.29,.28-.37,.48-.08,.19-.14,.41-.16,.65-.02,.24-.04,.48-.04,.72v.99c0,.47-.11,.88-.33,1.23-.21,.35-.55,.62-1,.8,.45,.18,.78,.44,1,.8,.21,.35,.32,.76,.33,1.22v.99c0,.24,.02,.48,.06,.72,.04,.24,.11,.45,.2,.65s.22,.35,.38,.48c.16,.12,.36,.19,.6,.2l-.12,.67Z"/>
    <path class="cls-2" d="M53.34,43.37l.08,.93c.23-.33,.51-.58,.85-.77s.71-.28,1.12-.28c.33,0,.63,.05,.9,.14s.5,.24,.69,.44,.34,.45,.44,.76,.15,.67,.15,1.09v4.01h-1.08v-3.98c0-.28-.03-.52-.09-.71s-.15-.35-.28-.47c-.12-.12-.27-.21-.45-.26-.18-.05-.38-.08-.61-.08-.36,0-.68,.09-.95,.27-.27,.18-.49,.42-.66,.71v4.52h-1.08v-6.31h.97Z"/>
    <path class="cls-2" d="M63.69,49.68c-.04-.08-.08-.18-.1-.31-.03-.12-.04-.25-.06-.38-.11,.11-.23,.21-.36,.31s-.28,.18-.44,.26c-.16,.07-.33,.13-.52,.17-.18,.04-.38,.06-.58,.06-.33,0-.64-.05-.91-.15-.27-.1-.5-.23-.69-.39-.19-.17-.33-.36-.44-.59s-.15-.47-.15-.74c0-.35,.07-.65,.21-.91,.14-.26,.33-.48,.59-.65s.56-.3,.91-.39c.36-.09,.75-.13,1.19-.13h1.18v-.5c0-.19-.04-.36-.1-.51-.07-.15-.17-.28-.3-.39-.13-.11-.29-.19-.47-.25-.18-.06-.39-.09-.62-.09-.21,0-.41,.03-.57,.08-.17,.05-.31,.13-.43,.22s-.21,.2-.27,.32-.1,.25-.1,.38h-1.08c0-.23,.06-.45,.18-.68s.28-.42,.5-.6,.48-.32,.79-.43,.66-.16,1.05-.16c.36,0,.69,.04,1,.13,.31,.09,.57,.22,.8,.4,.22,.18,.4,.4,.53,.66,.13,.26,.19,.57,.19,.93v2.93c0,.21,.02,.43,.06,.67,.04,.24,.09,.44,.16,.62v.09h-1.13Zm-1.91-.82c.21,0,.41-.03,.59-.08,.18-.05,.35-.13,.5-.22,.15-.09,.28-.19,.39-.31s.19-.23,.26-.36v-1.28h-1c-.63,0-1.12,.09-1.47,.28-.35,.19-.52,.48-.52,.88,0,.16,.03,.3,.08,.43,.05,.13,.13,.25,.24,.34s.24,.17,.4,.22c.16,.05,.34,.08,.55,.08Z"/>
    <path class="cls-2" d="M67.2,43.37l.03,.59c.13-.22,.3-.39,.5-.52s.46-.19,.75-.19c.58,0,.97,.23,1.16,.68,.12-.2,.29-.36,.49-.49s.45-.19,.74-.19c.46,0,.82,.14,1.07,.43,.25,.28,.37,.71,.37,1.29v4.71h-1.03v-4.72c0-.53-.24-.79-.73-.79-.13,0-.24,.02-.33,.05-.09,.04-.17,.08-.23,.14-.06,.06-.11,.13-.15,.21-.04,.08-.06,.16-.07,.25v4.86h-1.03v-4.73c0-.25-.06-.45-.17-.58-.11-.14-.29-.2-.54-.2-.23,0-.4,.04-.52,.13-.12,.09-.22,.21-.27,.36v5.02h-1.03v-6.31h.97Z"/>
    <path class="cls-2" d="M76.66,49.8c-.44,0-.85-.08-1.22-.23-.37-.15-.69-.36-.95-.64-.26-.27-.47-.59-.62-.97-.15-.37-.22-.78-.22-1.22v-.24c0-.51,.08-.97,.25-1.37,.16-.4,.38-.74,.65-1.02,.27-.28,.58-.49,.92-.64,.34-.15,.7-.22,1.06-.22,.45,0,.85,.08,1.19,.24,.34,.16,.62,.38,.85,.65,.23,.28,.39,.61,.5,.98,.11,.38,.17,.79,.17,1.22v.48h-4.51c.01,.29,.07,.56,.17,.81,.1,.25,.23,.47,.41,.66,.17,.19,.38,.34,.62,.45,.24,.11,.51,.16,.8,.16,.38,0,.73-.08,1.03-.23,.3-.16,.55-.36,.75-.62l.66,.51c-.1,.16-.24,.31-.39,.46-.16,.15-.34,.28-.54,.39s-.44,.2-.7,.27c-.26,.07-.54,.1-.85,.1Zm-.14-5.66c-.22,0-.42,.04-.62,.12s-.37,.2-.52,.35c-.16,.15-.29,.34-.39,.57s-.18,.48-.22,.77h3.39v-.08c-.01-.21-.05-.42-.12-.62-.07-.21-.17-.39-.3-.55-.13-.16-.3-.3-.5-.4-.2-.1-.44-.15-.71-.15Z"/>
    <path class="cls-2" d="M56.52,64.01c-.04-.08-.08-.18-.1-.31-.03-.12-.04-.25-.06-.38-.11,.11-.23,.21-.36,.31s-.28,.18-.44,.26c-.16,.07-.33,.13-.52,.17-.18,.04-.38,.06-.58,.06-.33,0-.64-.05-.91-.15-.27-.1-.5-.23-.69-.39-.19-.17-.33-.36-.44-.59s-.15-.47-.15-.74c0-.35,.07-.65,.21-.91,.14-.26,.33-.48,.59-.65s.56-.3,.91-.39c.36-.09,.75-.13,1.19-.13h1.18v-.5c0-.19-.04-.36-.1-.51-.07-.15-.17-.28-.3-.39-.13-.11-.29-.19-.47-.25-.18-.06-.39-.09-.62-.09-.21,0-.41,.03-.57,.08-.17,.05-.31,.13-.43,.22s-.21,.2-.27,.32-.1,.25-.1,.38h-1.08c0-.23,.06-.45,.18-.68s.28-.42,.5-.6,.48-.32,.79-.43,.66-.16,1.05-.16c.36,0,.69,.04,1,.13,.31,.09,.57,.22,.8,.4,.22,.18,.4,.4,.53,.66,.13,.26,.19,.57,.19,.93v2.93c0,.21,.02,.43,.06,.67,.04,.24,.09,.44,.16,.62v.09h-1.13Zm-1.91-.82c.21,0,.41-.03,.59-.08,.18-.05,.35-.13,.5-.22,.15-.09,.28-.19,.39-.31s.19-.23,.26-.36v-1.28h-1c-.63,0-1.12,.09-1.47,.28-.35,.19-.52,.48-.52,.88,0,.16,.03,.3,.08,.43,.05,.13,.13,.25,.24,.34s.24,.17,.4,.22c.16,.05,.34,.08,.55,.08Z"/>
    <path class="cls-2" d="M59.34,60.8c0-.47,.06-.9,.17-1.3s.28-.73,.5-1.02,.48-.51,.79-.67c.31-.16,.66-.24,1.06-.24s.73,.07,1.02,.21c.29,.14,.54,.34,.75,.6l.05-.69h.98v6.17c0,.42-.06,.79-.2,1.11s-.31,.6-.55,.82c-.23,.23-.52,.4-.84,.51s-.69,.17-1.08,.17c-.16,0-.35-.02-.56-.06-.21-.04-.42-.1-.64-.18-.22-.08-.42-.2-.62-.34s-.37-.31-.52-.52l.56-.65c.13,.16,.27,.29,.41,.41,.14,.11,.28,.2,.43,.27,.14,.07,.29,.11,.43,.14,.14,.03,.29,.04,.43,.04,.26,0,.49-.04,.69-.11s.38-.18,.53-.32c.15-.14,.26-.32,.34-.53s.12-.45,.12-.72v-.54c-.21,.24-.46,.42-.74,.55-.29,.13-.62,.19-.99,.19s-.73-.08-1.04-.25c-.31-.16-.57-.39-.79-.68s-.38-.63-.5-1.02-.17-.81-.17-1.26v-.12Zm1.08,.12c0,.31,.03,.6,.1,.87,.06,.28,.17,.52,.3,.73,.14,.21,.31,.38,.53,.5s.47,.18,.77,.18c.19,0,.35-.02,.5-.07,.15-.04,.28-.11,.4-.19,.12-.08,.22-.18,.32-.29,.09-.11,.17-.24,.25-.37v-2.89c-.07-.13-.15-.25-.25-.36-.09-.11-.2-.2-.32-.28-.12-.08-.25-.14-.4-.19-.15-.04-.31-.07-.49-.07-.3,0-.56,.06-.78,.19s-.39,.29-.53,.5c-.14,.21-.24,.46-.3,.73-.06,.28-.1,.57-.1,.88v.12Z"/>
    <path class="cls-2" d="M69.5,64.13c-.44,0-.85-.08-1.22-.23-.37-.15-.69-.36-.95-.64-.26-.27-.47-.59-.62-.97-.15-.37-.22-.78-.22-1.22v-.24c0-.51,.08-.97,.25-1.37,.16-.4,.38-.74,.65-1.02,.27-.28,.58-.49,.92-.64,.34-.15,.7-.22,1.06-.22,.45,0,.85,.08,1.19,.24,.34,.16,.62,.38,.85,.65,.23,.28,.39,.61,.5,.98,.11,.38,.17,.79,.17,1.22v.48h-4.51c.01,.29,.07,.56,.17,.81,.1,.25,.23,.47,.41,.66,.17,.19,.38,.34,.62,.45,.24,.11,.51,.16,.8,.16,.38,0,.73-.08,1.03-.23,.3-.16,.55-.36,.75-.62l.66,.51c-.1,.16-.24,.31-.39,.46-.16,.15-.34,.28-.54,.39s-.44,.2-.7,.27c-.26,.07-.54,.1-.85,.1Zm-.14-5.66c-.22,0-.42,.04-.62,.12s-.37,.2-.52,.35c-.16,.15-.29,.34-.39,.57s-.18,.48-.22,.77h3.39v-.08c-.01-.21-.05-.42-.12-.62-.07-.21-.17-.39-.3-.55-.13-.16-.3-.3-.5-.4-.2-.1-.44-.15-.71-.15Z"/>
    <path class="cls-3" d="M52.17,75.13c0-.47,.06-.9,.18-1.3s.29-.73,.51-1.02,.48-.51,.8-.67c.31-.16,.66-.24,1.04-.24s.71,.06,.99,.19,.53,.31,.73,.55v-3.27h1.08v8.96h-.99l-.05-.66c-.21,.26-.46,.45-.75,.58-.29,.13-.63,.2-1.02,.2s-.73-.08-1.04-.25c-.31-.16-.57-.39-.79-.68s-.39-.63-.51-1.02-.18-.81-.18-1.26v-.12Zm1.08,.12c0,.31,.03,.6,.1,.87,.07,.28,.17,.52,.31,.73,.14,.21,.31,.38,.53,.5s.47,.18,.77,.18c.18,0,.35-.02,.5-.06,.15-.04,.28-.1,.4-.18,.12-.08,.23-.17,.32-.29s.18-.23,.25-.37v-2.93c-.14-.26-.33-.47-.57-.63-.24-.17-.53-.25-.89-.25-.3,0-.56,.06-.78,.19s-.39,.29-.53,.5c-.14,.21-.24,.46-.31,.73-.07,.28-.1,.57-.1,.88v.12Z"/>
    <path class="cls-3" d="M59.24,75.13c0-.46,.07-.88,.2-1.27,.13-.39,.32-.73,.57-1.02,.25-.29,.55-.51,.9-.68,.35-.17,.75-.25,1.2-.25s.85,.08,1.2,.25c.36,.17,.66,.39,.9,.68,.25,.29,.44,.63,.57,1.02,.13,.39,.2,.81,.2,1.27v.13c0,.45-.07,.88-.2,1.27s-.32,.73-.57,1.01c-.25,.29-.55,.51-.9,.68-.35,.16-.75,.25-1.2,.25s-.85-.08-1.2-.25c-.36-.16-.66-.39-.9-.68-.25-.29-.44-.63-.57-1.01s-.2-.81-.2-1.27v-.13Zm1.08,.13c0,.31,.04,.61,.11,.89s.19,.53,.34,.74c.15,.21,.34,.38,.56,.51,.23,.12,.49,.19,.79,.19s.56-.06,.78-.19c.22-.12,.41-.29,.56-.51,.15-.21,.26-.46,.34-.74,.07-.28,.11-.58,.11-.89v-.13c0-.31-.04-.6-.11-.88s-.19-.53-.34-.74c-.15-.21-.34-.38-.56-.51-.22-.13-.49-.19-.78-.19s-.56,.06-.78,.19-.41,.3-.56,.51c-.15,.21-.26,.46-.34,.74s-.11,.58-.11,.88v.13Z"/>
    <path class="cls-3" d="M69.4,77.58c.19,0,.38-.03,.57-.09,.18-.06,.35-.15,.49-.26,.14-.11,.26-.24,.35-.39s.13-.31,.14-.49h1.02c0,.28-.08,.55-.22,.8-.14,.25-.33,.48-.57,.67-.24,.19-.51,.35-.82,.46-.31,.11-.63,.17-.96,.17-.48,0-.9-.09-1.25-.26-.36-.17-.66-.4-.9-.69-.24-.29-.42-.62-.54-1s-.18-.78-.18-1.2v-.24c0-.42,.06-.81,.18-1.2,.12-.38,.3-.72,.54-1.01,.24-.29,.54-.52,.9-.69,.36-.17,.78-.26,1.25-.26,.37,0,.72,.06,1.03,.18s.58,.28,.81,.48,.41,.45,.53,.73c.13,.28,.19,.58,.19,.9h-1.02c0-.19-.05-.37-.13-.54-.08-.17-.19-.32-.32-.45-.14-.13-.3-.23-.49-.3s-.39-.11-.61-.11c-.33,0-.62,.07-.84,.2-.23,.13-.41,.31-.55,.52s-.24,.46-.3,.73c-.06,.27-.09,.54-.09,.81v.24c0,.28,.03,.55,.09,.82s.16,.51,.3,.73,.32,.39,.55,.52c.23,.13,.51,.2,.85,.2Z"/>
    <path class="cls-3" d="M77.97,77.47c-.21,.31-.47,.55-.79,.73-.31,.17-.68,.26-1.09,.26-.33,0-.63-.05-.9-.15-.27-.1-.5-.26-.69-.48s-.34-.49-.44-.83c-.1-.34-.15-.74-.15-1.21v-3.75h1.08v3.76c0,.34,.03,.63,.08,.85,.05,.23,.14,.41,.25,.54,.11,.13,.24,.23,.4,.28,.16,.05,.34,.08,.54,.08,.44,0,.79-.09,1.06-.27,.27-.18,.47-.42,.6-.72v-4.52h1.08v6.31h-.98l-.06-.87Z"/>
    <path class="cls-3" d="M81.54,72.03l.03,.59c.13-.22,.3-.39,.5-.52s.46-.19,.75-.19c.58,0,.97,.23,1.16,.68,.12-.2,.29-.36,.49-.49s.45-.19,.74-.19c.46,0,.82,.14,1.07,.43,.25,.28,.37,.71,.37,1.29v4.71h-1.03v-4.72c0-.53-.24-.79-.73-.79-.13,0-.24,.02-.33,.05-.09,.04-.17,.08-.23,.14-.06,.06-.11,.13-.15,.21-.04,.08-.06,.16-.07,.25v4.86h-1.03v-4.73c0-.25-.06-.45-.17-.58-.11-.14-.29-.2-.54-.2-.23,0-.4,.04-.52,.13-.12,.09-.22,.21-.27,.36v5.02h-1.03v-6.31h.97Z"/>
    <path class="cls-3" d="M91,78.46c-.44,0-.85-.08-1.22-.23-.37-.15-.69-.36-.95-.64-.26-.27-.47-.59-.62-.97-.15-.37-.22-.78-.22-1.22v-.24c0-.51,.08-.97,.25-1.37,.16-.4,.38-.74,.65-1.02,.27-.28,.58-.49,.92-.64,.34-.15,.7-.22,1.06-.22,.45,0,.85,.08,1.19,.24,.34,.16,.62,.38,.85,.65,.23,.28,.39,.61,.5,.98,.11,.38,.17,.79,.17,1.22v.48h-4.51c.01,.29,.07,.56,.17,.81,.1,.25,.23,.47,.41,.66,.17,.19,.38,.34,.62,.45,.24,.11,.51,.16,.8,.16,.38,0,.73-.08,1.03-.23,.3-.16,.55-.36,.75-.62l.66,.51c-.1,.16-.24,.31-.39,.46-.16,.15-.34,.28-.54,.39s-.44,.2-.7,.27c-.26,.07-.54,.1-.85,.1Zm-.14-5.66c-.22,0-.42,.04-.62,.12s-.37,.2-.52,.35c-.16,.15-.29,.34-.39,.57s-.18,.48-.22,.77h3.39v-.08c-.01-.21-.05-.42-.12-.62-.07-.21-.17-.39-.3-.55-.13-.16-.3-.3-.5-.4-.2-.1-.44-.15-.71-.15Z"/>
    <path class="cls-3" d="M96.34,72.03l.08,.93c.23-.33,.51-.58,.85-.77s.71-.28,1.12-.28c.33,0,.63,.05,.9,.14s.5,.24,.69,.44,.34,.45,.44,.76,.15,.67,.15,1.09v4.01h-1.08v-3.98c0-.28-.03-.52-.09-.71s-.15-.35-.28-.47c-.12-.12-.27-.21-.45-.26-.18-.05-.38-.08-.61-.08-.36,0-.68,.09-.95,.27-.27,.18-.49,.42-.66,.71v4.52h-1.08v-6.31h.97Z"/>
    <path class="cls-3" d="M105.1,70.5v1.53h2.4v.83h-2.4v3.43c0,.25,.03,.45,.09,.61,.06,.16,.15,.29,.26,.38s.23,.16,.38,.2c.14,.04,.29,.06,.45,.06,.12,0,.24,0,.36-.02s.25-.03,.36-.05c.12-.02,.23-.04,.33-.06,.1-.02,.19-.04,.25-.06l.15,.76c-.09,.05-.2,.1-.33,.14-.13,.04-.27,.08-.42,.1-.15,.03-.31,.05-.48,.07-.17,.02-.34,.02-.5,.02-.28,0-.54-.04-.78-.12-.24-.08-.45-.21-.63-.38-.18-.17-.32-.4-.42-.67-.1-.27-.15-.6-.15-.99v-3.43h-1.66v-.83h1.66v-1.53h1.08Z"/>
    <path class="cls-3" d="M113.9,76.67c0-.13-.03-.24-.08-.35s-.14-.2-.26-.28c-.12-.09-.28-.16-.48-.24-.2-.07-.44-.14-.74-.2-.36-.07-.69-.16-.99-.27-.3-.1-.55-.23-.76-.38-.21-.15-.38-.32-.49-.51s-.17-.42-.17-.69,.06-.5,.18-.72c.12-.22,.29-.42,.51-.59,.22-.17,.48-.3,.78-.4s.63-.15,.99-.15c.39,0,.74,.05,1.05,.15s.58,.24,.79,.42,.39,.39,.5,.63,.18,.5,.18,.77h-1.08c0-.14-.04-.27-.1-.4-.07-.13-.17-.25-.29-.35s-.27-.18-.45-.25c-.18-.06-.38-.09-.6-.09s-.43,.03-.6,.08c-.17,.05-.32,.12-.43,.2-.11,.09-.2,.18-.26,.3-.06,.11-.09,.23-.09,.35s.02,.24,.07,.33c.05,.1,.13,.19,.24,.26s.27,.15,.46,.21,.44,.12,.73,.18c.39,.08,.74,.18,1.04,.28s.57,.24,.78,.38c.21,.15,.37,.32,.48,.52s.17,.43,.17,.69c0,.28-.06,.53-.19,.76-.13,.23-.3,.43-.53,.59-.23,.16-.5,.29-.81,.38s-.66,.13-1.03,.13c-.43,0-.81-.06-1.14-.17-.33-.11-.62-.27-.85-.46-.23-.19-.41-.41-.53-.66-.12-.25-.18-.51-.18-.78h1.08c.02,.22,.07,.41,.18,.56,.1,.15,.23,.27,.39,.37,.15,.09,.32,.16,.51,.2,.19,.04,.37,.06,.55,.06,.46,0,.81-.08,1.08-.25,.26-.17,.4-.39,.4-.66Z"/>
    <path class="cls-3" d="M128.73,80.47c-.25,0-.48-.05-.69-.13s-.39-.18-.55-.31c-.16-.13-.3-.29-.42-.46s-.22-.36-.3-.56-.14-.41-.18-.62c-.04-.21-.06-.42-.06-.63v-.99c0-.56-.13-.97-.4-1.22-.27-.25-.67-.38-1.22-.39v-.85c.55,0,.96-.13,1.22-.38,.27-.25,.4-.66,.4-1.22v-.99c0-.21,.02-.42,.05-.63,.03-.21,.09-.42,.16-.62s.17-.39,.28-.56c.11-.17,.25-.33,.42-.46,.16-.13,.35-.24,.56-.31,.21-.08,.45-.12,.72-.13l.12,.67c-.28,0-.5,.07-.67,.2-.17,.12-.29,.28-.37,.48-.08,.19-.14,.41-.16,.65-.02,.24-.04,.48-.04,.72v.99c0,.47-.11,.88-.33,1.23-.21,.35-.55,.62-1,.8,.45,.18,.78,.44,1,.8,.21,.35,.32,.76,.33,1.22v.99c0,.24,.02,.48,.06,.72,.04,.24,.11,.45,.2,.65s.22,.35,.38,.48c.16,.12,.36,.19,.6,.2l-.12,.67Z"/>
    <path class="cls-2" d="M67.68,86.36l.08,.93c.23-.33,.51-.58,.85-.77s.71-.28,1.12-.28c.33,0,.63,.05,.9,.14s.5,.24,.69,.44,.34,.45,.44,.76,.15,.67,.15,1.09v4.01h-1.08v-3.98c0-.28-.03-.52-.09-.71s-.15-.35-.28-.47c-.12-.12-.27-.21-.45-.26-.18-.05-.38-.08-.61-.08-.36,0-.68,.09-.95,.27-.27,.18-.49,.42-.66,.71v4.52h-1.08v-6.31h.97Z"/>
    <path class="cls-2" d="M78.02,92.67c-.04-.08-.08-.18-.1-.31-.03-.12-.04-.25-.06-.38-.11,.11-.23,.21-.36,.31s-.28,.18-.44,.26c-.16,.07-.33,.13-.52,.17-.18,.04-.38,.06-.58,.06-.33,0-.64-.05-.91-.15-.27-.1-.5-.23-.69-.39-.19-.17-.33-.36-.44-.59s-.15-.47-.15-.74c0-.35,.07-.65,.21-.91,.14-.26,.33-.48,.59-.65s.56-.3,.91-.39c.36-.09,.75-.13,1.19-.13h1.18v-.5c0-.19-.04-.36-.1-.51-.07-.15-.17-.28-.3-.39-.13-.11-.29-.19-.47-.25-.18-.06-.39-.09-.62-.09-.21,0-.41,.03-.57,.08-.17,.05-.31,.13-.43,.22s-.21,.2-.27,.32-.1,.25-.1,.38h-1.08c0-.23,.06-.45,.18-.68s.28-.42,.5-.6,.48-.32,.79-.43,.66-.16,1.05-.16c.36,0,.69,.04,1,.13,.31,.09,.57,.22,.8,.4,.22,.18,.4,.4,.53,.66,.13,.26,.19,.57,.19,.93v2.93c0,.21,.02,.43,.06,.67,.04,.24,.09,.44,.16,.62v.09h-1.13Zm-1.91-.82c.21,0,.41-.03,.59-.08,.18-.05,.35-.13,.5-.22,.15-.09,.28-.19,.39-.31s.19-.23,.26-.36v-1.28h-1c-.63,0-1.12,.09-1.47,.28-.35,.19-.52,.48-.52,.88,0,.16,.03,.3,.08,.43,.05,.13,.13,.25,.24,.34s.24,.17,.4,.22c.16,.05,.34,.08,.55,.08Z"/>
    <path class="cls-2" d="M81.54,86.36l.03,.59c.13-.22,.3-.39,.5-.52s.46-.19,.75-.19c.58,0,.97,.23,1.16,.68,.12-.2,.29-.36,.49-.49s.45-.19,.74-.19c.46,0,.82,.14,1.07,.43,.25,.28,.37,.71,.37,1.29v4.71h-1.03v-4.72c0-.53-.24-.79-.73-.79-.13,0-.24,.02-.33,.05-.09,.04-.17,.08-.23,.14-.06,.06-.11,.13-.15,.21-.04,.08-.06,.16-.07,.25v4.86h-1.03v-4.73c0-.25-.06-.45-.17-.58-.11-.14-.29-.2-.54-.2-.23,0-.4,.04-.52,.13-.12,.09-.22,.21-.27,.36v5.02h-1.03v-6.31h.97Z"/>
    <path class="cls-2" d="M91,92.79c-.44,0-.85-.08-1.22-.23-.37-.15-.69-.36-.95-.64-.26-.27-.47-.59-.62-.97-.15-.37-.22-.78-.22-1.22v-.24c0-.51,.08-.97,.25-1.37,.16-.4,.38-.74,.65-1.02,.27-.28,.58-.49,.92-.64,.34-.15,.7-.22,1.06-.22,.45,0,.85,.08,1.19,.24,.34,.16,.62,.38,.85,.65,.23,.28,.39,.61,.5,.98,.11,.38,.17,.79,.17,1.22v.48h-4.51c.01,.29,.07,.56,.17,.81,.1,.25,.23,.47,.41,.66,.17,.19,.38,.34,.62,.45,.24,.11,.51,.16,.8,.16,.38,0,.73-.08,1.03-.23,.3-.16,.55-.36,.75-.62l.66,.51c-.1,.16-.24,.31-.39,.46-.16,.15-.34,.28-.54,.39s-.44,.2-.7,.27c-.26,.07-.54,.1-.85,.1Zm-.14-5.66c-.22,0-.42,.04-.62,.12s-.37,.2-.52,.35c-.16,.15-.29,.34-.39,.57s-.18,.48-.22,.77h3.39v-.08c-.01-.21-.05-.42-.12-.62-.07-.21-.17-.39-.3-.55-.13-.16-.3-.3-.5-.4-.2-.1-.44-.15-.71-.15Z"/>
    <path class="cls-2" d="M69.26,99.16v1.53h2.4v.83h-2.4v3.43c0,.25,.03,.45,.09,.61,.06,.16,.15,.29,.26,.38s.23,.16,.38,.2c.14,.04,.29,.06,.45,.06,.12,0,.24,0,.36-.02s.25-.03,.36-.05c.12-.02,.23-.04,.33-.06,.1-.02,.19-.04,.25-.06l.15,.76c-.09,.05-.2,.1-.33,.14-.13,.04-.27,.08-.42,.1-.15,.03-.31,.05-.48,.07-.17,.02-.34,.02-.5,.02-.28,0-.54-.04-.78-.12-.24-.08-.45-.21-.63-.38-.18-.17-.32-.4-.42-.67-.1-.27-.15-.6-.15-.99v-3.43h-1.66v-.83h1.66v-1.53h1.08Z"/>
    <path class="cls-2" d="M76.66,107.12c-.44,0-.85-.08-1.22-.23-.37-.15-.69-.36-.95-.64-.26-.27-.47-.59-.62-.97-.15-.37-.22-.78-.22-1.22v-.24c0-.51,.08-.97,.25-1.37,.16-.4,.38-.74,.65-1.02,.27-.28,.58-.49,.92-.64,.34-.15,.7-.22,1.06-.22,.45,0,.85,.08,1.19,.24,.34,.16,.62,.38,.85,.65,.23,.28,.39,.61,.5,.98,.11,.38,.17,.79,.17,1.22v.48h-4.51c.01,.29,.07,.56,.17,.81,.1,.25,.23,.47,.41,.66,.17,.19,.38,.34,.62,.45,.24,.11,.51,.16,.8,.16,.38,0,.73-.08,1.03-.23,.3-.16,.55-.36,.75-.62l.66,.51c-.1,.16-.24,.31-.39,.46-.16,.15-.34,.28-.54,.39s-.44,.2-.7,.27c-.26,.07-.54,.1-.85,.1Zm-.14-5.66c-.22,0-.42,.04-.62,.12s-.37,.2-.52,.35c-.16,.15-.29,.34-.39,.57s-.18,.48-.22,.77h3.39v-.08c-.01-.21-.05-.42-.12-.62-.07-.21-.17-.39-.3-.55-.13-.16-.3-.3-.5-.4-.2-.1-.44-.15-.71-.15Z"/>
    <path class="cls-2" d="M83.65,103.03l1.69-2.34h1.27l-2.35,3.12,2.41,3.19h-1.25l-1.74-2.4-1.74,2.4h-1.26l2.41-3.19-2.35-3.12h1.25l1.67,2.34Z"/>
    <path class="cls-2" d="M90.76,99.16v1.53h2.4v.83h-2.4v3.43c0,.25,.03,.45,.09,.61,.06,.16,.15,.29,.26,.38s.23,.16,.38,.2c.14,.04,.29,.06,.45,.06,.12,0,.24,0,.36-.02s.25-.03,.36-.05c.12-.02,.23-.04,.33-.06,.1-.02,.19-.04,.25-.06l.15,.76c-.09,.05-.2,.1-.33,.14-.13,.04-.27,.08-.42,.1-.15,.03-.31,.05-.48,.07-.17,.02-.34,.02-.5,.02-.28,0-.54-.04-.78-.12-.24-.08-.45-.21-.63-.38-.18-.17-.32-.4-.42-.67-.1-.27-.15-.6-.15-.99v-3.43h-1.66v-.83h1.66v-1.53h1.08Z"/>
    <path class="cls-6" d="M66.88,115.02h3.22v5.38h2.06v.93h-5.28v-.93h2.15v-4.44h-2.15v-.94Zm2.01-1.66c0-.18,.05-.33,.16-.45,.11-.12,.27-.18,.49-.18s.38,.06,.48,.18c.11,.12,.16,.27,.16,.45s-.05,.32-.16,.44c-.11,.12-.27,.17-.48,.17s-.38-.06-.49-.17c-.11-.12-.16-.26-.16-.44Z"/>
    <path class="cls-6" d="M74.37,115.02l.03,.59c.13-.22,.3-.39,.5-.52,.21-.12,.46-.19,.75-.19,.58,0,.97,.23,1.16,.68,.12-.2,.29-.36,.49-.49,.2-.12,.45-.19,.74-.19,.46,0,.82,.14,1.07,.43,.25,.28,.37,.71,.37,1.29v4.71h-1.03v-4.72c0-.53-.24-.79-.73-.79-.13,0-.24,.02-.33,.05s-.17,.08-.23,.14-.11,.13-.15,.21c-.04,.08-.06,.16-.07,.25v4.86h-1.03v-4.73c0-.25-.06-.45-.17-.58s-.29-.2-.54-.2c-.23,0-.4,.04-.52,.13-.12,.09-.22,.21-.27,.36v5.02h-1.03v-6.31h.97Z"/>
    <path class="cls-6" d="M85.19,121.33c-.04-.08-.08-.18-.1-.31-.03-.12-.04-.25-.06-.38-.11,.11-.23,.21-.36,.31-.13,.1-.28,.18-.44,.26-.16,.07-.33,.13-.52,.17-.18,.04-.38,.06-.58,.06-.33,0-.64-.05-.91-.15-.27-.1-.5-.23-.69-.39s-.33-.36-.44-.59-.15-.47-.15-.74c0-.35,.07-.65,.21-.91,.14-.26,.33-.48,.59-.65s.56-.3,.91-.39c.36-.08,.75-.13,1.19-.13h1.18v-.5c0-.19-.04-.36-.1-.51-.07-.15-.17-.28-.3-.39-.13-.11-.29-.19-.47-.25s-.39-.09-.62-.09c-.21,0-.41,.03-.57,.08s-.31,.13-.43,.22c-.12,.09-.21,.2-.27,.32-.06,.12-.1,.25-.1,.38h-1.08c0-.23,.06-.45,.18-.68s.28-.42,.5-.6,.48-.32,.79-.43c.31-.11,.66-.16,1.05-.16,.36,0,.69,.04,1,.13s.57,.22,.8,.4,.4,.4,.53,.66c.13,.26,.19,.57,.19,.93v2.93c0,.21,.02,.43,.06,.67,.04,.24,.09,.44,.16,.62v.09h-1.13Zm-1.91-.82c.21,0,.41-.03,.59-.08,.18-.05,.35-.13,.5-.22,.15-.09,.28-.19,.39-.31,.11-.12,.19-.23,.26-.36v-1.28h-1c-.63,0-1.12,.09-1.47,.28-.35,.19-.52,.48-.52,.88,0,.16,.03,.3,.08,.43,.05,.13,.13,.25,.24,.34,.1,.1,.24,.17,.4,.22,.16,.05,.34,.08,.55,.08Z"/>
    <path class="cls-6" d="M88.01,118.13c0-.47,.06-.9,.17-1.3s.28-.73,.5-1.02c.22-.28,.48-.5,.79-.67,.31-.16,.66-.24,1.06-.24s.73,.07,1.02,.21c.29,.14,.54,.34,.75,.6l.05-.69h.98v6.17c0,.42-.06,.79-.2,1.11-.13,.32-.31,.6-.55,.82-.23,.23-.52,.4-.84,.51-.33,.12-.69,.17-1.08,.17-.16,0-.35-.02-.56-.05-.21-.04-.42-.1-.64-.18-.22-.08-.42-.2-.62-.34-.2-.14-.37-.31-.52-.52l.56-.65c.13,.16,.27,.29,.41,.41,.14,.11,.28,.2,.43,.27,.14,.07,.29,.11,.43,.14,.14,.03,.29,.04,.43,.04,.26,0,.49-.04,.69-.11,.21-.07,.38-.18,.53-.32,.15-.14,.26-.32,.34-.53s.12-.45,.12-.72v-.54c-.21,.24-.46,.42-.74,.55s-.62,.19-.99,.19-.73-.08-1.04-.25c-.31-.16-.57-.39-.79-.68-.22-.29-.38-.63-.5-1.02s-.17-.81-.17-1.26v-.12Zm1.08,.12c0,.31,.03,.6,.1,.88,.06,.28,.17,.52,.3,.73,.14,.21,.31,.38,.53,.5,.21,.12,.47,.18,.77,.18,.19,0,.35-.02,.5-.07,.15-.04,.28-.11,.4-.19s.22-.18,.32-.29c.09-.11,.17-.24,.25-.37v-2.89c-.07-.13-.15-.25-.25-.36-.09-.11-.2-.2-.32-.28-.12-.08-.25-.14-.4-.19-.15-.04-.31-.07-.49-.07-.3,0-.56,.06-.78,.19-.22,.12-.39,.29-.53,.5-.14,.21-.24,.46-.3,.73-.06,.28-.1,.57-.1,.88v.12Z"/>
    <path class="cls-6" d="M98.16,121.45c-.44,0-.85-.08-1.22-.23-.37-.15-.69-.36-.95-.64-.26-.27-.47-.59-.62-.97-.15-.37-.22-.78-.22-1.22v-.24c0-.51,.08-.97,.25-1.37,.16-.4,.38-.74,.65-1.02,.27-.28,.58-.49,.92-.64,.34-.15,.7-.22,1.06-.22,.45,0,.85,.08,1.19,.24,.34,.16,.62,.38,.85,.65,.23,.28,.39,.61,.5,.98,.11,.38,.17,.79,.17,1.22v.48h-4.51c.01,.29,.07,.56,.17,.81s.23,.47,.41,.66c.17,.19,.38,.34,.62,.45,.24,.11,.51,.16,.8,.16,.38,0,.73-.08,1.03-.23,.3-.16,.55-.36,.75-.62l.66,.51c-.1,.16-.24,.31-.39,.46-.16,.15-.34,.28-.54,.39-.21,.11-.44,.2-.7,.27-.26,.07-.54,.1-.85,.1Zm-.14-5.66c-.22,0-.42,.04-.62,.12-.19,.08-.37,.2-.52,.35-.16,.15-.29,.34-.39,.57s-.18,.48-.22,.77h3.39v-.08c-.01-.21-.05-.42-.12-.62-.07-.21-.17-.39-.3-.55-.13-.16-.3-.3-.5-.4-.2-.1-.44-.15-.71-.15Z"/>
    <path class="cls-6" d="M106.73,119.66c0-.13-.03-.24-.08-.35-.05-.1-.14-.2-.26-.28-.12-.08-.28-.16-.48-.24-.2-.07-.44-.14-.74-.2-.36-.07-.69-.16-.99-.27-.3-.11-.55-.23-.76-.38-.21-.15-.38-.32-.49-.51s-.17-.42-.17-.69,.06-.5,.18-.72,.29-.42,.51-.59,.48-.3,.78-.4c.3-.1,.63-.15,.99-.15,.39,0,.74,.05,1.05,.15,.31,.1,.58,.24,.79,.42s.39,.39,.5,.63,.18,.5,.18,.77h-1.08c0-.14-.04-.27-.1-.4s-.17-.25-.29-.35c-.12-.1-.27-.18-.45-.25-.18-.06-.38-.09-.6-.09s-.43,.03-.6,.08-.32,.12-.43,.2c-.11,.08-.2,.18-.26,.3-.06,.11-.09,.23-.09,.35s.02,.24,.07,.33c.05,.1,.13,.18,.24,.26,.11,.08,.27,.15,.46,.21,.19,.06,.44,.12,.73,.18,.39,.08,.74,.18,1.04,.28,.31,.11,.57,.24,.78,.38,.21,.15,.37,.32,.48,.52s.17,.43,.17,.69c0,.28-.06,.54-.19,.76-.13,.23-.3,.43-.53,.59-.23,.16-.5,.29-.81,.38-.31,.09-.66,.13-1.03,.13-.43,0-.81-.06-1.14-.17-.33-.11-.62-.27-.85-.46-.23-.19-.41-.41-.53-.66-.12-.25-.18-.51-.18-.78h1.08c.02,.22,.07,.41,.18,.56,.1,.15,.23,.27,.39,.37,.15,.09,.32,.16,.51,.2,.19,.04,.37,.06,.55,.06,.46,0,.81-.08,1.08-.25,.26-.17,.4-.39,.4-.67Z"/>
    <path class="cls-6" d="M121.56,123.47c-.25,0-.48-.05-.69-.13-.21-.08-.39-.18-.55-.32-.16-.13-.3-.29-.42-.46s-.22-.36-.3-.56-.14-.41-.18-.62c-.04-.21-.06-.42-.06-.63v-.99c0-.56-.13-.97-.4-1.22-.27-.25-.67-.38-1.22-.39v-.84c.55,0,.96-.13,1.22-.38,.27-.25,.4-.66,.4-1.22v-.99c0-.21,.02-.42,.05-.63,.03-.21,.09-.42,.16-.62s.17-.39,.28-.56c.11-.17,.25-.33,.42-.46,.16-.13,.35-.24,.56-.32,.21-.08,.45-.12,.72-.13l.12,.67c-.28,0-.5,.07-.67,.2-.17,.12-.29,.28-.37,.47-.08,.19-.14,.41-.16,.65s-.04,.48-.04,.72v.99c0,.47-.11,.88-.33,1.23-.21,.35-.55,.62-1,.8,.45,.18,.78,.44,1,.8,.21,.35,.32,.76,.33,1.22v.99c0,.24,.02,.48,.06,.72,.04,.24,.11,.46,.2,.65s.22,.35,.38,.47c.16,.12,.36,.19,.6,.2l-.12,.67Z"/>
    <path class="cls-6" d="M82.01,129.35l.08,.93c.23-.33,.51-.58,.85-.77s.71-.28,1.12-.28c.33,0,.63,.05,.9,.14,.27,.09,.5,.24,.69,.44s.34,.45,.44,.75c.1,.31,.15,.67,.15,1.09v4.01h-1.08v-3.98c0-.28-.03-.52-.09-.71s-.15-.35-.28-.47c-.12-.12-.27-.21-.45-.26-.18-.05-.38-.08-.61-.08-.36,0-.68,.09-.95,.27-.27,.18-.49,.42-.66,.71v4.53h-1.08v-6.31h.97Z"/>
    <path class="cls-6" d="M92.35,135.66c-.04-.08-.08-.18-.1-.31-.03-.12-.04-.25-.06-.38-.11,.11-.23,.21-.36,.31-.13,.1-.28,.18-.44,.26-.16,.07-.33,.13-.52,.17-.18,.04-.38,.06-.58,.06-.33,0-.64-.05-.91-.15-.27-.1-.5-.23-.69-.39s-.33-.36-.44-.59-.15-.47-.15-.74c0-.35,.07-.65,.21-.91,.14-.26,.33-.48,.59-.65s.56-.3,.91-.39c.36-.08,.75-.13,1.19-.13h1.18v-.5c0-.19-.04-.36-.1-.51-.07-.15-.17-.28-.3-.39-.13-.11-.29-.19-.47-.25s-.39-.09-.62-.09c-.21,0-.41,.03-.57,.08s-.31,.13-.43,.22c-.12,.09-.21,.2-.27,.32-.06,.12-.1,.25-.1,.38h-1.08c0-.23,.06-.45,.18-.68s.28-.42,.5-.6,.48-.32,.79-.43c.31-.11,.66-.16,1.05-.16,.36,0,.69,.04,1,.13s.57,.22,.8,.4,.4,.4,.53,.66c.13,.26,.19,.57,.19,.93v2.93c0,.21,.02,.43,.06,.67,.04,.23,.09,.44,.16,.61v.09h-1.13Zm-1.91-.82c.21,0,.41-.03,.59-.08,.18-.05,.35-.13,.5-.22,.15-.09,.28-.19,.39-.31s.19-.23,.26-.36v-1.28h-1c-.63,0-1.12,.09-1.47,.28-.35,.19-.52,.48-.52,.88,0,.16,.03,.3,.08,.43,.05,.13,.13,.25,.24,.34,.1,.09,.24,.17,.4,.22,.16,.05,.34,.08,.55,.08Z"/>
    <path class="cls-6" d="M95.87,129.35l.03,.59c.13-.22,.3-.39,.5-.52,.21-.12,.46-.19,.75-.19,.58,0,.97,.23,1.16,.68,.12-.2,.29-.36,.49-.49,.2-.12,.45-.19,.74-.19,.46,0,.82,.14,1.07,.43,.25,.28,.37,.71,.37,1.29v4.71h-1.03v-4.72c0-.53-.24-.79-.73-.79-.13,0-.24,.02-.33,.05s-.17,.08-.23,.14-.11,.13-.15,.21c-.04,.08-.06,.16-.07,.25v4.86h-1.03v-4.73c0-.25-.06-.45-.17-.58s-.29-.2-.54-.2c-.23,0-.4,.04-.52,.13-.12,.09-.22,.21-.27,.36v5.02h-1.03v-6.31h.97Z"/>
    <path class="cls-6" d="M105.33,135.78c-.44,0-.85-.08-1.22-.23-.37-.15-.69-.36-.95-.64-.26-.27-.47-.59-.62-.97-.15-.37-.22-.78-.22-1.22v-.24c0-.51,.08-.97,.25-1.37,.16-.4,.38-.74,.65-1.02,.27-.28,.58-.49,.92-.64,.34-.15,.7-.22,1.06-.22,.45,0,.85,.08,1.19,.24,.34,.16,.62,.38,.85,.65,.23,.28,.39,.61,.5,.98,.11,.38,.17,.79,.17,1.22v.48h-4.51c.01,.29,.07,.56,.17,.81s.23,.47,.41,.66c.17,.19,.38,.34,.62,.45,.24,.11,.51,.16,.8,.16,.38,0,.73-.08,1.03-.23,.3-.16,.55-.36,.75-.62l.66,.51c-.1,.16-.24,.31-.39,.46-.16,.15-.34,.28-.54,.39-.21,.11-.44,.2-.7,.27-.26,.07-.54,.1-.85,.1Zm-.14-5.66c-.22,0-.42,.04-.62,.12-.19,.08-.37,.2-.52,.35-.16,.15-.29,.34-.39,.57s-.18,.48-.22,.77h3.39v-.08c-.01-.21-.05-.42-.12-.62-.07-.21-.17-.39-.3-.55-.13-.16-.3-.3-.5-.4-.2-.1-.44-.15-.71-.15Z"/>
    <path class="cls-6" d="M85.13,149.12c-.21,.31-.47,.55-.79,.73s-.68,.26-1.09,.26c-.33,0-.63-.05-.9-.15-.27-.1-.5-.26-.69-.48s-.34-.5-.44-.83c-.1-.34-.15-.74-.15-1.21v-3.75h1.08v3.76c0,.34,.03,.63,.08,.85,.05,.23,.14,.41,.25,.54,.11,.13,.24,.23,.4,.28,.16,.05,.34,.08,.54,.08,.44,0,.79-.09,1.06-.27,.27-.18,.47-.42,.6-.72v-4.53h1.08v6.31h-.98l-.06-.87Z"/>
    <path class="cls-6" d="M92.34,143.57c.1,0,.21,0,.31,0s.21,.02,.31,.03,.19,.03,.27,.05c.08,.02,.15,.04,.21,.06l-.15,1.06c-.21-.05-.41-.08-.6-.1-.19-.02-.39-.03-.59-.03-.51,0-.91,.11-1.23,.34s-.54,.55-.69,.96v4.05h-1.08v-6.31h1.03l.05,1c.26-.35,.56-.62,.92-.82s.77-.3,1.23-.3Z"/>
    <path class="cls-6" d="M95.54,141.04h3.22v8.02h2.06v.93h-5.28v-.93h2.15v-7.08h-2.15v-.94Z"/>
    <path class="cls-6" d="M67.58,165.79c.24,0,.44-.07,.59-.2,.16-.12,.29-.28,.38-.48,.1-.19,.16-.41,.2-.65,.04-.24,.06-.48,.06-.72v-.99c0-.46,.11-.87,.32-1.22s.55-.62,1-.8c-.45-.18-.78-.45-1-.8s-.32-.76-.32-1.23v-.99c0-.24-.01-.48-.04-.72-.03-.24-.08-.46-.16-.65-.08-.19-.21-.35-.37-.48-.16-.12-.39-.19-.67-.2l.12-.67c.27,0,.51,.05,.72,.13,.21,.08,.4,.18,.56,.31,.16,.13,.3,.29,.42,.46s.21,.36,.28,.56c.07,.2,.13,.41,.16,.62,.03,.21,.05,.42,.05,.63v.99c0,.56,.13,.97,.4,1.22,.27,.25,.67,.38,1.22,.38v.85c-.54,0-.95,.13-1.22,.38-.27,.25-.4,.66-.4,1.22v.99c0,.31-.04,.62-.13,.94-.09,.32-.22,.61-.4,.87-.18,.26-.41,.47-.69,.64-.28,.17-.6,.25-.99,.26l-.12-.67Z"/>
    <path class="cls-3" d="M53.24,180.12c.24,0,.44-.07,.59-.2,.16-.12,.29-.28,.38-.48,.1-.19,.16-.41,.2-.65,.04-.24,.06-.48,.06-.72v-.99c0-.46,.11-.87,.32-1.22s.55-.62,1-.8c-.45-.18-.78-.45-1-.8s-.32-.76-.32-1.23v-.99c0-.24-.01-.48-.04-.72-.03-.24-.08-.46-.16-.65-.08-.19-.21-.35-.37-.48-.16-.12-.39-.19-.67-.2l.12-.67c.27,0,.51,.05,.72,.13,.21,.08,.4,.18,.56,.31,.16,.13,.3,.29,.42,.46s.21,.36,.28,.56c.07,.2,.13,.41,.16,.62,.03,.21,.05,.42,.05,.63v.99c0,.56,.13,.97,.4,1.22,.27,.25,.67,.38,1.22,.38v.85c-.54,0-.95,.13-1.22,.38-.27,.25-.4,.66-.4,1.22v.99c0,.31-.04,.62-.13,.94-.09,.32-.22,.61-.4,.87-.18,.26-.41,.47-.69,.64-.28,.17-.6,.25-.99,.26l-.12-.67Z"/>
    <path class="cls-3" d="M38.91,194.45c.24,0,.44-.07,.59-.2,.16-.12,.29-.28,.38-.48,.1-.19,.16-.41,.2-.65,.04-.24,.06-.48,.06-.72v-.99c0-.46,.11-.87,.32-1.22s.55-.62,1-.8c-.45-.18-.78-.45-1-.8s-.32-.76-.32-1.23v-.99c0-.24-.01-.48-.04-.72-.03-.24-.08-.46-.16-.65-.08-.19-.21-.35-.37-.48-.16-.12-.39-.19-.67-.2l.12-.67c.27,0,.51,.05,.72,.13,.21,.08,.4,.18,.56,.31,.16,.13,.3,.29,.42,.46s.21,.36,.28,.56c.07,.2,.13,.41,.16,.62,.03,.21,.05,.42,.05,.63v.99c0,.56,.13,.97,.4,1.22,.27,.25,.67,.38,1.22,.38v.85c-.54,0-.95,.13-1.22,.38-.27,.25-.4,.66-.4,1.22v.99c0,.31-.04,.62-.13,.94-.09,.32-.22,.61-.4,.87-.18,.26-.41,.47-.69,.64-.28,.17-.6,.25-.99,.26l-.12-.67Z"/>
    <path class="cls-3" d="M24.58,208.78c.24,0,.44-.07,.59-.2,.16-.12,.29-.28,.38-.48,.1-.19,.16-.41,.2-.65,.04-.24,.06-.48,.06-.72v-.99c0-.46,.11-.87,.32-1.22s.55-.62,1-.8c-.45-.18-.78-.45-1-.8s-.32-.76-.32-1.23v-.99c0-.24-.01-.48-.04-.72-.03-.24-.08-.46-.16-.65-.08-.19-.21-.35-.37-.48-.16-.12-.39-.19-.67-.2l.12-.67c.27,0,.51,.05,.72,.13,.21,.08,.4,.18,.56,.31,.16,.13,.3,.29,.42,.46s.21,.36,.28,.56c.07,.2,.13,.41,.16,.62,.03,.21,.05,.42,.05,.63v.99c0,.56,.13,.97,.4,1.22,.27,.25,.67,.38,1.22,.38v.85c-.54,0-.95,.13-1.22,.38-.27,.25-.4,.66-.4,1.22v.99c0,.31-.04,.62-.13,.94-.09,.32-.22,.61-.4,.87-.18,.26-.41,.47-.69,.64-.28,.17-.6,.25-.99,.26l-.12-.67Z"/>
  </g>
  <text class="cls-7" transform="translate(480.04 19.53)"><tspan class="cls-1" x="0" y="0">F</tspan><tspan class="cls-8" x="5.14" y="0">AIL</tspan></text>
</svg>