<?xml version="1.0" encoding="UTF-8"?>
<svg id="Layer_1" data-name="Layer 1" xmlns="http://www.w3.org/2000/svg" viewBox="0 0 522.07 208.56">
  <defs>
    <style>
      .cls-1 {
        fill: #008938;
      }

      .cls-2 {
        fill: #fff;
      }

      .cls-3 {
        fill: #e52421;
      }
    </style>
  </defs>
  <rect class="cls-1" x="152.71" y="25.62" width="369.36" height="3.37"/>
  <rect class="cls-1" x="186.39" y="66.04" width="168.4" height="3.37"/>
  <rect class="cls-3" x="346.94" y="114.32" width="175.14" height="3.37"/>
  <g>
    <path class="cls-2" d="M160.05,6.06c0,.89-.14,1.67-.43,2.33s-.69,1.19-1.2,1.59l1.59,1.25-1.26,1.11-2.04-1.64c-.23,.04-.47,.06-.72,.06-.79,0-1.5-.19-2.12-.57-.62-.38-1.1-.93-1.45-1.63-.34-.71-.52-1.52-.52-2.44v-.47c0-.94,.17-1.77,.51-2.49,.34-.72,.82-1.27,1.44-1.65s1.33-.58,2.13-.58,1.51,.19,2.13,.58,1.1,.93,1.44,1.65c.34,.72,.51,1.54,.51,2.48v.43Zm-2-.43c0-1-.18-1.77-.54-2.29-.36-.52-.87-.78-1.54-.78s-1.17,.26-1.53,.77c-.36,.52-.54,1.27-.55,2.27v.47c0,.98,.18,1.74,.54,2.28,.36,.54,.88,.81,1.55,.81s1.17-.26,1.53-.78c.35-.52,.54-1.28,.54-2.27v-.47Z"/>
    <path class="cls-2" d="M165.64,9.91c-.47,.57-1.12,.85-1.95,.85-.76,0-1.35-.22-1.75-.66s-.61-1.08-.62-1.93V3.51h1.9v4.6c0,.74,.34,1.11,1.01,1.11s1.09-.22,1.33-.67V3.51h1.91v7.12h-1.79l-.05-.72Z"/>
    <path class="cls-2" d="M172.19,10.76c-1.04,0-1.89-.32-2.55-.96-.66-.64-.98-1.49-.98-2.56v-.18c0-.71,.14-1.35,.41-1.92,.28-.56,.67-1,1.17-1.3,.51-.3,1.08-.46,1.73-.46,.97,0,1.74,.31,2.3,.92,.56,.61,.84,1.48,.84,2.61v.78h-4.53c.06,.46,.25,.84,.56,1.12,.31,.28,.7,.42,1.17,.42,.73,0,1.3-.27,1.72-.8l.93,1.05c-.29,.4-.67,.72-1.16,.94-.49,.23-1.03,.34-1.62,.34Zm-.22-5.85c-.38,0-.68,.13-.92,.38-.23,.26-.39,.62-.45,1.1h2.64v-.15c0-.42-.12-.75-.34-.98s-.53-.35-.93-.35Z"/>
    <path class="cls-2" d="M180.2,5.3c-.26-.04-.49-.05-.68-.05-.72,0-1.19,.24-1.41,.73v4.66h-1.9V3.51h1.8l.05,.85c.38-.65,.91-.98,1.59-.98,.21,0,.41,.03,.59,.09l-.03,1.83Z"/>
    <path class="cls-2" d="M183.89,7.94l1.32-4.43h2.04l-2.86,8.22-.16,.38c-.43,.93-1.13,1.39-2.1,1.39-.28,0-.56-.04-.84-.12v-1.44h.29c.36,0,.63-.05,.81-.16,.18-.11,.32-.29,.42-.55l.22-.59-2.49-7.14h2.05l1.32,4.43Z"/>
    <path class="cls-2" d="M197.75,7.14c0,1.1-.25,1.97-.75,2.63-.5,.66-1.17,.99-2.02,.99-.72,0-1.3-.25-1.74-.75v3.35h-1.9V3.51h1.76l.07,.7c.46-.55,1.06-.83,1.8-.83,.88,0,1.56,.32,2.05,.97,.49,.65,.73,1.54,.73,2.68v.1Zm-1.9-.14c0-.66-.12-1.17-.35-1.53-.23-.36-.58-.54-1.02-.54-.6,0-1.01,.23-1.23,.68v2.91c.23,.47,.65,.7,1.24,.7,.91,0,1.36-.74,1.36-2.23Z"/>
    <path class="cls-2" d="M203.06,10.63c-.09-.17-.15-.38-.19-.64-.46,.51-1.06,.77-1.8,.77-.7,0-1.28-.2-1.73-.6-.46-.4-.69-.91-.69-1.53,0-.75,.28-1.33,.84-1.74s1.37-.61,2.42-.61h.88v-.41c0-.33-.08-.59-.25-.79-.17-.2-.44-.3-.8-.3-.32,0-.57,.08-.75,.23-.18,.15-.27,.36-.27,.63h-1.9c0-.41,.13-.79,.38-1.15,.25-.35,.61-.63,1.08-.83,.46-.2,.99-.3,1.57-.3,.88,0,1.57,.22,2.09,.66,.52,.44,.77,1.06,.77,1.86v3.09c0,.68,.1,1.19,.28,1.53v.11h-1.92Zm-1.57-1.32c.28,0,.54-.06,.78-.19s.41-.29,.53-.5v-1.22h-.71c-.95,0-1.46,.33-1.52,.99v.11c0,.24,.08,.43,.24,.59,.17,.15,.39,.23,.68,.23Z"/>
    <path class="cls-2" d="M208.43,1.76v1.75h1.22v1.39h-1.22v3.55c0,.26,.05,.45,.15,.57,.1,.11,.29,.17,.58,.17,.21,0,.4-.02,.56-.05v1.44c-.37,.11-.76,.17-1.15,.17-1.33,0-2.01-.67-2.04-2.02v-3.83h-1.04v-1.39h1.04V1.76h1.9Z"/>
    <path class="cls-2" d="M210.69,1.67c0-.29,.1-.52,.29-.7,.19-.18,.45-.28,.78-.28s.58,.09,.78,.28c.19,.18,.29,.42,.29,.7s-.1,.53-.29,.71c-.2,.18-.45,.28-.77,.28s-.58-.09-.77-.28-.29-.42-.29-.71Zm2.02,8.96h-1.91V3.51h1.91v7.12Z"/>
    <path class="cls-2" d="M217.55,10.76c-1.04,0-1.89-.32-2.55-.96-.66-.64-.98-1.49-.98-2.56v-.18c0-.71,.14-1.35,.41-1.92,.28-.56,.67-1,1.17-1.3,.51-.3,1.08-.46,1.73-.46,.97,0,1.74,.31,2.3,.92,.56,.61,.84,1.48,.84,2.61v.78h-4.53c.06,.46,.25,.84,.56,1.12,.31,.28,.7,.42,1.17,.42,.73,0,1.3-.27,1.72-.8l.93,1.05c-.29,.4-.67,.72-1.16,.94-.49,.23-1.03,.34-1.62,.34Zm-.22-5.85c-.38,0-.68,.13-.92,.38-.23,.26-.39,.62-.45,1.1h2.64v-.15c0-.42-.12-.75-.34-.98s-.53-.35-.93-.35Z"/>
    <path class="cls-2" d="M223.31,3.51l.06,.82c.51-.64,1.19-.95,2.05-.95,.75,0,1.32,.22,1.68,.66,.37,.44,.56,1.11,.57,1.99v4.6h-1.9V6.08c0-.4-.09-.7-.26-.88-.18-.18-.47-.27-.88-.27-.53,0-.94,.23-1.2,.68v5.02h-1.9V3.51h1.79Z"/>
    <path class="cls-2" d="M231.38,1.76v1.75h1.22v1.39h-1.22v3.55c0,.26,.05,.45,.15,.57,.1,.11,.29,.17,.58,.17,.21,0,.4-.02,.56-.05v1.44c-.37,.11-.76,.17-1.15,.17-1.33,0-2.01-.67-2.04-2.02v-3.83h-1.04v-1.39h1.04V1.76h1.9Z"/>
    <path class="cls-2" d="M237.51,8.66c0-.23-.12-.42-.35-.55-.23-.13-.6-.25-1.11-.36-1.69-.36-2.54-1.07-2.54-2.16,0-.63,.26-1.16,.79-1.58,.52-.42,1.21-.63,2.06-.63,.9,0,1.63,.21,2.17,.64,.54,.43,.81,.98,.81,1.66h-1.9c0-.27-.09-.5-.26-.67-.18-.18-.45-.27-.82-.27-.32,0-.57,.07-.74,.22-.18,.15-.26,.33-.26,.55,0,.21,.1,.38,.3,.51,.2,.13,.54,.24,1.01,.34,.47,.09,.87,.2,1.2,.32,1,.37,1.51,1.01,1.51,1.91,0,.65-.28,1.17-.84,1.58-.56,.4-1.28,.6-2.16,.6-.6,0-1.13-.11-1.59-.32-.46-.21-.83-.5-1.09-.88s-.4-.77-.4-1.2h1.8c.02,.34,.14,.6,.38,.78,.23,.18,.54,.27,.93,.27,.36,0,.64-.07,.83-.21,.19-.14,.28-.32,.28-.54Z"/>
    <path class="cls-2" d="M240.67,6.74c0-1,.13-1.96,.4-2.87,.27-.91,.66-1.71,1.18-2.41,.52-.7,1.09-1.19,1.7-1.46l.37,1.03c-.64,.47-1.14,1.21-1.5,2.2-.36,.99-.54,2.15-.54,3.47v.2c0,1.33,.18,2.49,.53,3.49,.36,1,.86,1.74,1.51,2.23l-.37,1.01c-.6-.27-1.15-.74-1.67-1.42-.52-.68-.91-1.46-1.18-2.35s-.42-1.81-.43-2.78v-.35Z"/>
    <path class="cls-2" d="M248.59,6.89c0,.99-.14,1.95-.43,2.86s-.7,1.73-1.23,2.43c-.54,.7-1.11,1.18-1.72,1.45l-.37-1.01c.62-.47,1.11-1.19,1.47-2.17,.36-.98,.55-2.1,.56-3.37v-.35c0-1.31-.18-2.47-.54-3.47-.36-1-.86-1.75-1.5-2.25l.37-1.01c.6,.26,1.16,.73,1.69,1.41s.94,1.47,1.23,2.37c.29,.9,.44,1.84,.46,2.81v.3Z"/>
  </g>
  <g>
    <path class="cls-2" d="M194.89,53.92c0,1.1-.25,1.97-.75,2.63-.5,.66-1.17,.99-2.02,.99-.72,0-1.3-.25-1.74-.75v3.35h-1.9v-9.85h1.76l.07,.7c.46-.55,1.06-.83,1.8-.83,.88,0,1.56,.32,2.05,.97,.49,.65,.73,1.54,.73,2.68v.1Zm-1.9-.14c0-.66-.12-1.17-.35-1.53-.23-.36-.58-.54-1.02-.54-.6,0-1.01,.23-1.23,.68v2.91c.23,.47,.65,.7,1.24,.7,.91,0,1.36-.74,1.36-2.23Z"/>
    <path class="cls-2" d="M200.2,57.41c-.09-.17-.15-.38-.19-.64-.46,.51-1.06,.77-1.8,.77-.7,0-1.28-.2-1.73-.6-.46-.4-.69-.91-.69-1.53,0-.75,.28-1.33,.84-1.74s1.37-.61,2.42-.61h.88v-.41c0-.33-.08-.59-.25-.79-.17-.2-.44-.3-.8-.3-.32,0-.57,.08-.75,.23-.18,.15-.27,.36-.27,.63h-1.9c0-.41,.13-.79,.38-1.15,.25-.35,.61-.63,1.08-.83,.46-.2,.99-.3,1.57-.3,.88,0,1.57,.22,2.09,.66,.52,.44,.77,1.06,.77,1.86v3.09c0,.68,.1,1.19,.28,1.53v.11h-1.92Zm-1.57-1.32c.28,0,.54-.06,.78-.19s.41-.29,.53-.5v-1.22h-.71c-.95,0-1.46,.33-1.52,.99v.11c0,.24,.08,.43,.24,.59,.17,.15,.39,.23,.68,.23Z"/>
    <path class="cls-2" d="M205.57,48.54v1.75h1.22v1.39h-1.22v3.55c0,.26,.05,.45,.15,.57,.1,.11,.29,.17,.58,.17,.21,0,.4-.02,.56-.05v1.44c-.37,.11-.76,.17-1.15,.17-1.33,0-2.01-.67-2.04-2.02v-3.83h-1.04v-1.39h1.04v-1.75h1.9Z"/>
    <path class="cls-2" d="M207.83,48.45c0-.29,.1-.52,.29-.7,.19-.18,.45-.28,.78-.28s.58,.09,.78,.28c.19,.18,.29,.42,.29,.7s-.1,.53-.29,.71c-.2,.18-.45,.28-.77,.28s-.58-.09-.77-.28-.29-.42-.29-.71Zm2.02,8.96h-1.91v-7.12h1.91v7.12Z"/>
    <path class="cls-2" d="M214.69,57.54c-1.04,0-1.89-.32-2.55-.96-.66-.64-.98-1.49-.98-2.56v-.18c0-.71,.14-1.35,.41-1.92,.28-.56,.67-1,1.17-1.3,.51-.3,1.08-.46,1.73-.46,.97,0,1.74,.31,2.3,.92,.56,.61,.84,1.48,.84,2.61v.78h-4.53c.06,.46,.25,.84,.56,1.12,.31,.28,.7,.42,1.17,.42,.73,0,1.3-.27,1.72-.8l.93,1.05c-.29,.4-.67,.72-1.16,.94-.49,.23-1.03,.34-1.62,.34Zm-.22-5.85c-.38,0-.68,.13-.92,.38-.23,.26-.39,.62-.45,1.1h2.64v-.15c0-.42-.12-.75-.34-.98s-.53-.35-.93-.35Z"/>
    <path class="cls-2" d="M220.45,50.29l.06,.82c.51-.64,1.19-.95,2.05-.95,.75,0,1.32,.22,1.68,.66,.37,.44,.56,1.11,.57,1.99v4.6h-1.9v-4.55c0-.4-.09-.7-.26-.88-.18-.18-.47-.27-.88-.27-.53,0-.94,.23-1.2,.68v5.02h-1.9v-7.12h1.79Z"/>
    <path class="cls-2" d="M228.52,48.54v1.75h1.22v1.39h-1.22v3.55c0,.26,.05,.45,.15,.57,.1,.11,.29,.17,.58,.17,.21,0,.4-.02,.56-.05v1.44c-.37,.11-.76,.17-1.15,.17-1.33,0-2.01-.67-2.04-2.02v-3.83h-1.04v-1.39h1.04v-1.75h1.9Z"/>
    <path class="cls-2" d="M230.9,56.48c0-.3,.1-.55,.31-.74s.46-.28,.77-.28,.57,.09,.77,.28c.2,.19,.31,.43,.31,.74s-.1,.54-.3,.73c-.2,.19-.46,.28-.78,.28s-.57-.09-.77-.28c-.2-.19-.3-.43-.3-.73Z"/>
    <path class="cls-2" d="M234.42,53.8c0-1.11,.25-1.99,.75-2.65,.5-.66,1.18-.99,2.04-.99,.69,0,1.27,.26,1.72,.78v-3.63h1.91v10.1h-1.72l-.09-.76c-.47,.59-1.08,.89-1.83,.89-.84,0-1.51-.33-2.02-.99-.51-.66-.76-1.58-.76-2.75Zm1.9,.14c0,.67,.12,1.18,.35,1.53,.23,.36,.57,.53,1.01,.53,.59,0,1-.25,1.24-.74v-2.81c-.24-.5-.65-.74-1.23-.74-.92,0-1.37,.74-1.37,2.23Z"/>
    <path class="cls-2" d="M242.01,53.79c0-.71,.14-1.34,.41-1.89,.27-.55,.66-.98,1.17-1.28s1.1-.45,1.78-.45c.96,0,1.74,.29,2.35,.88s.95,1.39,1.02,2.39v.49c.01,1.09-.29,1.97-.9,2.63-.61,.66-1.43,.99-2.45,.99s-1.85-.33-2.46-.99c-.61-.66-.92-1.55-.92-2.68v-.09Zm1.9,.13c0,.68,.13,1.19,.38,1.55s.62,.54,1.09,.54,.82-.18,1.08-.53,.39-.92,.39-1.7c0-.66-.13-1.18-.39-1.54-.26-.36-.62-.55-1.09-.55s-.82,.18-1.08,.54-.38,.92-.38,1.68Z"/>
    <path class="cls-2" d="M252.88,56.01c.35,0,.64-.1,.86-.29,.22-.19,.33-.45,.34-.77h1.78c0,.48-.14,.92-.39,1.33s-.61,.71-1.06,.93c-.45,.22-.95,.33-1.49,.33-1.02,0-1.82-.32-2.41-.97-.59-.65-.88-1.54-.88-2.68v-.12c0-1.1,.29-1.97,.87-2.62,.58-.65,1.38-.98,2.4-.98,.89,0,1.6,.25,2.14,.76,.54,.51,.81,1.18,.82,2.02h-1.78c0-.37-.12-.67-.34-.9-.22-.23-.51-.35-.87-.35-.44,0-.78,.16-1,.48-.23,.32-.34,.85-.34,1.57v.2c0,.73,.11,1.26,.34,1.58,.22,.32,.56,.48,1.02,.48Z"/>
    <path class="cls-2" d="M261.21,56.69c-.47,.57-1.12,.85-1.95,.85-.76,0-1.35-.22-1.75-.66s-.61-1.08-.61-1.93v-4.66h1.9v4.6c0,.74,.34,1.11,1.01,1.11s1.09-.22,1.33-.67v-5.04h1.91v7.12h-1.79l-.05-.72Z"/>
    <path class="cls-2" d="M266.27,50.29l.06,.8c.5-.62,1.19-.93,2.05-.93,.92,0,1.55,.36,1.89,1.09,.5-.72,1.21-1.09,2.14-1.09,.77,0,1.35,.22,1.72,.67,.38,.45,.57,1.13,.57,2.03v4.55h-1.91v-4.54c0-.4-.08-.7-.24-.88-.16-.19-.44-.28-.83-.28-.57,0-.96,.27-1.18,.82v4.89s-1.89,0-1.89,0v-4.53c0-.41-.08-.71-.24-.9-.16-.18-.44-.28-.83-.28-.54,0-.93,.22-1.17,.67v5.03h-1.9v-7.12h1.78Z"/>
    <path class="cls-2" d="M279.42,57.54c-1.04,0-1.89-.32-2.55-.96-.66-.64-.98-1.49-.98-2.56v-.18c0-.71,.14-1.35,.41-1.92,.28-.56,.67-1,1.17-1.3,.51-.3,1.08-.46,1.73-.46,.97,0,1.74,.31,2.3,.92,.56,.61,.84,1.48,.84,2.61v.78h-4.53c.06,.46,.25,.84,.56,1.12,.31,.28,.7,.42,1.17,.42,.73,0,1.3-.27,1.72-.8l.93,1.05c-.29,.4-.67,.72-1.16,.94-.49,.23-1.03,.34-1.62,.34Zm-.22-5.85c-.38,0-.68,.13-.92,.38-.23,.26-.38,.62-.45,1.1h2.64v-.15c0-.42-.12-.75-.34-.98-.22-.23-.53-.35-.93-.35Z"/>
    <path class="cls-2" d="M285.18,50.29l.06,.82c.51-.64,1.19-.95,2.05-.95,.75,0,1.32,.22,1.68,.66,.37,.44,.56,1.11,.57,1.99v4.6h-1.9v-4.55c0-.4-.09-.7-.26-.88-.18-.18-.47-.27-.88-.27-.54,0-.94,.23-1.2,.68v5.02h-1.9v-7.12h1.79Z"/>
    <path class="cls-2" d="M293.25,48.54v1.75h1.22v1.39h-1.22v3.55c0,.26,.05,.45,.15,.57,.1,.11,.29,.17,.58,.17,.21,0,.4-.02,.56-.05v1.44c-.37,.11-.76,.17-1.15,.17-1.33,0-2.01-.67-2.04-2.02v-3.83h-1.04v-1.39h1.04v-1.75h1.9Z"/>
    <path class="cls-2" d="M299.38,55.44c0-.23-.12-.42-.35-.55-.23-.13-.6-.25-1.11-.36-1.69-.36-2.54-1.07-2.54-2.16,0-.63,.26-1.16,.79-1.58,.52-.42,1.21-.63,2.06-.63,.9,0,1.63,.21,2.17,.64,.54,.43,.81,.98,.81,1.66h-1.9c0-.27-.09-.5-.26-.67-.18-.18-.45-.27-.82-.27-.32,0-.57,.07-.74,.22-.17,.15-.26,.33-.26,.55,0,.21,.1,.38,.3,.51,.2,.13,.54,.24,1.01,.34,.47,.09,.87,.2,1.2,.32,1,.37,1.51,1.01,1.51,1.91,0,.65-.28,1.17-.84,1.58-.56,.4-1.28,.6-2.16,.6-.6,0-1.13-.11-1.59-.32-.46-.21-.83-.5-1.09-.88-.26-.37-.39-.77-.39-1.2h1.8c.02,.34,.14,.6,.38,.78,.23,.18,.54,.27,.93,.27,.36,0,.64-.07,.83-.21s.28-.32,.28-.54Z"/>
    <path class="cls-2" d="M302.54,53.52c0-1,.13-1.96,.4-2.87,.27-.91,.66-1.71,1.18-2.41,.52-.7,1.09-1.19,1.7-1.46l.37,1.03c-.64,.47-1.14,1.21-1.5,2.2-.36,.99-.54,2.15-.54,3.47v.2c0,1.33,.18,2.49,.53,3.49,.36,1,.86,1.74,1.51,2.23l-.37,1.01c-.6-.27-1.15-.74-1.67-1.42-.52-.68-.91-1.46-1.18-2.35-.27-.89-.42-1.81-.43-2.78v-.35Z"/>
    <path class="cls-2" d="M310.46,53.67c0,.99-.14,1.95-.43,2.86s-.69,1.73-1.23,2.43-1.11,1.18-1.72,1.45l-.37-1.01c.62-.47,1.11-1.19,1.47-2.17,.36-.98,.55-2.1,.56-3.37v-.35c0-1.31-.18-2.47-.54-3.47-.36-1-.86-1.75-1.5-2.25l.37-1.01c.6,.26,1.16,.73,1.69,1.41,.53,.68,.94,1.47,1.23,2.37,.29,.9,.44,1.84,.46,2.81v.3Z"/>
  </g>
  <g>
    <path class="cls-2" d="M346.53,101.71c0-1.11,.25-1.99,.75-2.65,.5-.66,1.18-.99,2.04-.99,.69,0,1.26,.26,1.72,.78v-3.63h1.91v10.1h-1.72l-.09-.76c-.47,.59-1.08,.89-1.83,.89-.84,0-1.51-.33-2.02-.99-.51-.66-.76-1.58-.76-2.75Zm1.9,.14c0,.67,.12,1.18,.35,1.53,.23,.36,.57,.53,1.01,.53,.59,0,1-.25,1.24-.74v-2.81c-.24-.5-.65-.74-1.23-.74-.92,0-1.38,.74-1.38,2.23Z"/>
    <path class="cls-2" d="M354.12,101.7c0-.71,.14-1.34,.41-1.89,.27-.55,.66-.98,1.17-1.28,.51-.3,1.1-.45,1.78-.45,.96,0,1.74,.29,2.35,.88s.95,1.39,1.02,2.39v.49c.01,1.09-.29,1.97-.9,2.63s-1.43,.99-2.45,.99-1.84-.33-2.46-.99c-.61-.66-.92-1.55-.92-2.68v-.09Zm1.9,.13c0,.68,.13,1.19,.38,1.55s.62,.54,1.09,.54,.82-.18,1.08-.53,.39-.92,.39-1.7c0-.66-.13-1.18-.39-1.54-.26-.36-.62-.55-1.09-.55s-.83,.18-1.08,.54-.38,.92-.38,1.68Z"/>
    <path class="cls-2" d="M364.99,103.92c.35,0,.64-.1,.86-.29,.22-.19,.33-.45,.34-.77h1.78c0,.48-.14,.92-.39,1.33s-.61,.71-1.06,.93c-.45,.22-.95,.33-1.49,.33-1.02,0-1.82-.32-2.41-.97-.59-.65-.88-1.54-.88-2.68v-.12c0-1.1,.29-1.97,.87-2.62,.58-.65,1.38-.98,2.4-.98,.89,0,1.6,.25,2.14,.76,.54,.51,.81,1.18,.82,2.02h-1.78c0-.37-.12-.67-.34-.9-.22-.23-.51-.35-.87-.35-.44,0-.78,.16-1,.48-.23,.32-.34,.85-.34,1.57v.2c0,.73,.11,1.26,.34,1.58,.22,.32,.56,.48,1.02,.48Z"/>
    <path class="cls-2" d="M373.32,104.6c-.47,.57-1.12,.85-1.95,.85-.76,0-1.35-.22-1.75-.66s-.61-1.08-.61-1.93v-4.66h1.9v4.6c0,.74,.34,1.11,1.01,1.11s1.09-.22,1.33-.67v-5.04h1.91v7.12h-1.79l-.05-.72Z"/>
    <path class="cls-2" d="M378.38,98.21l.06,.8c.5-.62,1.19-.93,2.05-.93,.92,0,1.55,.36,1.89,1.09,.5-.72,1.21-1.09,2.14-1.09,.77,0,1.35,.22,1.72,.67,.38,.45,.57,1.13,.57,2.03v4.55h-1.91v-4.54c0-.4-.08-.7-.24-.88-.16-.19-.44-.28-.83-.28-.57,0-.96,.27-1.18,.82v4.89s-1.89,0-1.89,0v-4.53c0-.41-.08-.71-.24-.9-.16-.18-.44-.28-.83-.28-.54,0-.93,.22-1.17,.67v5.03h-1.9v-7.12h1.78Z"/>
    <path class="cls-2" d="M391.54,105.46c-1.04,0-1.89-.32-2.55-.96-.66-.64-.98-1.49-.98-2.56v-.18c0-.71,.14-1.35,.41-1.92,.28-.56,.67-1,1.17-1.3,.51-.3,1.08-.46,1.73-.46,.97,0,1.74,.31,2.3,.92,.56,.61,.84,1.48,.84,2.61v.78h-4.53c.06,.46,.25,.84,.56,1.12,.31,.28,.7,.42,1.17,.42,.73,0,1.3-.27,1.72-.8l.93,1.05c-.29,.4-.67,.72-1.16,.94-.49,.23-1.03,.34-1.62,.34Zm-.22-5.85c-.38,0-.68,.13-.92,.38-.23,.26-.38,.62-.45,1.1h2.64v-.15c0-.42-.12-.75-.34-.98-.22-.23-.53-.35-.93-.35Z"/>
    <path class="cls-2" d="M397.29,98.21l.06,.82c.51-.64,1.19-.95,2.05-.95,.75,0,1.32,.22,1.68,.66,.37,.44,.56,1.11,.57,1.99v4.6h-1.9v-4.55c0-.4-.09-.7-.26-.88-.18-.18-.47-.27-.88-.27-.54,0-.94,.23-1.2,.68v5.02h-1.9v-7.12h1.79Z"/>
    <path class="cls-2" d="M405.36,96.46v1.75h1.22v1.39h-1.22v3.55c0,.26,.05,.45,.15,.57,.1,.11,.29,.17,.58,.17,.21,0,.4-.02,.56-.05v1.44c-.37,.11-.76,.17-1.15,.17-1.33,0-2.01-.67-2.04-2.02v-3.83h-1.04v-1.39h1.04v-1.75h1.9Z"/>
    <path class="cls-2" d="M407.74,104.39c0-.3,.1-.55,.31-.74s.46-.28,.77-.28,.57,.09,.77,.28,.31,.43,.31,.74-.1,.54-.3,.73c-.2,.19-.46,.28-.78,.28s-.57-.09-.77-.28c-.2-.19-.3-.43-.3-.73Z"/>
    <path class="cls-2" d="M411.54,96.37c0-.29,.1-.52,.29-.7,.19-.18,.45-.28,.78-.28s.58,.09,.78,.28c.19,.18,.29,.42,.29,.7s-.1,.53-.29,.71-.45,.28-.77,.28-.58-.09-.77-.28-.29-.42-.29-.71Zm2.02,8.96h-1.91v-7.12h1.91v7.12Z"/>
    <path class="cls-2" d="M416.91,98.21l.06,.8c.5-.62,1.19-.93,2.05-.93,.92,0,1.55,.36,1.89,1.09,.5-.72,1.21-1.09,2.14-1.09,.77,0,1.35,.22,1.72,.67,.38,.45,.57,1.13,.57,2.03v4.55h-1.91v-4.54c0-.4-.08-.7-.24-.88-.16-.19-.44-.28-.83-.28-.57,0-.96,.27-1.18,.82v4.89s-1.89,0-1.89,0v-4.53c0-.41-.08-.71-.24-.9-.16-.18-.44-.28-.83-.28-.54,0-.93,.22-1.17,.67v5.03h-1.9v-7.12h1.78Z"/>
    <path class="cls-2" d="M430.91,105.32c-.09-.17-.15-.38-.19-.64-.46,.51-1.06,.77-1.8,.77-.7,0-1.28-.2-1.73-.6s-.69-.91-.69-1.53c0-.75,.28-1.33,.84-1.74,.56-.4,1.37-.61,2.42-.61h.88v-.41c0-.33-.08-.59-.25-.79s-.44-.3-.8-.3c-.32,0-.57,.08-.75,.23-.18,.15-.27,.36-.27,.63h-1.9c0-.41,.13-.79,.38-1.15,.25-.35,.61-.63,1.08-.83,.46-.2,.99-.3,1.57-.3,.88,0,1.57,.22,2.09,.66,.52,.44,.77,1.06,.77,1.86v3.09c0,.68,.1,1.19,.28,1.53v.11h-1.92Zm-1.57-1.32c.28,0,.54-.06,.78-.19,.24-.12,.41-.29,.53-.5v-1.22h-.71c-.95,0-1.46,.33-1.52,.99v.11c0,.24,.08,.43,.24,.59,.17,.15,.39,.23,.68,.23Z"/>
    <path class="cls-2" d="M433.74,101.71c0-1.09,.26-1.97,.78-2.64,.52-.67,1.22-1,2.1-1,.78,0,1.39,.27,1.82,.8l.08-.67h1.72v6.88c0,.62-.14,1.16-.42,1.62-.28,.46-.68,.81-1.19,1.05-.51,.24-1.11,.36-1.8,.36-.52,0-1.03-.1-1.53-.31-.5-.21-.87-.48-1.12-.81l.84-1.16c.47,.53,1.05,.8,1.72,.8,.5,0,.9-.13,1.18-.4,.28-.27,.42-.65,.42-1.15v-.38c-.44,.5-1.01,.74-1.73,.74-.86,0-1.55-.33-2.08-1-.53-.67-.79-1.56-.79-2.66v-.08Zm1.9,.14c0,.65,.13,1.15,.39,1.52s.61,.55,1.07,.55c.58,0,.99-.22,1.24-.65v-3c-.25-.43-.66-.65-1.23-.65-.46,0-.82,.19-1.08,.56-.26,.37-.39,.93-.39,1.67Z"/>
    <path class="cls-2" d="M444.98,105.46c-1.04,0-1.89-.32-2.55-.96-.66-.64-.98-1.49-.98-2.56v-.18c0-.71,.14-1.35,.41-1.92,.28-.56,.67-1,1.17-1.3,.51-.3,1.08-.46,1.73-.46,.97,0,1.74,.31,2.3,.92,.56,.61,.84,1.48,.84,2.61v.78h-4.53c.06,.46,.25,.84,.56,1.12,.31,.28,.7,.42,1.17,.42,.73,0,1.3-.27,1.72-.8l.93,1.05c-.29,.4-.67,.72-1.16,.94-.49,.23-1.03,.34-1.62,.34Zm-.22-5.85c-.38,0-.68,.13-.92,.38-.23,.26-.38,.62-.45,1.1h2.64v-.15c0-.42-.12-.75-.34-.98-.22-.23-.53-.35-.93-.35Z"/>
    <path class="cls-2" d="M452.84,103.36c0-.23-.12-.42-.35-.55-.23-.13-.6-.25-1.11-.36-1.69-.36-2.54-1.07-2.54-2.16,0-.63,.26-1.16,.79-1.58,.52-.42,1.21-.63,2.06-.63,.9,0,1.63,.21,2.17,.64,.54,.43,.81,.98,.81,1.66h-1.9c0-.27-.09-.5-.26-.67-.18-.18-.45-.27-.82-.27-.32,0-.57,.07-.74,.22-.17,.15-.26,.33-.26,.55,0,.21,.1,.38,.3,.51,.2,.13,.54,.24,1.01,.34,.47,.09,.87,.2,1.2,.32,1,.37,1.51,1.01,1.51,1.91,0,.65-.28,1.17-.84,1.58-.56,.4-1.28,.6-2.16,.6-.6,0-1.13-.11-1.59-.32-.46-.21-.83-.5-1.09-.88-.26-.37-.39-.77-.39-1.2h1.8c.02,.34,.14,.6,.38,.78,.23,.18,.54,.27,.93,.27,.36,0,.64-.07,.83-.21s.28-.32,.28-.54Z"/>
    <path class="cls-2" d="M456,101.43c0-1,.13-1.96,.4-2.87,.27-.91,.66-1.71,1.18-2.41,.52-.7,1.09-1.19,1.7-1.46l.37,1.03c-.64,.47-1.14,1.21-1.5,2.2-.36,.99-.54,2.15-.54,3.47v.2c0,1.33,.18,2.49,.53,3.49,.36,1,.86,1.74,1.51,2.23l-.37,1.01c-.6-.27-1.15-.74-1.67-1.42-.52-.68-.91-1.46-1.18-2.35-.27-.89-.42-1.81-.43-2.78v-.35Z"/>
    <path class="cls-2" d="M463.92,101.58c0,.99-.14,1.95-.43,2.86s-.69,1.73-1.23,2.43-1.11,1.18-1.72,1.45l-.37-1.01c.62-.47,1.11-1.19,1.47-2.17,.36-.98,.55-2.1,.56-3.37v-.35c0-1.31-.18-2.47-.54-3.47-.36-1-.86-1.75-1.5-2.25l.37-1.01c.6,.26,1.16,.73,1.69,1.41,.53,.68,.94,1.47,1.23,2.37,.29,.9,.44,1.84,.46,2.81v.3Z"/>
  </g>
  <g>
    <path class="cls-2" d="M490.25,16.01h1.07l-.15,.83h-1.07l-.32,1.85h-1l.32-1.85h-3.53l.12-.65,4.39-5.48h1.08l-.92,5.3Zm-3.37,0h2.37l.71-3.92-.16,.23-2.92,3.69Z"/>
    <path class="cls-2" d="M494.31,18.8c-.67-.01-1.18-.25-1.51-.72-.34-.46-.49-1.13-.46-2,0-.27,.03-.54,.06-.8l.2-1.33c.17-1.14,.51-1.98,1-2.54s1.14-.83,1.95-.81c.68,.01,1.19,.25,1.52,.7,.33,.45,.49,1.11,.46,1.96-.01,.27-.03,.54-.07,.81l-.19,1.29c-.19,1.2-.54,2.08-1.02,2.64-.49,.56-1.14,.82-1.94,.81Zm2.2-4.91c.05-.44,.07-.79,.07-1.03-.02-.93-.38-1.41-1.08-1.43-.51-.02-.93,.17-1.24,.57-.32,.4-.54,1.02-.66,1.87l-.24,1.59c-.05,.42-.07,.77-.07,1.04,.02,.97,.38,1.47,1.08,1.49,.49,.02,.89-.16,1.2-.54,.32-.38,.54-.98,.68-1.81l.26-1.74Z"/>
    <path class="cls-2" d="M500.48,18.8c-.67-.01-1.18-.25-1.51-.72-.34-.46-.49-1.13-.46-2,0-.27,.03-.54,.06-.8l.2-1.33c.17-1.14,.51-1.98,1-2.54s1.14-.83,1.95-.81c.68,.01,1.19,.25,1.52,.7,.33,.45,.49,1.11,.46,1.96-.01,.27-.03,.54-.07,.81l-.19,1.29c-.19,1.2-.54,2.08-1.02,2.64-.49,.56-1.14,.82-1.94,.81Zm2.2-4.91c.05-.44,.07-.79,.07-1.03-.02-.93-.38-1.41-1.08-1.43-.51-.02-.93,.17-1.24,.57-.32,.4-.54,1.02-.66,1.87l-.24,1.59c-.05,.42-.07,.77-.07,1.04,.02,.97,.38,1.47,1.08,1.49,.49,.02,.89-.16,1.2-.54,.32-.38,.54-.98,.68-1.81l.26-1.74Z"/>
    <path class="cls-2" d="M506.19,12.76l-.13,.66c.5-.53,1.1-.78,1.8-.77,.38,0,.7,.09,.96,.26,.26,.16,.44,.4,.54,.7,.56-.65,1.21-.97,1.97-.95,.59,.01,1.03,.21,1.31,.6s.39,.9,.31,1.55l-.65,3.9h-.99l.65-3.91c.02-.19,.02-.36,0-.52-.07-.5-.39-.75-.98-.76-.36,0-.69,.1-.98,.34-.29,.23-.48,.54-.57,.91l-.67,3.94h-1l.66-3.9c.05-.41-.01-.72-.18-.94s-.43-.33-.79-.34c-.62-.01-1.11,.27-1.47,.84l-.75,4.34h-.99l1.03-5.93h.93Z"/>
    <path class="cls-2" d="M517.51,17.09c.05-.41-.17-.7-.67-.87l-1.03-.3c-.87-.3-1.29-.8-1.26-1.49,.03-.52,.26-.95,.72-1.29,.45-.33,.98-.5,1.59-.49,.6,0,1.09,.18,1.46,.52,.38,.34,.55,.79,.54,1.33h-.99c0-.3-.09-.54-.28-.73-.19-.19-.45-.28-.77-.29-.34,0-.64,.08-.89,.25-.23,.16-.36,.38-.4,.65-.05,.34,.16,.59,.63,.75l.5,.14c.68,.18,1.16,.4,1.45,.69s.42,.63,.39,1.05c-.02,.37-.14,.69-.36,.96-.22,.27-.51,.48-.88,.63-.37,.14-.75,.21-1.17,.2-.63,0-1.15-.19-1.56-.55-.41-.36-.61-.82-.59-1.39h.99c0,.34,.11,.6,.32,.81,.21,.2,.5,.3,.87,.3,.36,0,.67-.07,.94-.23,.26-.16,.41-.38,.45-.65Z"/>
  </g>
  <g>
    <path class="cls-2" d="M326.24,58.45h-5.08l.12-.77,2.94-2.86,.54-.53c.62-.62,.96-1.19,1.03-1.71,.05-.4-.03-.73-.24-.98-.2-.25-.49-.39-.87-.4-.48-.01-.88,.13-1.2,.42-.32,.29-.52,.7-.59,1.21h-.98c.05-.48,.2-.92,.45-1.3,.25-.38,.59-.67,1-.87,.42-.2,.87-.3,1.35-.29,.66,.01,1.19,.21,1.58,.6,.39,.39,.56,.89,.5,1.5-.06,.7-.47,1.44-1.21,2.21l-.5,.51-2.57,2.44h3.85l-.13,.83Z"/>
    <path class="cls-2" d="M329.79,58.56c-.67-.01-1.18-.25-1.51-.72-.34-.46-.49-1.13-.46-2,0-.27,.03-.54,.06-.8l.2-1.33c.17-1.14,.51-1.98,1-2.54s1.14-.83,1.95-.81c.68,.01,1.19,.25,1.52,.7,.33,.45,.49,1.11,.46,1.96-.01,.27-.03,.54-.07,.81l-.19,1.29c-.19,1.2-.54,2.08-1.02,2.64-.49,.56-1.14,.82-1.94,.81Zm2.2-4.91c.05-.44,.07-.79,.07-1.03-.02-.93-.38-1.41-1.08-1.43-.51-.02-.93,.17-1.24,.57-.32,.4-.54,1.02-.66,1.87l-.24,1.59c-.05,.42-.07,.77-.07,1.04,.02,.97,.38,1.47,1.08,1.49,.49,.02,.89-.16,1.2-.54,.32-.38,.54-.98,.68-1.81l.26-1.74Z"/>
    <path class="cls-2" d="M335.97,58.56c-.67-.01-1.18-.25-1.51-.72-.34-.46-.49-1.13-.46-2,0-.27,.03-.54,.06-.8l.2-1.33c.17-1.14,.51-1.98,1-2.54s1.14-.83,1.95-.81c.68,.01,1.19,.25,1.52,.7,.33,.45,.49,1.11,.46,1.96-.01,.27-.03,.54-.07,.81l-.19,1.29c-.19,1.2-.54,2.08-1.02,2.64-.49,.56-1.14,.82-1.94,.81Zm2.2-4.91c.05-.44,.07-.79,.07-1.03-.02-.93-.38-1.41-1.08-1.43-.51-.02-.93,.17-1.24,.57-.32,.4-.54,1.02-.66,1.87l-.24,1.59c-.05,.42-.07,.77-.07,1.04,.02,.97,.38,1.47,1.08,1.49,.49,.02,.89-.16,1.2-.54,.32-.38,.54-.98,.68-1.81l.26-1.74Z"/>
    <path class="cls-2" d="M341.68,52.52l-.13,.66c.5-.53,1.1-.78,1.8-.77,.38,0,.7,.09,.96,.26,.26,.16,.44,.4,.54,.7,.56-.65,1.21-.97,1.97-.95,.59,.01,1.03,.21,1.31,.6s.39,.9,.31,1.55l-.65,3.9h-.99l.65-3.91c.02-.19,.02-.36,0-.52-.07-.5-.39-.75-.98-.76-.36,0-.69,.1-.98,.34-.29,.23-.48,.54-.57,.91l-.67,3.94h-1l.66-3.9c.05-.41-.01-.72-.18-.94s-.43-.33-.79-.34c-.62-.01-1.11,.27-1.47,.84l-.75,4.34h-.99l1.03-5.93h.93Z"/>
    <path class="cls-2" d="M352.99,56.85c.05-.41-.17-.7-.67-.87l-1.03-.3c-.87-.3-1.29-.8-1.26-1.49,.03-.52,.26-.95,.72-1.29,.45-.33,.98-.5,1.59-.49,.6,0,1.09,.18,1.46,.52,.38,.34,.55,.79,.54,1.33h-.99c0-.3-.09-.54-.28-.73-.19-.19-.45-.28-.77-.29-.34,0-.64,.08-.89,.25-.23,.16-.36,.38-.4,.65-.05,.34,.16,.59,.63,.75l.5,.14c.68,.18,1.16,.4,1.45,.69s.42,.63,.39,1.05c-.02,.37-.14,.69-.36,.96-.22,.27-.51,.48-.88,.63-.37,.14-.75,.21-1.17,.2-.63,0-1.15-.19-1.56-.55-.41-.36-.61-.82-.59-1.39h.99c0,.34,.11,.6,.32,.81,.21,.2,.5,.3,.87,.3,.36,0,.67-.07,.94-.23,.26-.16,.41-.38,.45-.65Z"/>
  </g>
  <g>
    <path class="cls-3" d="M496.02,100.41h-3.16v3.26h-1.64v-7.98h5.2v1.33h-3.55v2.06h3.16v1.33Z"/>
    <path class="cls-3" d="M500.82,102.03h-2.88l-.55,1.64h-1.75l2.97-7.98h1.52l2.99,7.98h-1.75l-.55-1.64Zm-2.44-1.33h2l-1-2.99-.99,2.99Z"/>
    <path class="cls-3" d="M505.62,103.67h-1.64v-7.98h1.64v7.98Z"/>
    <path class="cls-3" d="M508.79,102.35h3.49v1.32h-5.14v-7.98h1.64v6.66Z"/>
  </g>
  <g>
    <path class="cls-1" d="M0,16.92c0-.47,.06-.9,.17-1.3s.28-.73,.5-1.02,.48-.51,.8-.67c.32-.16,.68-.24,1.08-.24,.37,0,.7,.06,.99,.19s.53,.31,.74,.55l.05-.62h.99v8.73h-1.08v-3c-.21,.22-.46,.39-.73,.51-.28,.12-.6,.18-.97,.18-.4,0-.76-.08-1.07-.25-.31-.16-.58-.39-.8-.68s-.38-.63-.5-1.02-.17-.81-.17-1.26v-.12Zm1.08,.12c0,.31,.03,.6,.1,.88s.17,.53,.31,.74c.14,.21,.32,.38,.53,.51,.22,.13,.47,.19,.77,.19,.35,0,.64-.08,.87-.23,.23-.16,.42-.36,.57-.61v-3.11c-.07-.12-.16-.23-.25-.33s-.2-.19-.32-.26c-.12-.07-.25-.13-.39-.17-.14-.04-.3-.06-.46-.06-.3,0-.56,.06-.78,.19-.22,.13-.4,.3-.54,.52s-.25,.46-.31,.74c-.07,.28-.1,.57-.1,.88v.12Z"/>
    <path class="cls-1" d="M11.46,19.25c-.21,.31-.47,.55-.79,.73-.31,.17-.68,.26-1.09,.26-.33,0-.63-.05-.9-.15-.27-.1-.5-.26-.69-.48s-.34-.49-.44-.83c-.1-.34-.15-.74-.15-1.21v-3.75h1.08v3.76c0,.34,.03,.63,.08,.85,.05,.23,.14,.41,.25,.54,.11,.13,.24,.23,.4,.28,.16,.05,.34,.08,.54,.08,.44,0,.79-.09,1.06-.27,.27-.18,.47-.42,.6-.72v-4.52h1.08v6.31h-.98l-.06-.87Z"/>
    <path class="cls-1" d="M17.32,20.24c-.44,0-.85-.08-1.22-.23-.37-.15-.69-.36-.95-.64-.26-.27-.47-.59-.62-.97-.15-.37-.22-.78-.22-1.22v-.24c0-.51,.08-.97,.25-1.37,.16-.4,.38-.74,.65-1.02,.27-.28,.58-.49,.92-.64,.34-.15,.7-.22,1.06-.22,.45,0,.85,.08,1.19,.24,.34,.16,.62,.38,.85,.65,.23,.28,.39,.61,.5,.98,.11,.38,.17,.79,.17,1.22v.48h-4.51c.01,.29,.07,.56,.17,.81,.1,.25,.23,.47,.41,.66,.17,.19,.38,.34,.62,.45,.24,.11,.51,.16,.8,.16,.38,0,.73-.08,1.03-.23,.3-.16,.55-.36,.75-.62l.66,.51c-.1,.16-.24,.31-.39,.46-.16,.15-.34,.28-.54,.39s-.44,.2-.7,.27c-.26,.07-.54,.1-.85,.1Zm-.14-5.66c-.22,0-.42,.04-.62,.12s-.37,.2-.52,.35c-.16,.15-.29,.34-.39,.57s-.18,.48-.22,.77h3.39v-.08c-.01-.21-.05-.42-.12-.62-.07-.21-.17-.39-.3-.55-.13-.16-.3-.3-.5-.4-.2-.1-.44-.15-.71-.15Z"/>
    <path class="cls-1" d="M25.83,13.7c.1,0,.21,0,.31,0s.21,.02,.31,.03c.1,.01,.19,.03,.27,.05s.15,.04,.21,.06l-.15,1.06c-.21-.05-.41-.08-.6-.1s-.39-.03-.59-.03c-.51,0-.91,.11-1.23,.34s-.54,.55-.69,.96v4.05h-1.08v-6.31h1.03l.05,1c.26-.35,.56-.62,.92-.82s.77-.3,1.23-.3Z"/>
    <path class="cls-1" d="M31.18,17.88l.28,.76,1.92-4.83h1.21l-3.2,7.28c-.07,.16-.17,.34-.28,.52-.11,.18-.25,.35-.42,.51-.16,.16-.35,.29-.57,.39s-.47,.16-.75,.16c-.05,0-.11,0-.17,0-.06,0-.12-.01-.19-.02-.06,0-.12-.02-.17-.03-.05-.01-.1-.02-.13-.03l.18-.88s.06,0,.11,0c.05,0,.1,0,.15,.01,.05,0,.1,0,.15,0,.05,0,.08,0,.11,0,.15,0,.28-.04,.41-.12,.12-.08,.23-.18,.33-.29s.18-.23,.25-.35c.07-.12,.12-.22,.16-.3l.43-.84-2.72-6.01h1.21l1.73,4.07Z"/>
    <path class="cls-2" d="M47.88,22.26c-.25,0-.48-.05-.69-.13s-.39-.18-.55-.31c-.16-.13-.3-.29-.42-.46s-.22-.36-.3-.56-.14-.41-.18-.62c-.04-.21-.06-.42-.06-.63v-.99c0-.56-.13-.97-.4-1.22-.27-.25-.67-.38-1.22-.39v-.85c.55,0,.96-.13,1.22-.38,.27-.25,.4-.66,.4-1.22v-.99c0-.21,.02-.42,.05-.63,.03-.21,.09-.42,.16-.62s.17-.39,.28-.56c.11-.17,.25-.33,.42-.46,.16-.13,.35-.24,.56-.31,.21-.08,.45-.12,.72-.13l.12,.67c-.28,0-.5,.07-.67,.2-.17,.12-.29,.28-.37,.48-.08,.19-.14,.41-.16,.65-.02,.24-.04,.48-.04,.72v.99c0,.47-.11,.88-.33,1.23-.21,.35-.55,.62-1,.8,.45,.18,.78,.44,1,.8,.21,.35,.32,.76,.33,1.22v.99c0,.24,.02,.48,.06,.72,.04,.24,.11,.45,.2,.65s.22,.35,.38,.48c.16,.12,.36,.19,.6,.2l-.12,.67Z"/>
    <path class="cls-2" d="M19.85,31.37c0,.45-.05,.87-.16,1.26s-.27,.73-.48,1.02c-.21,.29-.47,.51-.78,.68-.31,.16-.66,.25-1.06,.25s-.72-.06-1.02-.19c-.29-.12-.55-.3-.76-.54v3.03h-1.08v-8.73h.99l.05,.69c.21-.26,.46-.46,.76-.6,.3-.14,.64-.21,1.04-.21s.76,.08,1.07,.24c.31,.16,.57,.38,.78,.67,.21,.28,.37,.62,.48,1.02s.16,.83,.16,1.3v.12Zm-1.08-.12c0-.31-.03-.6-.1-.88-.07-.28-.17-.52-.31-.73-.14-.21-.32-.38-.54-.5s-.48-.19-.78-.19c-.35,0-.64,.08-.87,.24-.24,.16-.42,.37-.56,.62v3.04c.14,.25,.33,.45,.56,.61,.23,.16,.53,.24,.89,.24,.3,0,.56-.06,.78-.19,.22-.13,.4-.3,.54-.51,.14-.21,.24-.46,.31-.74,.07-.28,.1-.57,.1-.88v-.12Z"/>
    <path class="cls-2" d="M25.84,34.45c-.04-.08-.08-.18-.1-.31-.03-.12-.04-.25-.06-.38-.11,.11-.23,.21-.36,.31s-.28,.18-.44,.26c-.16,.07-.33,.13-.52,.17-.18,.04-.38,.06-.58,.06-.33,0-.64-.05-.91-.15-.27-.1-.5-.23-.69-.39-.19-.17-.33-.36-.44-.59s-.15-.47-.15-.74c0-.35,.07-.65,.21-.91,.14-.26,.33-.48,.59-.65s.56-.3,.91-.39c.36-.09,.75-.13,1.19-.13h1.18v-.5c0-.19-.04-.36-.1-.51-.07-.15-.17-.28-.3-.39-.13-.11-.29-.19-.47-.25-.18-.06-.39-.09-.62-.09-.21,0-.41,.03-.57,.08-.17,.05-.31,.13-.43,.22s-.21,.2-.27,.32-.1,.25-.1,.38h-1.08c0-.23,.06-.45,.18-.68s.28-.42,.5-.6,.48-.32,.79-.43,.66-.16,1.05-.16c.36,0,.69,.04,1,.13,.31,.09,.57,.22,.8,.4,.22,.18,.4,.4,.53,.66,.13,.26,.19,.57,.19,.93v2.93c0,.21,.02,.43,.06,.67,.04,.24,.09,.44,.16,.62v.09h-1.13Zm-1.91-.82c.21,0,.41-.03,.59-.08,.18-.05,.35-.13,.5-.22,.15-.09,.28-.19,.39-.31s.19-.23,.26-.36v-1.28h-1c-.63,0-1.12,.09-1.47,.28-.35,.19-.52,.48-.52,.88,0,.16,.03,.3,.08,.43,.05,.13,.13,.25,.24,.34s.24,.17,.4,.22c.16,.05,.34,.08,.55,.08Z"/>
    <path class="cls-2" d="M31.42,26.62v1.53h2.4v.83h-2.4v3.43c0,.25,.03,.45,.09,.61,.06,.16,.15,.29,.26,.38s.23,.16,.38,.2c.14,.04,.29,.06,.45,.06,.12,0,.24,0,.36-.02s.25-.03,.36-.05c.12-.02,.23-.04,.33-.06,.1-.02,.19-.04,.25-.06l.15,.76c-.09,.05-.2,.1-.33,.14-.13,.04-.27,.08-.42,.1-.15,.03-.31,.05-.48,.07-.17,.02-.34,.02-.5,.02-.28,0-.54-.04-.78-.12-.24-.08-.45-.21-.63-.38-.18-.17-.32-.4-.42-.67-.1-.27-.15-.6-.15-.99v-3.43h-1.66v-.83h1.66v-1.53h1.08Z"/>
    <path class="cls-2" d="M36.2,28.15h3.22v5.38h2.06v.93h-5.28v-.93h2.15v-4.44h-2.15v-.94Zm2.01-1.66c0-.18,.05-.33,.16-.45,.11-.12,.27-.18,.49-.18s.38,.06,.48,.18c.11,.12,.16,.27,.16,.45s-.05,.32-.16,.44-.27,.17-.48,.17-.38-.06-.49-.17-.16-.26-.16-.44Z"/>
    <path class="cls-2" d="M45.98,34.57c-.44,0-.85-.08-1.22-.23-.37-.15-.69-.36-.95-.64-.26-.27-.47-.59-.62-.97-.15-.37-.22-.78-.22-1.22v-.24c0-.51,.08-.97,.25-1.37,.16-.4,.38-.74,.65-1.02,.27-.28,.58-.49,.92-.64,.34-.15,.7-.22,1.06-.22,.45,0,.85,.08,1.19,.24,.34,.16,.62,.38,.85,.65,.23,.28,.39,.61,.5,.98,.11,.38,.17,.79,.17,1.22v.48h-4.51c.01,.29,.07,.56,.17,.81,.1,.25,.23,.47,.41,.66,.17,.19,.38,.34,.62,.45,.24,.11,.51,.16,.8,.16,.38,0,.73-.08,1.03-.23,.3-.16,.55-.36,.75-.62l.66,.51c-.1,.16-.24,.31-.39,.46-.16,.15-.34,.28-.54,.39s-.44,.2-.7,.27c-.26,.07-.54,.1-.85,.1Zm-.14-5.66c-.22,0-.42,.04-.62,.12s-.37,.2-.52,.35c-.16,.15-.29,.34-.39,.57s-.18,.48-.22,.77h3.39v-.08c-.01-.21-.05-.42-.12-.62-.07-.21-.17-.39-.3-.55-.13-.16-.3-.3-.5-.4-.2-.1-.44-.15-.71-.15Z"/>
    <path class="cls-2" d="M51.33,28.15l.08,.93c.23-.33,.51-.58,.85-.77s.71-.28,1.12-.28c.33,0,.63,.05,.9,.14s.5,.24,.69,.44,.34,.45,.44,.76,.15,.67,.15,1.09v4.01h-1.08v-3.98c0-.28-.03-.52-.09-.71s-.15-.35-.28-.47c-.12-.12-.27-.21-.45-.26-.18-.05-.38-.08-.61-.08-.36,0-.68,.09-.95,.27-.27,.18-.49,.42-.66,.71v4.52h-1.08v-6.31h.97Z"/>
    <path class="cls-2" d="M60.08,26.62v1.53h2.4v.83h-2.4v3.43c0,.25,.03,.45,.09,.61,.06,.16,.15,.29,.26,.38s.23,.16,.38,.2c.14,.04,.29,.06,.45,.06,.12,0,.24,0,.36-.02s.25-.03,.36-.05c.12-.02,.23-.04,.33-.06,.1-.02,.19-.04,.25-.06l.15,.76c-.09,.05-.2,.1-.33,.14-.13,.04-.27,.08-.42,.1-.15,.03-.31,.05-.48,.07-.17,.02-.34,.02-.5,.02-.28,0-.54-.04-.78-.12-.24-.08-.45-.21-.63-.38-.18-.17-.32-.4-.42-.67-.1-.27-.15-.6-.15-.99v-3.43h-1.66v-.83h1.66v-1.53h1.08Z"/>
    <path class="cls-2" d="M68.89,32.78c0-.13-.03-.24-.08-.35s-.14-.2-.26-.28c-.12-.09-.28-.16-.48-.24-.2-.07-.44-.14-.74-.2-.36-.07-.69-.16-.99-.27-.3-.1-.55-.23-.76-.38-.21-.15-.38-.32-.49-.51s-.17-.42-.17-.69,.06-.5,.18-.72c.12-.22,.29-.42,.51-.59,.22-.17,.48-.3,.78-.4s.63-.15,.99-.15c.39,0,.74,.05,1.05,.15s.58,.24,.79,.42,.39,.39,.5,.63,.18,.5,.18,.77h-1.08c0-.14-.04-.27-.1-.4-.07-.13-.17-.25-.29-.35s-.27-.18-.45-.25c-.18-.06-.38-.09-.6-.09s-.43,.03-.6,.08c-.17,.05-.32,.12-.43,.2-.11,.09-.2,.18-.26,.3-.06,.11-.09,.23-.09,.35s.02,.24,.07,.33c.05,.1,.13,.19,.24,.26s.27,.15,.46,.21,.44,.12,.73,.18c.39,.08,.74,.18,1.04,.28s.57,.24,.78,.38c.21,.15,.37,.32,.48,.52s.17,.43,.17,.69c0,.28-.06,.53-.19,.76-.13,.23-.3,.43-.53,.59-.23,.16-.5,.29-.81,.38s-.66,.13-1.03,.13c-.43,0-.81-.06-1.14-.17-.33-.11-.62-.27-.85-.46-.23-.19-.41-.41-.53-.66-.12-.25-.18-.51-.18-.78h1.08c.02,.22,.07,.41,.18,.56,.1,.15,.23,.27,.39,.37,.15,.09,.32,.16,.51,.2,.19,.04,.37,.06,.55,.06,.46,0,.81-.08,1.08-.25,.26-.17,.4-.39,.4-.66Z"/>
    <path class="cls-2" d="M83.72,36.59c-.25,0-.48-.05-.69-.13s-.39-.18-.55-.31c-.16-.13-.3-.29-.42-.46s-.22-.36-.3-.56-.14-.41-.18-.62c-.04-.21-.06-.42-.06-.63v-.99c0-.56-.13-.97-.4-1.22-.27-.25-.67-.38-1.22-.39v-.85c.55,0,.96-.13,1.22-.38,.27-.25,.4-.66,.4-1.22v-.99c0-.21,.02-.42,.05-.63,.03-.21,.09-.42,.16-.62s.17-.39,.28-.56c.11-.17,.25-.33,.42-.46,.16-.13,.35-.24,.56-.31,.21-.08,.45-.12,.72-.13l.12,.67c-.28,0-.5,.07-.67,.2-.17,.12-.29,.28-.37,.48-.08,.19-.14,.41-.16,.65-.02,.24-.04,.48-.04,.72v.99c0,.47-.11,.88-.33,1.23-.21,.35-.55,.62-1,.8,.45,.18,.78,.44,1,.8,.21,.35,.32,.76,.33,1.22v.99c0,.24,.02,.48,.06,.72,.04,.24,.11,.45,.2,.65s.22,.35,.38,.48c.16,.12,.36,.19,.6,.2l-.12,.67Z"/>
    <path class="cls-1" d="M29.83,42.48l.08,.93c.23-.33,.51-.58,.85-.77s.71-.28,1.12-.28c.33,0,.63,.05,.9,.14s.5,.24,.69,.44,.34,.45,.44,.76,.15,.67,.15,1.09v4.01h-1.08v-3.98c0-.28-.03-.52-.09-.71s-.15-.35-.28-.47c-.12-.12-.27-.21-.45-.26-.18-.05-.38-.08-.61-.08-.36,0-.68,.09-.95,.27-.27,.18-.49,.42-.66,.71v4.52h-1.08v-6.31h.97Z"/>
    <path class="cls-1" d="M40.18,48.78c-.04-.08-.08-.18-.1-.31-.03-.12-.04-.25-.06-.38-.11,.11-.23,.21-.36,.31s-.28,.18-.44,.26c-.16,.07-.33,.13-.52,.17-.18,.04-.38,.06-.58,.06-.33,0-.64-.05-.91-.15-.27-.1-.5-.23-.69-.39-.19-.17-.33-.36-.44-.59s-.15-.47-.15-.74c0-.35,.07-.65,.21-.91,.14-.26,.33-.48,.59-.65s.56-.3,.91-.39c.36-.09,.75-.13,1.19-.13h1.18v-.5c0-.19-.04-.36-.1-.51-.07-.15-.17-.28-.3-.39-.13-.11-.29-.19-.47-.25-.18-.06-.39-.09-.62-.09-.21,0-.41,.03-.57,.08-.17,.05-.31,.13-.43,.22s-.21,.2-.27,.32-.1,.25-.1,.38h-1.08c0-.23,.06-.45,.18-.68s.28-.42,.5-.6,.48-.32,.79-.43,.66-.16,1.05-.16c.36,0,.69,.04,1,.13,.31,.09,.57,.22,.8,.4,.22,.18,.4,.4,.53,.66,.13,.26,.19,.57,.19,.93v2.93c0,.21,.02,.43,.06,.67,.04,.24,.09,.44,.16,.62v.09h-1.13Zm-1.91-.82c.21,0,.41-.03,.59-.08,.18-.05,.35-.13,.5-.22,.15-.09,.28-.19,.39-.31s.19-.23,.26-.36v-1.28h-1c-.63,0-1.12,.09-1.47,.28-.35,.19-.52,.48-.52,.88,0,.16,.03,.3,.08,.43,.05,.13,.13,.25,.24,.34s.24,.17,.4,.22c.16,.05,.34,.08,.55,.08Z"/>
    <path class="cls-1" d="M43.69,42.48l.03,.59c.13-.22,.3-.39,.5-.52s.46-.19,.75-.19c.58,0,.97,.23,1.16,.68,.12-.2,.29-.36,.49-.49s.45-.19,.74-.19c.46,0,.82,.14,1.07,.43,.25,.28,.37,.71,.37,1.29v4.71h-1.03v-4.72c0-.53-.24-.79-.73-.79-.13,0-.24,.02-.33,.05-.09,.04-.17,.08-.23,.14-.06,.06-.11,.13-.15,.21-.04,.08-.06,.16-.07,.25v4.86h-1.03v-4.73c0-.25-.06-.45-.17-.58-.11-.14-.29-.2-.54-.2-.23,0-.4,.04-.52,.13-.12,.09-.22,.21-.27,.36v5.02h-1.03v-6.31h.97Z"/>
    <path class="cls-1" d="M53.15,48.9c-.44,0-.85-.08-1.22-.23-.37-.15-.69-.36-.95-.64-.26-.27-.47-.59-.62-.97-.15-.37-.22-.78-.22-1.22v-.24c0-.51,.08-.97,.25-1.37,.16-.4,.38-.74,.65-1.02,.27-.28,.58-.49,.92-.64,.34-.15,.7-.22,1.06-.22,.45,0,.85,.08,1.19,.24,.34,.16,.62,.38,.85,.65,.23,.28,.39,.61,.5,.98,.11,.38,.17,.79,.17,1.22v.48h-4.51c.01,.29,.07,.56,.17,.81,.1,.25,.23,.47,.41,.66,.17,.19,.38,.34,.62,.45,.24,.11,.51,.16,.8,.16,.38,0,.73-.08,1.03-.23,.3-.16,.55-.36,.75-.62l.66,.51c-.1,.16-.24,.31-.39,.46-.16,.15-.34,.28-.54,.39s-.44,.2-.7,.27c-.26,.07-.54,.1-.85,.1Zm-.14-5.66c-.22,0-.42,.04-.62,.12s-.37,.2-.52,.35c-.16,.15-.29,.34-.39,.57s-.18,.48-.22,.77h3.39v-.08c-.01-.21-.05-.42-.12-.62-.07-.21-.17-.39-.3-.55-.13-.16-.3-.3-.5-.4-.2-.1-.44-.15-.71-.15Z"/>
    <path class="cls-1" d="M33.01,63.12c-.04-.08-.08-.18-.1-.31-.03-.12-.04-.25-.06-.38-.11,.11-.23,.21-.36,.31s-.28,.18-.44,.26c-.16,.07-.33,.13-.52,.17-.18,.04-.38,.06-.58,.06-.33,0-.64-.05-.91-.15-.27-.1-.5-.23-.69-.39-.19-.17-.33-.36-.44-.59s-.15-.47-.15-.74c0-.35,.07-.65,.21-.91,.14-.26,.33-.48,.59-.65s.56-.3,.91-.39c.36-.09,.75-.13,1.19-.13h1.18v-.5c0-.19-.04-.36-.1-.51-.07-.15-.17-.28-.3-.39-.13-.11-.29-.19-.47-.25-.18-.06-.39-.09-.62-.09-.21,0-.41,.03-.57,.08-.17,.05-.31,.13-.43,.22s-.21,.2-.27,.32-.1,.25-.1,.38h-1.08c0-.23,.06-.45,.18-.68s.28-.42,.5-.6,.48-.32,.79-.43,.66-.16,1.05-.16c.36,0,.69,.04,1,.13,.31,.09,.57,.22,.8,.4,.22,.18,.4,.4,.53,.66,.13,.26,.19,.57,.19,.93v2.93c0,.21,.02,.43,.06,.67,.04,.24,.09,.44,.16,.62v.09h-1.13Zm-1.91-.82c.21,0,.41-.03,.59-.08,.18-.05,.35-.13,.5-.22,.15-.09,.28-.19,.39-.31s.19-.23,.26-.36v-1.28h-1c-.63,0-1.12,.09-1.47,.28-.35,.19-.52,.48-.52,.88,0,.16,.03,.3,.08,.43,.05,.13,.13,.25,.24,.34s.24,.17,.4,.22c.16,.05,.34,.08,.55,.08Z"/>
    <path class="cls-1" d="M35.83,59.91c0-.47,.06-.9,.17-1.3s.28-.73,.5-1.02,.48-.51,.79-.67c.31-.16,.66-.24,1.06-.24s.73,.07,1.02,.21c.29,.14,.54,.34,.75,.6l.05-.69h.98v6.17c0,.42-.06,.79-.2,1.11s-.31,.6-.55,.82c-.23,.23-.52,.4-.84,.51s-.69,.17-1.08,.17c-.16,0-.35-.02-.56-.06-.21-.04-.42-.1-.64-.18-.22-.08-.42-.2-.62-.34s-.37-.31-.52-.52l.56-.65c.13,.16,.27,.29,.41,.41,.14,.11,.28,.2,.43,.27,.14,.07,.29,.11,.43,.14,.14,.03,.29,.04,.43,.04,.26,0,.49-.04,.69-.11s.38-.18,.53-.32c.15-.14,.26-.32,.34-.53s.12-.45,.12-.72v-.54c-.21,.24-.46,.42-.74,.55-.29,.13-.62,.19-.99,.19s-.73-.08-1.04-.25c-.31-.16-.57-.39-.79-.68s-.38-.63-.5-1.02-.17-.81-.17-1.26v-.12Zm1.08,.12c0,.31,.03,.6,.1,.87,.06,.28,.17,.52,.3,.73,.14,.21,.31,.38,.53,.5s.47,.18,.77,.18c.19,0,.35-.02,.5-.07,.15-.04,.28-.11,.4-.19,.12-.08,.22-.18,.32-.29,.09-.11,.17-.24,.25-.37v-2.89c-.07-.13-.15-.25-.25-.36-.09-.11-.2-.2-.32-.28-.12-.08-.25-.14-.4-.19-.15-.04-.31-.07-.49-.07-.3,0-.56,.06-.78,.19s-.39,.29-.53,.5c-.14,.21-.24,.46-.3,.73-.06,.28-.1,.57-.1,.88v.12Z"/>
    <path class="cls-1" d="M45.98,63.23c-.44,0-.85-.08-1.22-.23-.37-.15-.69-.36-.95-.64-.26-.27-.47-.59-.62-.97-.15-.37-.22-.78-.22-1.22v-.24c0-.51,.08-.97,.25-1.37,.16-.4,.38-.74,.65-1.02,.27-.28,.58-.49,.92-.64,.34-.15,.7-.22,1.06-.22,.45,0,.85,.08,1.19,.24,.34,.16,.62,.38,.85,.65,.23,.28,.39,.61,.5,.98,.11,.38,.17,.79,.17,1.22v.48h-4.51c.01,.29,.07,.56,.17,.81,.1,.25,.23,.47,.41,.66,.17,.19,.38,.34,.62,.45,.24,.11,.51,.16,.8,.16,.38,0,.73-.08,1.03-.23,.3-.16,.55-.36,.75-.62l.66,.51c-.1,.16-.24,.31-.39,.46-.16,.15-.34,.28-.54,.39s-.44,.2-.7,.27c-.26,.07-.54,.1-.85,.1Zm-.14-5.66c-.22,0-.42,.04-.62,.12s-.37,.2-.52,.35c-.16,.15-.29,.34-.39,.57s-.18,.48-.22,.77h3.39v-.08c-.01-.21-.05-.42-.12-.62-.07-.21-.17-.39-.3-.55-.13-.16-.3-.3-.5-.4-.2-.1-.44-.15-.71-.15Z"/>
    <path class="cls-2" d="M28.66,74.24c0-.47,.06-.9,.18-1.3s.29-.73,.51-1.02,.48-.51,.8-.67c.31-.16,.66-.24,1.04-.24s.71,.06,.99,.19,.53,.31,.73,.55v-3.27h1.08v8.96h-.99l-.05-.66c-.21,.26-.46,.45-.75,.58-.29,.13-.63,.2-1.02,.2s-.73-.08-1.04-.25c-.31-.16-.57-.39-.79-.68s-.39-.63-.51-1.02-.18-.81-.18-1.26v-.12Zm1.08,.12c0,.31,.03,.6,.1,.87,.07,.28,.17,.52,.31,.73,.14,.21,.31,.38,.53,.5s.47,.18,.77,.18c.18,0,.35-.02,.5-.06,.15-.04,.28-.1,.4-.18,.12-.08,.23-.17,.32-.29s.18-.23,.25-.37v-2.93c-.14-.26-.33-.47-.57-.63-.24-.17-.53-.25-.89-.25-.3,0-.56,.06-.78,.19s-.39,.29-.53,.5c-.14,.21-.24,.46-.31,.73-.07,.28-.1,.57-.1,.88v.12Z"/>
    <path class="cls-2" d="M35.73,74.23c0-.46,.07-.88,.2-1.27,.13-.39,.32-.73,.57-1.02,.25-.29,.55-.51,.9-.68,.35-.17,.75-.25,1.2-.25s.85,.08,1.2,.25c.36,.17,.66,.39,.9,.68,.25,.29,.44,.63,.57,1.02,.13,.39,.2,.81,.2,1.27v.13c0,.45-.07,.88-.2,1.27s-.32,.73-.57,1.01c-.25,.29-.55,.51-.9,.68-.35,.16-.75,.25-1.2,.25s-.85-.08-1.2-.25c-.36-.16-.66-.39-.9-.68-.25-.29-.44-.63-.57-1.01s-.2-.81-.2-1.27v-.13Zm1.08,.13c0,.31,.04,.61,.11,.89s.19,.53,.34,.74c.15,.21,.34,.38,.56,.51,.23,.12,.49,.19,.79,.19s.56-.06,.78-.19c.22-.12,.41-.29,.56-.51,.15-.21,.26-.46,.34-.74,.07-.28,.11-.58,.11-.89v-.13c0-.31-.04-.6-.11-.88s-.19-.53-.34-.74c-.15-.21-.34-.38-.56-.51-.22-.13-.49-.19-.78-.19s-.56,.06-.78,.19-.41,.3-.56,.51c-.15,.21-.26,.46-.34,.74s-.11,.58-.11,.88v.13Z"/>
    <path class="cls-2" d="M45.88,76.69c.19,0,.38-.03,.57-.09,.18-.06,.35-.15,.49-.26,.14-.11,.26-.24,.35-.39s.13-.31,.14-.49h1.02c0,.28-.08,.55-.22,.8-.14,.25-.33,.48-.57,.67-.24,.19-.51,.35-.82,.46-.31,.11-.63,.17-.96,.17-.48,0-.9-.09-1.25-.26-.36-.17-.66-.4-.9-.69-.24-.29-.42-.62-.54-1s-.18-.78-.18-1.2v-.24c0-.42,.06-.81,.18-1.2,.12-.38,.3-.72,.54-1.01,.24-.29,.54-.52,.9-.69,.36-.17,.78-.26,1.25-.26,.37,0,.72,.06,1.03,.18s.58,.28,.81,.48,.41,.45,.53,.73c.13,.28,.19,.58,.19,.9h-1.02c0-.19-.05-.37-.13-.54-.08-.17-.19-.32-.32-.45-.14-.13-.3-.23-.49-.3s-.39-.11-.61-.11c-.33,0-.62,.07-.84,.2-.23,.13-.41,.31-.55,.52s-.24,.46-.3,.73c-.06,.27-.09,.54-.09,.81v.24c0,.28,.03,.55,.09,.82s.16,.51,.3,.73,.32,.39,.55,.52c.23,.13,.51,.2,.85,.2Z"/>
    <path class="cls-2" d="M54.46,76.58c-.21,.31-.47,.55-.79,.73-.31,.17-.68,.26-1.09,.26-.33,0-.63-.05-.9-.15-.27-.1-.5-.26-.69-.48s-.34-.49-.44-.83c-.1-.34-.15-.74-.15-1.21v-3.75h1.08v3.76c0,.34,.03,.63,.08,.85,.05,.23,.14,.41,.25,.54,.11,.13,.24,.23,.4,.28,.16,.05,.34,.08,.54,.08,.44,0,.79-.09,1.06-.27,.27-.18,.47-.42,.6-.72v-4.52h1.08v6.31h-.98l-.06-.87Z"/>
    <path class="cls-2" d="M58.03,71.14l.03,.59c.13-.22,.3-.39,.5-.52s.46-.19,.75-.19c.58,0,.97,.23,1.16,.68,.12-.2,.29-.36,.49-.49s.45-.19,.74-.19c.46,0,.82,.14,1.07,.43,.25,.28,.37,.71,.37,1.29v4.71h-1.03v-4.72c0-.53-.24-.79-.73-.79-.13,0-.24,.02-.33,.05-.09,.04-.17,.08-.23,.14-.06,.06-.11,.13-.15,.21-.04,.08-.06,.16-.07,.25v4.86h-1.03v-4.73c0-.25-.06-.45-.17-.58-.11-.14-.29-.2-.54-.2-.23,0-.4,.04-.52,.13-.12,.09-.22,.21-.27,.36v5.02h-1.03v-6.31h.97Z"/>
    <path class="cls-2" d="M67.48,77.56c-.44,0-.85-.08-1.22-.23-.37-.15-.69-.36-.95-.64-.26-.27-.47-.59-.62-.97-.15-.37-.22-.78-.22-1.22v-.24c0-.51,.08-.97,.25-1.37,.16-.4,.38-.74,.65-1.02,.27-.28,.58-.49,.92-.64,.34-.15,.7-.22,1.06-.22,.45,0,.85,.08,1.19,.24,.34,.16,.62,.38,.85,.65,.23,.28,.39,.61,.5,.98,.11,.38,.17,.79,.17,1.22v.48h-4.51c.01,.29,.07,.56,.17,.81,.1,.25,.23,.47,.41,.66,.17,.19,.38,.34,.62,.45,.24,.11,.51,.16,.8,.16,.38,0,.73-.08,1.03-.23,.3-.16,.55-.36,.75-.62l.66,.51c-.1,.16-.24,.31-.39,.46-.16,.15-.34,.28-.54,.39s-.44,.2-.7,.27c-.26,.07-.54,.1-.85,.1Zm-.14-5.66c-.22,0-.42,.04-.62,.12s-.37,.2-.52,.35c-.16,.15-.29,.34-.39,.57s-.18,.48-.22,.77h3.39v-.08c-.01-.21-.05-.42-.12-.62-.07-.21-.17-.39-.3-.55-.13-.16-.3-.3-.5-.4-.2-.1-.44-.15-.71-.15Z"/>
    <path class="cls-2" d="M72.83,71.14l.08,.93c.23-.33,.51-.58,.85-.77s.71-.28,1.12-.28c.33,0,.63,.05,.9,.14s.5,.24,.69,.44,.34,.45,.44,.76,.15,.67,.15,1.09v4.01h-1.08v-3.98c0-.28-.03-.52-.09-.71s-.15-.35-.28-.47c-.12-.12-.27-.21-.45-.26-.18-.05-.38-.08-.61-.08-.36,0-.68,.09-.95,.27-.27,.18-.49,.42-.66,.71v4.52h-1.08v-6.31h.97Z"/>
    <path class="cls-2" d="M81.58,69.61v1.53h2.4v.83h-2.4v3.43c0,.25,.03,.45,.09,.61,.06,.16,.15,.29,.26,.38s.23,.16,.38,.2c.14,.04,.29,.06,.45,.06,.12,0,.24,0,.36-.02s.25-.03,.36-.05c.12-.02,.23-.04,.33-.06,.1-.02,.19-.04,.25-.06l.15,.76c-.09,.05-.2,.1-.33,.14-.13,.04-.27,.08-.42,.1-.15,.03-.31,.05-.48,.07-.17,.02-.34,.02-.5,.02-.28,0-.54-.04-.78-.12-.24-.08-.45-.21-.63-.38-.18-.17-.32-.4-.42-.67-.1-.27-.15-.6-.15-.99v-3.43h-1.66v-.83h1.66v-1.53h1.08Z"/>
    <path class="cls-2" d="M90.39,75.77c0-.13-.03-.24-.08-.35s-.14-.2-.26-.28c-.12-.09-.28-.16-.48-.24-.2-.07-.44-.14-.74-.2-.36-.07-.69-.16-.99-.27-.3-.1-.55-.23-.76-.38-.21-.15-.38-.32-.49-.51s-.17-.42-.17-.69,.06-.5,.18-.72c.12-.22,.29-.42,.51-.59,.22-.17,.48-.3,.78-.4s.63-.15,.99-.15c.39,0,.74,.05,1.05,.15s.58,.24,.79,.42,.39,.39,.5,.63,.18,.5,.18,.77h-1.08c0-.14-.04-.27-.1-.4-.07-.13-.17-.25-.29-.35s-.27-.18-.45-.25c-.18-.06-.38-.09-.6-.09s-.43,.03-.6,.08c-.17,.05-.32,.12-.43,.2-.11,.09-.2,.18-.26,.3-.06,.11-.09,.23-.09,.35s.02,.24,.07,.33c.05,.1,.13,.19,.24,.26s.27,.15,.46,.21,.44,.12,.73,.18c.39,.08,.74,.18,1.04,.28s.57,.24,.78,.38c.21,.15,.37,.32,.48,.52s.17,.43,.17,.69c0,.28-.06,.53-.19,.76-.13,.23-.3,.43-.53,.59-.23,.16-.5,.29-.81,.38s-.66,.13-1.03,.13c-.43,0-.81-.06-1.14-.17-.33-.11-.62-.27-.85-.46-.23-.19-.41-.41-.53-.66-.12-.25-.18-.51-.18-.78h1.08c.02,.22,.07,.41,.18,.56,.1,.15,.23,.27,.39,.37,.15,.09,.32,.16,.51,.2,.19,.04,.37,.06,.55,.06,.46,0,.81-.08,1.08-.25,.26-.17,.4-.39,.4-.66Z"/>
    <path class="cls-2" d="M105.22,79.58c-.25,0-.48-.05-.69-.13s-.39-.18-.55-.31c-.16-.13-.3-.29-.42-.46s-.22-.36-.3-.56-.14-.41-.18-.62c-.04-.21-.06-.42-.06-.63v-.99c0-.56-.13-.97-.4-1.22-.27-.25-.67-.38-1.22-.39v-.85c.55,0,.96-.13,1.22-.38,.27-.25,.4-.66,.4-1.22v-.99c0-.21,.02-.42,.05-.63,.03-.21,.09-.42,.16-.62s.17-.39,.28-.56c.11-.17,.25-.33,.42-.46,.16-.13,.35-.24,.56-.31,.21-.08,.45-.12,.72-.13l.12,.67c-.28,0-.5,.07-.67,.2-.17,.12-.29,.28-.37,.48-.08,.19-.14,.41-.16,.65-.02,.24-.04,.48-.04,.72v.99c0,.47-.11,.88-.33,1.23-.21,.35-.55,.62-1,.8,.45,.18,.78,.44,1,.8,.21,.35,.32,.76,.33,1.22v.99c0,.24,.02,.48,.06,.72,.04,.24,.11,.45,.2,.65s.22,.35,.38,.48c.16,.12,.36,.19,.6,.2l-.12,.67Z"/>
    <path class="cls-1" d="M44.16,85.47l.08,.93c.23-.33,.51-.58,.85-.77s.71-.28,1.12-.28c.33,0,.63,.05,.9,.14s.5,.24,.69,.44,.34,.45,.44,.76,.15,.67,.15,1.09v4.01h-1.08v-3.98c0-.28-.03-.52-.09-.71s-.15-.35-.28-.47c-.12-.12-.27-.21-.45-.26-.18-.05-.38-.08-.61-.08-.36,0-.68,.09-.95,.27-.27,.18-.49,.42-.66,.71v4.52h-1.08v-6.31h.97Z"/>
    <path class="cls-1" d="M54.51,91.78c-.04-.08-.08-.18-.1-.31-.03-.12-.04-.25-.06-.38-.11,.11-.23,.21-.36,.31s-.28,.18-.44,.26c-.16,.07-.33,.13-.52,.17-.18,.04-.38,.06-.58,.06-.33,0-.64-.05-.91-.15-.27-.1-.5-.23-.69-.39-.19-.17-.33-.36-.44-.59s-.15-.47-.15-.74c0-.35,.07-.65,.21-.91,.14-.26,.33-.48,.59-.65s.56-.3,.91-.39c.36-.09,.75-.13,1.19-.13h1.18v-.5c0-.19-.04-.36-.1-.51-.07-.15-.17-.28-.3-.39-.13-.11-.29-.19-.47-.25-.18-.06-.39-.09-.62-.09-.21,0-.41,.03-.57,.08-.17,.05-.31,.13-.43,.22s-.21,.2-.27,.32-.1,.25-.1,.38h-1.08c0-.23,.06-.45,.18-.68s.28-.42,.5-.6,.48-.32,.79-.43,.66-.16,1.05-.16c.36,0,.69,.04,1,.13,.31,.09,.57,.22,.8,.4,.22,.18,.4,.4,.53,.66,.13,.26,.19,.57,.19,.93v2.93c0,.21,.02,.43,.06,.67,.04,.24,.09,.44,.16,.62v.09h-1.13Zm-1.91-.82c.21,0,.41-.03,.59-.08,.18-.05,.35-.13,.5-.22,.15-.09,.28-.19,.39-.31s.19-.23,.26-.36v-1.28h-1c-.63,0-1.12,.09-1.47,.28-.35,.19-.52,.48-.52,.88,0,.16,.03,.3,.08,.43,.05,.13,.13,.25,.24,.34s.24,.17,.4,.22c.16,.05,.34,.08,.55,.08Z"/>
    <path class="cls-1" d="M58.03,85.47l.03,.59c.13-.22,.3-.39,.5-.52s.46-.19,.75-.19c.58,0,.97,.23,1.16,.68,.12-.2,.29-.36,.49-.49s.45-.19,.74-.19c.46,0,.82,.14,1.07,.43,.25,.28,.37,.71,.37,1.29v4.71h-1.03v-4.72c0-.53-.24-.79-.73-.79-.13,0-.24,.02-.33,.05-.09,.04-.17,.08-.23,.14-.06,.06-.11,.13-.15,.21-.04,.08-.06,.16-.07,.25v4.86h-1.03v-4.73c0-.25-.06-.45-.17-.58-.11-.14-.29-.2-.54-.2-.23,0-.4,.04-.52,.13-.12,.09-.22,.21-.27,.36v5.02h-1.03v-6.31h.97Z"/>
    <path class="cls-1" d="M67.48,91.89c-.44,0-.85-.08-1.22-.23-.37-.15-.69-.36-.95-.64-.26-.27-.47-.59-.62-.97-.15-.37-.22-.78-.22-1.22v-.24c0-.51,.08-.97,.25-1.37,.16-.4,.38-.74,.65-1.02,.27-.28,.58-.49,.92-.64,.34-.15,.7-.22,1.06-.22,.45,0,.85,.08,1.19,.24,.34,.16,.62,.38,.85,.65,.23,.28,.39,.61,.5,.98,.11,.38,.17,.79,.17,1.22v.48h-4.51c.01,.29,.07,.56,.17,.81,.1,.25,.23,.47,.41,.66,.17,.19,.38,.34,.62,.45,.24,.11,.51,.16,.8,.16,.38,0,.73-.08,1.03-.23,.3-.16,.55-.36,.75-.62l.66,.51c-.1,.16-.24,.31-.39,.46-.16,.15-.34,.28-.54,.39s-.44,.2-.7,.27c-.26,.07-.54,.1-.85,.1Zm-.14-5.66c-.22,0-.42,.04-.62,.12s-.37,.2-.52,.35c-.16,.15-.29,.34-.39,.57s-.18,.48-.22,.77h3.39v-.08c-.01-.21-.05-.42-.12-.62-.07-.21-.17-.39-.3-.55-.13-.16-.3-.3-.5-.4-.2-.1-.44-.15-.71-.15Z"/>
    <path class="cls-1" d="M45.75,98.27v1.53h2.4v.83h-2.4v3.43c0,.25,.03,.45,.09,.61,.06,.16,.15,.29,.26,.38s.23,.16,.38,.2c.14,.04,.29,.06,.45,.06,.12,0,.24,0,.36-.02s.25-.03,.36-.05c.12-.02,.23-.04,.33-.06,.1-.02,.19-.04,.25-.06l.15,.76c-.09,.05-.2,.1-.33,.14-.13,.04-.27,.08-.42,.1-.15,.03-.31,.05-.48,.07-.17,.02-.34,.02-.5,.02-.28,0-.54-.04-.78-.12-.24-.08-.45-.21-.63-.38-.18-.17-.32-.4-.42-.67-.1-.27-.15-.6-.15-.99v-3.43h-1.66v-.83h1.66v-1.53h1.08Z"/>
    <path class="cls-1" d="M53.15,106.22c-.44,0-.85-.08-1.22-.23-.37-.15-.69-.36-.95-.64-.26-.27-.47-.59-.62-.97-.15-.37-.22-.78-.22-1.22v-.24c0-.51,.08-.97,.25-1.37,.16-.4,.38-.74,.65-1.02,.27-.28,.58-.49,.92-.64,.34-.15,.7-.22,1.06-.22,.45,0,.85,.08,1.19,.24,.34,.16,.62,.38,.85,.65,.23,.28,.39,.61,.5,.98,.11,.38,.17,.79,.17,1.22v.48h-4.51c.01,.29,.07,.56,.17,.81,.1,.25,.23,.47,.41,.66,.17,.19,.38,.34,.62,.45,.24,.11,.51,.16,.8,.16,.38,0,.73-.08,1.03-.23,.3-.16,.55-.36,.75-.62l.66,.51c-.1,.16-.24,.31-.39,.46-.16,.15-.34,.28-.54,.39s-.44,.2-.7,.27c-.26,.07-.54,.1-.85,.1Zm-.14-5.66c-.22,0-.42,.04-.62,.12s-.37,.2-.52,.35c-.16,.15-.29,.34-.39,.57s-.18,.48-.22,.77h3.39v-.08c-.01-.21-.05-.42-.12-.62-.07-.21-.17-.39-.3-.55-.13-.16-.3-.3-.5-.4-.2-.1-.44-.15-.71-.15Z"/>
    <path class="cls-1" d="M60.14,102.14l1.69-2.34h1.27l-2.35,3.12,2.41,3.19h-1.25l-1.74-2.4-1.74,2.4h-1.26l2.41-3.19-2.35-3.12h1.25l1.67,2.34Z"/>
    <path class="cls-1" d="M67.25,98.27v1.53h2.4v.83h-2.4v3.43c0,.25,.03,.45,.09,.61,.06,.16,.15,.29,.26,.38s.23,.16,.38,.2c.14,.04,.29,.06,.45,.06,.12,0,.24,0,.36-.02s.25-.03,.36-.05c.12-.02,.23-.04,.33-.06,.1-.02,.19-.04,.25-.06l.15,.76c-.09,.05-.2,.1-.33,.14-.13,.04-.27,.08-.42,.1-.15,.03-.31,.05-.48,.07-.17,.02-.34,.02-.5,.02-.28,0-.54-.04-.78-.12-.24-.08-.45-.21-.63-.38-.18-.17-.32-.4-.42-.67-.1-.27-.15-.6-.15-.99v-3.43h-1.66v-.83h1.66v-1.53h1.08Z"/>
    <path class="cls-3" d="M43.37,114.13h3.22v5.38h2.06v.93h-5.28v-.93h2.15v-4.44h-2.15v-.94Zm2.01-1.66c0-.18,.05-.33,.16-.45,.11-.12,.27-.18,.49-.18s.38,.06,.48,.18c.11,.12,.16,.27,.16,.45s-.05,.32-.16,.44c-.11,.12-.27,.17-.48,.17s-.38-.06-.49-.17c-.11-.12-.16-.26-.16-.44Z"/>
    <path class="cls-3" d="M50.86,114.13l.03,.59c.13-.22,.3-.39,.5-.52,.21-.12,.46-.19,.75-.19,.58,0,.97,.23,1.16,.68,.12-.2,.29-.36,.49-.49,.2-.12,.45-.19,.74-.19,.46,0,.82,.14,1.07,.43,.25,.28,.37,.71,.37,1.29v4.71h-1.03v-4.72c0-.53-.24-.79-.73-.79-.13,0-.24,.02-.33,.05s-.17,.08-.23,.14-.11,.13-.15,.21c-.04,.08-.06,.16-.07,.25v4.86h-1.03v-4.73c0-.25-.06-.45-.17-.58s-.29-.2-.54-.2c-.23,0-.4,.04-.52,.13-.12,.09-.22,.21-.27,.36v5.02h-1.03v-6.31h.97Z"/>
    <path class="cls-3" d="M61.68,120.44c-.04-.08-.08-.18-.1-.31-.03-.12-.04-.25-.06-.38-.11,.11-.23,.21-.36,.31-.13,.1-.28,.18-.44,.26-.16,.07-.33,.13-.52,.17-.18,.04-.38,.06-.58,.06-.33,0-.64-.05-.91-.15-.27-.1-.5-.23-.69-.39s-.33-.36-.44-.59-.15-.47-.15-.74c0-.35,.07-.65,.21-.91,.14-.26,.33-.48,.59-.65s.56-.3,.91-.39c.36-.08,.75-.13,1.19-.13h1.18v-.5c0-.19-.04-.36-.1-.51-.07-.15-.17-.28-.3-.39-.13-.11-.29-.19-.47-.25s-.39-.09-.62-.09c-.21,0-.41,.03-.57,.08s-.31,.13-.43,.22c-.12,.09-.21,.2-.27,.32-.06,.12-.1,.25-.1,.38h-1.08c0-.23,.06-.45,.18-.68s.28-.42,.5-.6,.48-.32,.79-.43c.31-.11,.66-.16,1.05-.16,.36,0,.69,.04,1,.13s.57,.22,.8,.4,.4,.4,.53,.66c.13,.26,.19,.57,.19,.93v2.93c0,.21,.02,.43,.06,.67,.04,.24,.09,.44,.16,.62v.09h-1.13Zm-1.91-.82c.21,0,.41-.03,.59-.08,.18-.05,.35-.13,.5-.22,.15-.09,.28-.19,.39-.31,.11-.12,.19-.23,.26-.36v-1.28h-1c-.63,0-1.12,.09-1.47,.28-.35,.19-.52,.48-.52,.88,0,.16,.03,.3,.08,.43,.05,.13,.13,.25,.24,.34,.1,.1,.24,.17,.4,.22,.16,.05,.34,.08,.55,.08Z"/>
    <path class="cls-3" d="M64.5,117.23c0-.47,.06-.9,.17-1.3s.28-.73,.5-1.02c.22-.28,.48-.5,.79-.67,.31-.16,.66-.24,1.06-.24s.73,.07,1.02,.21c.29,.14,.54,.34,.75,.6l.05-.69h.98v6.17c0,.42-.06,.79-.2,1.11-.13,.32-.31,.6-.55,.82-.23,.23-.52,.4-.84,.51-.33,.12-.69,.17-1.08,.17-.16,0-.35-.02-.56-.05-.21-.04-.42-.1-.64-.18-.22-.08-.42-.2-.62-.34-.2-.14-.37-.31-.52-.52l.56-.65c.13,.16,.27,.29,.41,.41,.14,.11,.28,.2,.43,.27,.14,.07,.29,.11,.43,.14,.14,.03,.29,.04,.43,.04,.26,0,.49-.04,.69-.11,.21-.07,.38-.18,.53-.32,.15-.14,.26-.32,.34-.53s.12-.45,.12-.72v-.54c-.21,.24-.46,.42-.74,.55s-.62,.19-.99,.19-.73-.08-1.04-.25c-.31-.16-.57-.39-.79-.68-.22-.29-.38-.63-.5-1.02s-.17-.81-.17-1.26v-.12Zm1.08,.12c0,.31,.03,.6,.1,.88,.06,.28,.17,.52,.3,.73,.14,.21,.31,.38,.53,.5,.21,.12,.47,.18,.77,.18,.19,0,.35-.02,.5-.07,.15-.04,.28-.11,.4-.19s.22-.18,.32-.29c.09-.11,.17-.24,.25-.37v-2.89c-.07-.13-.15-.25-.25-.36-.09-.11-.2-.2-.32-.28-.12-.08-.25-.14-.4-.19-.15-.04-.31-.07-.49-.07-.3,0-.56,.06-.78,.19-.22,.12-.39,.29-.53,.5-.14,.21-.24,.46-.3,.73-.06,.28-.1,.57-.1,.88v.12Z"/>
    <path class="cls-3" d="M74.65,120.55c-.44,0-.85-.08-1.22-.23-.37-.15-.69-.36-.95-.64-.26-.27-.47-.59-.62-.97-.15-.37-.22-.78-.22-1.22v-.24c0-.51,.08-.97,.25-1.37,.16-.4,.38-.74,.65-1.02,.27-.28,.58-.49,.92-.64,.34-.15,.7-.22,1.06-.22,.45,0,.85,.08,1.19,.24,.34,.16,.62,.38,.85,.65,.23,.28,.39,.61,.5,.98,.11,.38,.17,.79,.17,1.22v.48h-4.51c.01,.29,.07,.56,.17,.81s.23,.47,.41,.66c.17,.19,.38,.34,.62,.45,.24,.11,.51,.16,.8,.16,.38,0,.73-.08,1.03-.23,.3-.16,.55-.36,.75-.62l.66,.51c-.1,.16-.24,.31-.39,.46-.16,.15-.34,.28-.54,.39-.21,.11-.44,.2-.7,.27-.26,.07-.54,.1-.85,.1Zm-.14-5.66c-.22,0-.42,.04-.62,.12-.19,.08-.37,.2-.52,.35-.16,.15-.29,.34-.39,.57s-.18,.48-.22,.77h3.39v-.08c-.01-.21-.05-.42-.12-.62-.07-.21-.17-.39-.3-.55-.13-.16-.3-.3-.5-.4-.2-.1-.44-.15-.71-.15Z"/>
    <path class="cls-3" d="M83.22,118.76c0-.13-.03-.24-.08-.35-.05-.1-.14-.2-.26-.28-.12-.08-.28-.16-.48-.24-.2-.07-.44-.14-.74-.2-.36-.07-.69-.16-.99-.27-.3-.11-.55-.23-.76-.38-.21-.15-.38-.32-.49-.51s-.17-.42-.17-.69,.06-.5,.18-.72,.29-.42,.51-.59,.48-.3,.78-.4c.3-.1,.63-.15,.99-.15,.39,0,.74,.05,1.05,.15,.31,.1,.58,.24,.79,.42s.39,.39,.5,.63,.18,.5,.18,.77h-1.08c0-.14-.04-.27-.1-.4s-.17-.25-.29-.35c-.12-.1-.27-.18-.45-.25-.18-.06-.38-.09-.6-.09s-.43,.03-.6,.08-.32,.12-.43,.2c-.11,.08-.2,.18-.26,.3-.06,.11-.09,.23-.09,.35s.02,.24,.07,.33c.05,.1,.13,.18,.24,.26,.11,.08,.27,.15,.46,.21,.19,.06,.44,.12,.73,.18,.39,.08,.74,.18,1.04,.28,.31,.11,.57,.24,.78,.38,.21,.15,.37,.32,.48,.52s.17,.43,.17,.69c0,.28-.06,.54-.19,.76-.13,.23-.3,.43-.53,.59-.23,.16-.5,.29-.81,.38-.31,.09-.66,.13-1.03,.13-.43,0-.81-.06-1.14-.17-.33-.11-.62-.27-.85-.46-.23-.19-.41-.41-.53-.66-.12-.25-.18-.51-.18-.78h1.08c.02,.22,.07,.41,.18,.56,.1,.15,.23,.27,.39,.37,.15,.09,.32,.16,.51,.2,.19,.04,.37,.06,.55,.06,.46,0,.81-.08,1.08-.25,.26-.17,.4-.39,.4-.67Z"/>
    <path class="cls-3" d="M98.05,122.57c-.25,0-.48-.05-.69-.13-.21-.08-.39-.18-.55-.32-.16-.13-.3-.29-.42-.46s-.22-.36-.3-.56-.14-.41-.18-.62c-.04-.21-.06-.42-.06-.63v-.99c0-.56-.13-.97-.4-1.22-.27-.25-.67-.38-1.22-.39v-.84c.55,0,.96-.13,1.22-.38,.27-.25,.4-.66,.4-1.22v-.99c0-.21,.02-.42,.05-.63,.03-.21,.09-.42,.16-.62s.17-.39,.28-.56c.11-.17,.25-.33,.42-.46,.16-.13,.35-.24,.56-.32,.21-.08,.45-.12,.72-.13l.12,.67c-.28,0-.5,.07-.67,.2-.17,.12-.29,.28-.37,.47-.08,.19-.14,.41-.16,.65s-.04,.48-.04,.72v.99c0,.47-.11,.88-.33,1.23-.21,.35-.55,.62-1,.8,.45,.18,.78,.44,1,.8,.21,.35,.32,.76,.33,1.22v.99c0,.24,.02,.48,.06,.72,.04,.24,.11,.46,.2,.65s.22,.35,.38,.47c.16,.12,.36,.19,.6,.2l-.12,.67Z"/>
    <path class="cls-3" d="M58.5,128.46l.08,.93c.23-.33,.51-.58,.85-.77s.71-.28,1.12-.28c.33,0,.63,.05,.9,.14,.27,.09,.5,.24,.69,.44s.34,.45,.44,.75c.1,.31,.15,.67,.15,1.09v4.01h-1.08v-3.98c0-.28-.03-.52-.09-.71s-.15-.35-.28-.47c-.12-.12-.27-.21-.45-.26-.18-.05-.38-.08-.61-.08-.36,0-.68,.09-.95,.27-.27,.18-.49,.42-.66,.71v4.53h-1.08v-6.31h.97Z"/>
    <path class="cls-3" d="M68.84,134.77c-.04-.08-.08-.18-.1-.31-.03-.12-.04-.25-.06-.38-.11,.11-.23,.21-.36,.31-.13,.1-.28,.18-.44,.26-.16,.07-.33,.13-.52,.17-.18,.04-.38,.06-.58,.06-.33,0-.64-.05-.91-.15-.27-.1-.5-.23-.69-.39s-.33-.36-.44-.59-.15-.47-.15-.74c0-.35,.07-.65,.21-.91,.14-.26,.33-.48,.59-.65s.56-.3,.91-.39c.36-.08,.75-.13,1.19-.13h1.18v-.5c0-.19-.04-.36-.1-.51-.07-.15-.17-.28-.3-.39-.13-.11-.29-.19-.47-.25s-.39-.09-.62-.09c-.21,0-.41,.03-.57,.08s-.31,.13-.43,.22c-.12,.09-.21,.2-.27,.32-.06,.12-.1,.25-.1,.38h-1.08c0-.23,.06-.45,.18-.68s.28-.42,.5-.6,.48-.32,.79-.43c.31-.11,.66-.16,1.05-.16,.36,0,.69,.04,1,.13s.57,.22,.8,.4,.4,.4,.53,.66c.13,.26,.19,.57,.19,.93v2.93c0,.21,.02,.43,.06,.67,.04,.23,.09,.44,.16,.61v.09h-1.13Zm-1.91-.82c.21,0,.41-.03,.59-.08,.18-.05,.35-.13,.5-.22,.15-.09,.28-.19,.39-.31s.19-.23,.26-.36v-1.28h-1c-.63,0-1.12,.09-1.47,.28-.35,.19-.52,.48-.52,.88,0,.16,.03,.3,.08,.43,.05,.13,.13,.25,.24,.34,.1,.09,.24,.17,.4,.22,.16,.05,.34,.08,.55,.08Z"/>
    <path class="cls-3" d="M72.36,128.46l.03,.59c.13-.22,.3-.39,.5-.52,.21-.12,.46-.19,.75-.19,.58,0,.97,.23,1.16,.68,.12-.2,.29-.36,.49-.49,.2-.12,.45-.19,.74-.19,.46,0,.82,.14,1.07,.43,.25,.28,.37,.71,.37,1.29v4.71h-1.03v-4.72c0-.53-.24-.79-.73-.79-.13,0-.24,.02-.33,.05s-.17,.08-.23,.14-.11,.13-.15,.21c-.04,.08-.06,.16-.07,.25v4.86h-1.03v-4.73c0-.25-.06-.45-.17-.58s-.29-.2-.54-.2c-.23,0-.4,.04-.52,.13-.12,.09-.22,.21-.27,.36v5.02h-1.03v-6.31h.97Z"/>
    <path class="cls-3" d="M81.82,134.88c-.44,0-.85-.08-1.22-.23-.37-.15-.69-.36-.95-.64-.26-.27-.47-.59-.62-.97-.15-.37-.22-.78-.22-1.22v-.24c0-.51,.08-.97,.25-1.37,.16-.4,.38-.74,.65-1.02,.27-.28,.58-.49,.92-.64,.34-.15,.7-.22,1.06-.22,.45,0,.85,.08,1.19,.24,.34,.16,.62,.38,.85,.65,.23,.28,.39,.61,.5,.98,.11,.38,.17,.79,.17,1.22v.48h-4.51c.01,.29,.07,.56,.17,.81s.23,.47,.41,.66c.17,.19,.38,.34,.62,.45,.24,.11,.51,.16,.8,.16,.38,0,.73-.08,1.03-.23,.3-.16,.55-.36,.75-.62l.66,.51c-.1,.16-.24,.31-.39,.46-.16,.15-.34,.28-.54,.39-.21,.11-.44,.2-.7,.27-.26,.07-.54,.1-.85,.1Zm-.14-5.66c-.22,0-.42,.04-.62,.12-.19,.08-.37,.2-.52,.35-.16,.15-.29,.34-.39,.57s-.18,.48-.22,.77h3.39v-.08c-.01-.21-.05-.42-.12-.62-.07-.21-.17-.39-.3-.55-.13-.16-.3-.3-.5-.4-.2-.1-.44-.15-.71-.15Z"/>
    <path class="cls-3" d="M61.62,148.23c-.21,.31-.47,.55-.79,.73s-.68,.26-1.09,.26c-.33,0-.63-.05-.9-.15-.27-.1-.5-.26-.69-.48s-.34-.5-.44-.83c-.1-.34-.15-.74-.15-1.21v-3.75h1.08v3.76c0,.34,.03,.63,.08,.85,.05,.23,.14,.41,.25,.54,.11,.13,.24,.23,.4,.28,.16,.05,.34,.08,.54,.08,.44,0,.79-.09,1.06-.27,.27-.18,.47-.42,.6-.72v-4.53h1.08v6.31h-.98l-.06-.87Z"/>
    <path class="cls-3" d="M68.83,142.67c.1,0,.21,0,.31,0s.21,.02,.31,.03,.19,.03,.27,.05c.08,.02,.15,.04,.21,.06l-.15,1.06c-.21-.05-.41-.08-.6-.1-.19-.02-.39-.03-.59-.03-.51,0-.91,.11-1.23,.34s-.54,.55-.69,.96v4.05h-1.08v-6.31h1.03l.05,1c.26-.35,.56-.62,.92-.82s.77-.3,1.23-.3Z"/>
    <path class="cls-3" d="M72.03,140.14h3.22v8.02h2.06v.93h-5.28v-.93h2.15v-7.08h-2.15v-.94Z"/>
    <path class="cls-3" d="M44.07,164.89c.24,0,.44-.07,.59-.2,.16-.12,.29-.28,.38-.48,.1-.19,.16-.41,.2-.65,.04-.24,.06-.48,.06-.72v-.99c0-.46,.11-.87,.32-1.22s.55-.62,1-.8c-.45-.18-.78-.45-1-.8s-.32-.76-.32-1.23v-.99c0-.24-.01-.48-.04-.72-.03-.24-.08-.46-.16-.65-.08-.19-.21-.35-.37-.48-.16-.12-.39-.19-.67-.2l.12-.67c.27,0,.51,.05,.72,.13,.21,.08,.4,.18,.56,.31,.16,.13,.3,.29,.42,.46s.21,.36,.28,.56c.07,.2,.13,.41,.16,.62,.03,.21,.05,.42,.05,.63v.99c0,.56,.13,.97,.4,1.22,.27,.25,.67,.38,1.22,.38v.85c-.54,0-.95,.13-1.22,.38-.27,.25-.4,.66-.4,1.22v.99c0,.31-.04,.62-.13,.94-.09,.32-.22,.61-.4,.87-.18,.26-.41,.47-.69,.64-.28,.17-.6,.25-.99,.26l-.12-.67Z"/>
    <path class="cls-2" d="M29.73,179.22c.24,0,.44-.07,.59-.2,.16-.12,.29-.28,.38-.48,.1-.19,.16-.41,.2-.65,.04-.24,.06-.48,.06-.72v-.99c0-.46,.11-.87,.32-1.22s.55-.62,1-.8c-.45-.18-.78-.45-1-.8s-.32-.76-.32-1.23v-.99c0-.24-.01-.48-.04-.72-.03-.24-.08-.46-.16-.65-.08-.19-.21-.35-.37-.48-.16-.12-.39-.19-.67-.2l.12-.67c.27,0,.51,.05,.72,.13,.21,.08,.4,.18,.56,.31,.16,.13,.3,.29,.42,.46s.21,.36,.28,.56c.07,.2,.13,.41,.16,.62,.03,.21,.05,.42,.05,.63v.99c0,.56,.13,.97,.4,1.22,.27,.25,.67,.38,1.22,.38v.85c-.54,0-.95,.13-1.22,.38-.27,.25-.4,.66-.4,1.22v.99c0,.31-.04,.62-.13,.94-.09,.32-.22,.61-.4,.87-.18,.26-.41,.47-.69,.64-.28,.17-.6,.25-.99,.26l-.12-.67Z"/>
    <path class="cls-2" d="M15.4,193.55c.24,0,.44-.07,.59-.2,.16-.12,.29-.28,.38-.48,.1-.19,.16-.41,.2-.65,.04-.24,.06-.48,.06-.72v-.99c0-.46,.11-.87,.32-1.22s.55-.62,1-.8c-.45-.18-.78-.45-1-.8s-.32-.76-.32-1.23v-.99c0-.24-.01-.48-.04-.72-.03-.24-.08-.46-.16-.65-.08-.19-.21-.35-.37-.48-.16-.12-.39-.19-.67-.2l.12-.67c.27,0,.51,.05,.72,.13,.21,.08,.4,.18,.56,.31,.16,.13,.3,.29,.42,.46s.21,.36,.28,.56c.07,.2,.13,.41,.16,.62,.03,.21,.05,.42,.05,.63v.99c0,.56,.13,.97,.4,1.22,.27,.25,.67,.38,1.22,.38v.85c-.54,0-.95,.13-1.22,.38-.27,.25-.4,.66-.4,1.22v.99c0,.31-.04,.62-.13,.94-.09,.32-.22,.61-.4,.87-.18,.26-.41,.47-.69,.64-.28,.17-.6,.25-.99,.26l-.12-.67Z"/>
    <path class="cls-2" d="M1.07,207.89c.24,0,.44-.07,.59-.2,.16-.12,.29-.28,.38-.48,.1-.19,.16-.41,.2-.65,.04-.24,.06-.48,.06-.72v-.99c0-.46,.11-.87,.32-1.22s.55-.62,1-.8c-.45-.18-.78-.45-1-.8s-.32-.76-.32-1.23v-.99c0-.24-.01-.48-.04-.72-.03-.24-.08-.46-.16-.65-.08-.19-.21-.35-.37-.48-.16-.12-.39-.19-.67-.2l.12-.67c.27,0,.51,.05,.72,.13,.21,.08,.4,.18,.56,.31,.16,.13,.3,.29,.42,.46s.21,.36,.28,.56c.07,.2,.13,.41,.16,.62,.03,.21,.05,.42,.05,.63v.99c0,.56,.13,.97,.4,1.22,.27,.25,.67,.38,1.22,.38v.85c-.54,0-.95,.13-1.22,.38-.27,.25-.4,.66-.4,1.22v.99c0,.31-.04,.62-.13,.94-.09,.32-.22,.61-.4,.87-.18,.26-.41,.47-.69,.64-.28,.17-.6,.25-.99,.26l-.12-.67Z"/>
  </g>
  <g>
    <path class="cls-3" d="M461.65,15.38h-3.16v3.26h-1.64v-7.98h5.2v1.33h-3.55v2.06h3.16v1.33Z"/>
    <path class="cls-3" d="M466.45,16.99h-2.88l-.55,1.64h-1.75l2.97-7.98h1.52l2.99,7.98h-1.75l-.55-1.64Zm-2.44-1.33h2l-1-2.99-.99,2.99Z"/>
    <path class="cls-3" d="M471.25,18.64h-1.64v-7.98h1.64v7.98Z"/>
    <path class="cls-3" d="M474.42,17.32h3.49v1.32h-5.14v-7.98h1.64v6.66Z"/>
  </g>
</svg>